<?xml version="1.0" encoding="UTF-8"?>
<!DOCTYPE svg PUBLIC "-//W3C//DTD SVG 1.0//EN" "http://www.w3.org/TR/2001/REC-SVG-20010904/DTD/svg10.dtd">
<!-- Creator: CorelDRAW -->
<svg xmlns="http://www.w3.org/2000/svg" xml:space="preserve" width="1300px" height="1300px" version="1.0" style="shape-rendering:geometricPrecision; text-rendering:geometricPrecision; image-rendering:optimizeQuality; fill-rule:evenodd; clip-rule:evenodd"
viewBox="0 0 1300 1056"
 xmlns:xlink="http://www.w3.org/1999/xlink">
 <defs>
  <style type="text/css">
   <![CDATA[
    .fil0 {fill:#99CCCC}
   ]]>
  </style>
 </defs>
 <g id="_100:master">
  <metadata id="CorelCorpID_0Corel-Layer"/>
  <path class="fil0" d="M713 650l-1 0 0 0c-20,0 -40,-20 -40,-41 0,-21 20,-40 41,-40l0 0 59 0c83,0 129,-44 144,-119l10 -49c7,-35 75,-13 71,13l-9 51c-3,16 -7,31 -12,46 16,35 41,57 89,58l40 0 0 81 -40 0c-71,0 -111,-22 -135,-58 -32,36 -78,58 -142,58l-75 0 0 0z"/>
 </g>
</svg>
