<?xml version="1.0" encoding="UTF-8"?>
<!DOCTYPE svg PUBLIC "-//W3C//DTD SVG 1.0//EN" "http://www.w3.org/TR/2001/REC-SVG-20010904/DTD/svg10.dtd">
<!-- Creator: CorelDRAW -->
<svg xmlns="http://www.w3.org/2000/svg" xml:space="preserve" width="1300px" height="1300px" version="1.0" style="shape-rendering:geometricPrecision; text-rendering:geometricPrecision; image-rendering:optimizeQuality; fill-rule:evenodd; clip-rule:evenodd"
viewBox="0 0 1300 1056"
 xmlns:xlink="http://www.w3.org/1999/xlink">
 <defs>
  <style type="text/css">
   <![CDATA[
    .fil0 {fill:black;fill-opacity:0.501961}
   ]]>
  </style>
 </defs>
 <g id="_100:master" visibility="hidden">
  <metadata id="CorelCorpID_0Corel-Layer"/>
  <path class="fil0" d="M975 518c0,21 -18,45 -28,60l-44 -45c1,-71 -44,-153 -136,-254l59 -54c55,58 149,173 149,293z"/>
 </g>
 <g id="Layer_x0020_1" visibility="hidden">
  <metadata id="CorelCorpID_1Corel-Layer"/>
  <path class="fil0" d="M981 527c-10,15 -13,21 -32,42l-39 -39c44,-91 -113,-219 -159,-247 -8,-4 -1,-94 39,-72 54,34 225,156 191,316z"/>
  <path class="fil0" d="M926 468l55 59c-75,123 -214,137 -326,112 -8,-9 -37,-100 13,-81 85,25 219,3 258,-90z"/>
 </g>
 <g id="Layer_x0020_2">
  <metadata id="CorelCorpID_2Corel-Layer"/>
  <path class="fil0" d="M922 475c-17,-81 -127,-170 -165,-192 -7,-4 -1,-94 40,-72 160,100 210,226 183,316 -35,57 -83,91 -137,108 -61,20 -129,17 -189,4 -8,-9 -37,-100 13,-81 44,13 100,10 149,-5 45,-13 85,-37 106,-78z"/>
 </g>
</svg>
