<?xml version="1.0" encoding="UTF-8"?>
<!DOCTYPE svg PUBLIC "-//W3C//DTD SVG 1.0//EN" "http://www.w3.org/TR/2001/REC-SVG-20010904/DTD/svg10.dtd">
<!-- Creator: CorelDRAW -->
<svg xmlns="http://www.w3.org/2000/svg" xml:space="preserve" width="1300px" height="1300px" version="1.0" style="shape-rendering:geometricPrecision; text-rendering:geometricPrecision; image-rendering:optimizeQuality; fill-rule:evenodd; clip-rule:evenodd"
viewBox="0 0 1300 1056"
 xmlns:xlink="http://www.w3.org/1999/xlink">
 <defs>
  <style type="text/css">
   <![CDATA[
    .fil0 {fill:black;fill-opacity:0.501961}
   ]]>
  </style>
 </defs>
 <g id="_100:master" visibility="hidden">
  <metadata id="CorelCorpID_0Corel-Layer"/>
  <path class="fil0" d="M975 518c0,21 -18,45 -28,60l-44 -45c1,-71 -44,-153 -136,-254l59 -54c55,58 149,173 149,293z"/>
 </g>
 <g id="Layer_x0020_1" visibility="hidden">
  <metadata id="CorelCorpID_1Corel-Layer"/>
  <path class="fil0" d="M981 527c-10,15 -13,21 -32,42l-39 -39c44,-91 -113,-219 -159,-247 -8,-4 -1,-94 39,-72 54,34 225,156 191,316z"/>
  <path class="fil0" d="M926 468l55 59c-75,123 -214,137 -326,112 -8,-9 -37,-100 13,-81 85,25 219,3 258,-90z"/>
 </g>
 <g id="Layer_x0020_2" visibility="hidden">
  <metadata id="CorelCorpID_2Corel-Layer"/>
  <path class="fil0" d="M978 547l-62 -45c-1,-83 -71,-140 -175,-193l25 -78c128,60 255,146 212,316z"/>
  <path class="fil0" d="M920 481l64 31c-19,121 -230,187 -338,135 -11,-6 -37,-100 13,-81 86,33 247,-4 261,-85z"/>
 </g>
 <g id="Layer_x0020_3">
  <metadata id="CorelCorpID_3Corel-Layer"/>
  <path class="fil0" d="M917 492c-26,-85 -113,-141 -181,-189 -12,-10 4,-95 36,-76 96,70 220,147 212,285 -19,121 -230,187 -338,135 -11,-6 -37,-100 13,-81 82,32 232,0 258,-74z"/>
 </g>
</svg>
