<?xml version="1.0" encoding="UTF-8"?>
<!DOCTYPE svg PUBLIC "-//W3C//DTD SVG 1.0//EN" "http://www.w3.org/TR/2001/REC-SVG-20010904/DTD/svg10.dtd">
<!-- Creator: CorelDRAW -->
<svg xmlns="http://www.w3.org/2000/svg" xml:space="preserve" width="1300px" height="1300px" version="1.0" style="shape-rendering:geometricPrecision; text-rendering:geometricPrecision; image-rendering:optimizeQuality; fill-rule:evenodd; clip-rule:evenodd"
viewBox="0 0 1300 1056"
 xmlns:xlink="http://www.w3.org/1999/xlink">
 <defs>
  <style type="text/css">
   <![CDATA[
    .fil0 {fill:#006633}
   ]]>
  </style>
 </defs>
 <g id="_100:master">
  <metadata id="CorelCorpID_0Corel-Layer"/>
  <path class="fil0" d="M869 688l29 -28c11,-12 29,-12 40,0l29 28c11,11 11,29 0,40l-29 29c-11,11 -29,11 -40,0l-29 -29c-11,-11 -11,-29 0,-40zm-142 0l29 -28c11,-12 29,-12 40,0l29 28c11,11 11,29 0,40l-29 29c-11,11 -29,11 -40,0l-29 -29c-11,-11 -11,-29 0,-40zm74 109l26 -27c10,-10 27,-10 37,0l27 27c10,10 10,27 0,37l-27 27c-10,10 -27,10 -37,0l-26 -27c-11,-10 -11,-27 0,-37z"/>
 </g>
</svg>
