<?xml version="1.0" encoding="UTF-8"?>
<!DOCTYPE svg PUBLIC "-//W3C//DTD SVG 1.0//EN" "http://www.w3.org/TR/2001/REC-SVG-20010904/DTD/svg10.dtd">
<!-- Creator: CorelDRAW -->
<svg xmlns="http://www.w3.org/2000/svg" xml:space="preserve" width="1300px" height="1300px" version="1.0" style="shape-rendering:geometricPrecision; text-rendering:geometricPrecision; image-rendering:optimizeQuality; fill-rule:evenodd; clip-rule:evenodd"
viewBox="0 0 1300 1056"
 xmlns:xlink="http://www.w3.org/1999/xlink">
 <defs>
  <style type="text/css">
   <![CDATA[
    .fil0 {fill:#990000;fill-opacity:0.501961}
   ]]>
  </style>
 </defs>
 <g id="Layer_x0020_2">
  <metadata id="CorelCorpID_0Corel-Layer"/>
  <path class="fil0" d="M770 410c47,-13 100,-23 182,-35 23,-2 4,64 -2,72 -86,15 -201,52 -226,61 -128,52 -188,148 -187,231 2,199 270,162 368,124 48,-12 32,77 18,82 -152,51 -457,67 -460,-197 -1,-112 68,-238 210,-306 -147,-153 8,-427 255,-265 33,21 -2,77 -33,70 -222,-105 -257,107 -125,163z"/>
 </g>
</svg>
