<?xml version="1.0" encoding="UTF-8"?>
<!DOCTYPE svg PUBLIC "-//W3C//DTD SVG 1.0//EN" "http://www.w3.org/TR/2001/REC-SVG-20010904/DTD/svg10.dtd">
<!-- Creator: CorelDRAW -->
<svg xmlns="http://www.w3.org/2000/svg" xml:space="preserve" width="1300px" height="1300px" version="1.0" style="shape-rendering:geometricPrecision; text-rendering:geometricPrecision; image-rendering:optimizeQuality; fill-rule:evenodd; clip-rule:evenodd"
viewBox="0 0 1300 1056"
 xmlns:xlink="http://www.w3.org/1999/xlink">
 <defs>
  <style type="text/css">
   <![CDATA[
    .fil0 {fill:#99CCCC}
   ]]>
  </style>
 </defs>
 <g id="_100:master">
  <metadata id="CorelCorpID_0Corel-Layer"/>
  <path class="fil0" d="M602 569l45 0c21,0 39,-2 56,-4 -143,-157 12,-439 258,-278 32,22 -2,77 -33,71 -224,-106 -258,125 -123,180 47,-17 94,-34 180,-34 23,-2 6,78 -10,81 -96,3 -217,65 -325,65l-50 0 0 0c-20,-1 -39,-20 -39,-41 1,-21 21,-40 41,-40l0 0z"/>
 </g>
</svg>
