<?xml version="1.0" encoding="UTF-8"?>
<!DOCTYPE svg PUBLIC "-//W3C//DTD SVG 1.0//EN" "http://www.w3.org/TR/2001/REC-SVG-20010904/DTD/svg10.dtd">
<!-- Creator: CorelDRAW -->
<svg xmlns="http://www.w3.org/2000/svg" xml:space="preserve" width="1300px" height="1300px" version="1.0" style="shape-rendering:geometricPrecision; text-rendering:geometricPrecision; image-rendering:optimizeQuality; fill-rule:evenodd; clip-rule:evenodd"
viewBox="0 0 1300 1056"
 xmlns:xlink="http://www.w3.org/1999/xlink">
 <defs>
  <style type="text/css">
   <![CDATA[
    .fil0 {fill:black;fill-opacity:0.501961}
    .fil3 {fill:#663333;fill-opacity:0.501961}
    .fil2 {fill:#9900CC;fill-opacity:0.501961}
    .fil1 {fill:#99CCCC}
   ]]>
  </style>
 </defs>
 <g id="_100:master" visibility="hidden">
  <metadata id="CorelCorpID_0Corel-Layer"/>
  <path class="fil0" d="M891 490c-41,10 -76,15 -105,14 -166,-5 -120,-276 16,-276 113,0 173,130 173,228 0,129 -106,194 -319,194l-56 0 0 -81 56 0c157,0 235,-26 235,-79zm-102 -67c36,2 84,-8 103,-15 0,-48 -51,-98 -93,-99 -51,0 -88,111 -10,114z"/>
  <path class="fil1" d="M601 650l0 -81c-20,0 -40,19 -41,40 0,21 21,41 41,41z"/>
 </g>
 <g id="Layer_x0020_1" visibility="hidden">
  <metadata id="CorelCorpID_1Corel-Layer"/>
  <path class="fil1" d="M623 650l0 -81c-20,0 -40,19 -40,40 -1,21 20,41 40,41z"/>
  <path class="fil2" d="M901 506l73 -2c0,101 -64,146 -162,146l-189 0 0 -81 189 0c40,0 89,-20 89,-63z"/>
  <path class="fil0" d="M666 374c4,-128 73,-211 149,-211 95,0 161,97 159,341l-73 2c5,-322 -140,-320 -161,-146 -2,35 40,46 72,46l1 81c-65,1 -147,-21 -147,-113z"/>
  <path class="fil0" d="M813 487l-1 -81c34,1 74,-10 97,-16l1 81c-25,8 -61,16 -97,16z"/>
 </g>
 <g id="Layer_x0020_2" visibility="hidden">
  <metadata id="CorelCorpID_2Corel-Layer"/>
  <path class="fil1" d="M623 650l0 -81c-20,0 -40,19 -40,40 -1,21 20,41 40,41z"/>
  <path class="fil0" d="M815 163c160,-1 160,204 165,307l-76 24c1,-132 -21,-250 -92,-250 -69,0 -117,162 0,162l1 81c-222,0 -163,-323 2,-324z"/>
  <path class="fil0" d="M813 487l-1 -81c34,1 74,-10 97,-16l1 81c-25,8 -61,16 -97,16z"/>
  <path class="fil2" d="M901 453l77 -35c18,151 -26,232 -210,232l-145 0 0 -81 146 0c124,0 145,-48 132,-116z"/>
 </g>
 <g id="Layer_x0020_3">
  <metadata id="CorelCorpID_3Corel-Layer"/>
  <path class="fil3" d="M895 388c-14,-101 -49,-142 -83,-144 -35,-1 -73,42 -77,106 0,83 131,55 160,38zm-231 -31c3,-113 72,-193 148,-195 81,-1 153,80 164,256l0 0c19,151 -26,232 -210,232l-133 0 0 0c-20,-1 -40,-20 -40,-41 0,-20 20,-40 40,-40l0 0 1 0 0 0 134 0c112,0 140,-40 134,-98 -88,35 -241,25 -238,-114z"/>
 </g>
</svg>
