<?xml version="1.0" encoding="UTF-8"?>
<!DOCTYPE svg PUBLIC "-//W3C//DTD SVG 1.0//EN" "http://www.w3.org/TR/2001/REC-SVG-20010904/DTD/svg10.dtd">
<!-- Creator: CorelDRAW -->
<svg xmlns="http://www.w3.org/2000/svg" xml:space="preserve" width="1300px" height="1300px" version="1.0" style="shape-rendering:geometricPrecision; text-rendering:geometricPrecision; image-rendering:optimizeQuality; fill-rule:evenodd; clip-rule:evenodd"
viewBox="0 0 1300 1056"
 xmlns:xlink="http://www.w3.org/1999/xlink">
 <defs>
  <style type="text/css">
   <![CDATA[
    .fil2 {fill:black;fill-opacity:0.501961}
    .fil0 {fill:#FF9966;fill-opacity:0.501961}
    .fil1 {fill:#99CCCC}
   ]]>
  </style>
 </defs>
 <g id="_100:master" visibility="hidden">
  <metadata id="CorelCorpID_0Corel-Layer"/>
  <path class="fil0" d="M890 438l71 -21c9,127 -196,233 -349,233l-44 0 0 -81 34 0c151,0 282,-99 288,-131z"/>
  <path class="fil1" d="M569 650l0 -81c-21,0 -41,19 -41,40 0,21 20,41 41,41z"/>
  <path class="fil2" d="M961 417l-71 21c-10,-53 -43,-113 -79,-113 -35,0 -89,58 -87,113 2,55 140,131 307,131l21 0 0 81 -31 0c-178,0 -371,-81 -371,-195 0,-114 80,-224 162,-224 88,0 150,119 149,186z"/>
 </g>
 <g id="Layer_x0020_1">
  <metadata id="CorelCorpID_1Corel-Layer"/>
  <path class="fil1" d="M831 525c-93,-62 -62,-168 5,-174 82,0 92,110 -5,174zm-209 44l0 0 3 0 34 0c34,0 65,-4 92,-10 -105,-117 -36,-303 86,-301 145,1 185,184 78,300 30,7 66,11 108,11l37 0 0 81 -47 0c-75,0 -134,-13 -180,-33 -44,20 -98,33 -164,33l-44 0 0 0c-21,0 -41,-20 -41,-41 0,-20 18,-38 38,-40z"/>
 </g>
</svg>
