<?xml version="1.0" encoding="UTF-8"?>
<!DOCTYPE svg PUBLIC "-//W3C//DTD SVG 1.0//EN" "http://www.w3.org/TR/2001/REC-SVG-20010904/DTD/svg10.dtd">
<!-- Creator: CorelDRAW -->
<svg xmlns="http://www.w3.org/2000/svg" xml:space="preserve" width="1300px" height="1300px" version="1.0" style="shape-rendering:geometricPrecision; text-rendering:geometricPrecision; image-rendering:optimizeQuality; fill-rule:evenodd; clip-rule:evenodd"
viewBox="0 0 1300 1056"
 xmlns:xlink="http://www.w3.org/1999/xlink">
 <defs>
  <style type="text/css">
   <![CDATA[
    .fil2 {fill:black;fill-opacity:0.501961}
    .fil0 {fill:#FF9966;fill-opacity:0.501961}
    .fil1 {fill:#99CCCC}
   ]]>
  </style>
 </defs>
 <g id="_100:master" visibility="hidden">
  <metadata id="CorelCorpID_0Corel-Layer"/>
  <path class="fil0" d="M890 438l71 -21c9,127 -196,233 -349,233l-44 0 0 -81 34 0c151,0 282,-99 288,-131z"/>
  <path class="fil1" d="M569 650l0 -81c-21,0 -41,19 -41,40 0,21 20,41 41,41z"/>
  <path class="fil2" d="M961 417l-71 21c-10,-53 -43,-113 -79,-113 -35,0 -89,58 -87,113 2,55 140,131 307,131l21 0 0 81 -31 0c-178,0 -371,-81 -371,-195 0,-114 80,-224 162,-224 88,0 150,119 149,186z"/>
 </g>
 <g id="Layer_x0020_1">
  <metadata id="CorelCorpID_1Corel-Layer"/>
  <path class="fil1" d="M826 520c-45,-26 -73,-57 -73,-79 0,-39 37,-116 75,-116 37,0 78,102 70,120 -6,24 -34,52 -72,75zm-204 49l0 0 3 0 34 0c25,0 52,-4 77,-11 -36,-35 -54,-74 -56,-110 -4,-86 62,-211 149,-212 86,-2 142,107 141,196 -1,43 -22,87 -58,124 29,8 61,13 94,13l54 0 0 81 -47 0c-75,0 -138,-13 -187,-34 -45,21 -99,34 -157,34l-44 0 0 0c-21,0 -41,-20 -41,-41 0,-20 18,-38 38,-40z"/>
 </g>
</svg>
