<?xml version="1.0" encoding="UTF-8"?>
<!DOCTYPE svg PUBLIC "-//W3C//DTD SVG 1.0//EN" "http://www.w3.org/TR/2001/REC-SVG-20010904/DTD/svg10.dtd">
<!-- Creator: CorelDRAW -->
<svg xmlns="http://www.w3.org/2000/svg" xml:space="preserve" width="1300px" height="1300px" version="1.0" style="shape-rendering:geometricPrecision; text-rendering:geometricPrecision; image-rendering:optimizeQuality; fill-rule:evenodd; clip-rule:evenodd"
viewBox="0 0 1300 1056"
 xmlns:xlink="http://www.w3.org/1999/xlink">
 <defs>
  <style type="text/css">
   <![CDATA[
    .fil0 {fill:black;fill-opacity:0.501961}
    .fil1 {fill:#663333;fill-opacity:0.501961}
   ]]>
  </style>
 </defs>
 <g id="_100:master" visibility="hidden">
  <metadata id="CorelCorpID_0Corel-Layer"/>
  <path class="fil0" d="M828 389c0,37 134,12 156,7 0,-122 -156,-144 -156,-7zm-23 78c-28,-16 -41,-43 -41,-81 0,-68 59,-174 135,-174 132,0 163,146 163,251 0,126 -169,189 -508,189 -214,0 -321,-59 -321,-178 0,-45 22,-105 65,-181l71 33c-36,68 -54,120 -54,155 0,60 79,90 238,90 289,0 433,-32 433,-94 -63,14 -121,23 -181,-10z"/>
 </g>
 <g id="Layer_x0020_1">
  <metadata id="CorelCorpID_1Corel-Layer"/>
  <path class="fil1" d="M893 388c-14,-101 -49,-142 -83,-144 -35,-1 -73,42 -77,106 0,83 130,55 160,38zm-231 -31c3,-113 72,-193 148,-195 83,-1 157,85 164,272 1,10 2,20 2,29 -1,116 -148,187 -351,187 -178,0 -287,-47 -300,-162 -4,-36 7,-80 27,-133l5 -15c13,-33 81,-8 67,31l-6 17c-10,27 -16,50 -16,71 1,79 86,110 221,110 147,0 262,-42 273,-96 -88,33 -238,22 -234,-116z"/>
 </g>
</svg>
