<?xml version="1.0" encoding="UTF-8"?>
<!DOCTYPE svg PUBLIC "-//W3C//DTD SVG 1.0//EN" "http://www.w3.org/TR/2001/REC-SVG-20010904/DTD/svg10.dtd">
<!-- Creator: CorelDRAW -->
<svg xmlns="http://www.w3.org/2000/svg" xml:space="preserve" width="1300px" height="1300px" version="1.0" style="shape-rendering:geometricPrecision; text-rendering:geometricPrecision; image-rendering:optimizeQuality; fill-rule:evenodd; clip-rule:evenodd"
viewBox="0 0 1300 1056"
 xmlns:xlink="http://www.w3.org/1999/xlink">
 <defs>
  <style type="text/css">
   <![CDATA[
    .fil0 {fill:black;fill-opacity:0.501961}
    .fil1 {fill:#9900CC;fill-opacity:0.501961}
   ]]>
  </style>
 </defs>
 <g id="_100:master" visibility="hidden">
  <metadata id="CorelCorpID_0Corel-Layer"/>
  <path class="fil0" d="M828 389c0,37 134,12 156,7 0,-122 -156,-144 -156,-7zm-23 78c-28,-16 -41,-43 -41,-81 0,-68 59,-174 135,-174 132,0 163,146 163,251 0,126 -169,189 -508,189 -214,0 -321,-59 -321,-178 0,-45 22,-105 65,-181l71 33c-36,68 -54,120 -54,155 0,60 79,90 238,90 289,0 433,-32 433,-94 -63,14 -121,23 -181,-10z"/>
 </g>
 <g id="Layer_x0020_1">
  <metadata id="CorelCorpID_1Corel-Layer"/>
  <path class="fil1" d="M807 406c29,1 64,-8 87,-14 -9,-85 -35,-148 -86,-148 -69,0 -118,162 -1,162zm168 57l1 0c3,164 -197,186 -322,186 -264,1 -395,-80 -295,-309 12,-28 81,6 68,33 -80,165 75,196 224,194 69,0 230,-3 245,-93 -24,6 -56,13 -88,13 -222,0 -163,-323 2,-324 157,-1 160,195 165,300z"/>
 </g>
</svg>
