<?xml version="1.0" encoding="UTF-8"?>
<!DOCTYPE svg PUBLIC "-//W3C//DTD SVG 1.0//EN" "http://www.w3.org/TR/2001/REC-SVG-20010904/DTD/svg10.dtd">
<!-- Creator: CorelDRAW -->
<svg xmlns="http://www.w3.org/2000/svg" xml:space="preserve" width="1300px" height="1300px" version="1.0" style="shape-rendering:geometricPrecision; text-rendering:geometricPrecision; image-rendering:optimizeQuality; fill-rule:evenodd; clip-rule:evenodd"
viewBox="0 0 1300 1056"
 xmlns:xlink="http://www.w3.org/1999/xlink">
 <defs>
  <style type="text/css">
   <![CDATA[
    .fil0 {fill:#CC3399;fill-opacity:0.501961}
   ]]>
  </style>
 </defs>
 <g id="_100:master">
  <metadata id="CorelCorpID_0Corel-Layer"/>
  <path class="fil0" d="M880 285l0 0 0 1c10,8 20,17 29,27 116,116 140,256 261,256l0 81c-106,0 -143,-52 -201,-134 -33,115 -188,134 -297,134l-6 0c-20,0 -41,-20 -40,-41 0,-20 20,-40 40,-40l12 0c76,0 213,-10 219,-103 0,-31 -13,-60 -33,-84 -8,-8 -16,-17 -24,-25 -51,-47 -121,-78 -147,-92l0 0 -7 -4c14,-80 17,-91 48,-113 80,-53 208,-114 316,-148 49,-18 38,50 31,75 -102,31 -217,84 -310,139 34,19 74,42 109,71zm101 -324c-102,36 -138,48 -232,108 -13,10 -24,-36 -22,-50 93,-59 121,-69 237,-109 20,-2 15,36 17,51z"/>
 </g>
</svg>
