<?xml version="1.0" encoding="UTF-8"?>
<!DOCTYPE svg PUBLIC "-//W3C//DTD SVG 1.0//EN" "http://www.w3.org/TR/2001/REC-SVG-20010904/DTD/svg10.dtd">
<!-- Creator: CorelDRAW -->
<svg xmlns="http://www.w3.org/2000/svg" xml:space="preserve" width="1300px" height="1300px" version="1.0" style="shape-rendering:geometricPrecision; text-rendering:geometricPrecision; image-rendering:optimizeQuality; fill-rule:evenodd; clip-rule:evenodd"
viewBox="0 0 1300 1056"
 xmlns:xlink="http://www.w3.org/1999/xlink">
 <defs>
  <style type="text/css">
   <![CDATA[
    .fil0 {fill:#999933;fill-opacity:0.501961}
   ]]>
  </style>
 </defs>
 <g id="_100:master">
  <metadata id="CorelCorpID_0Corel-Layer"/>
  <path class="fil0" d="M905 863c48,-12 32,77 18,82 -543,166 -583,-427 -90,-538 -86,-39 -147,-65 -183,-66 -54,-1 -73,20 -104,65 -13,17 -67,-13 -49,-42 49,-76 88,-106 153,-104 65,2 165,51 308,115l51 23c28,12 33,21 9,42 -10,8 -28,31 -43,31 -511,9 -547,553 -70,392z"/>
 </g>
</svg>
