<?xml version="1.0" encoding="UTF-8"?>
<!DOCTYPE svg PUBLIC "-//W3C//DTD SVG 1.0//EN" "http://www.w3.org/TR/2001/REC-SVG-20010904/DTD/svg10.dtd">
<!-- Creator: CorelDRAW -->
<svg xmlns="http://www.w3.org/2000/svg" xml:space="preserve" width="1300px" height="1300px" version="1.0" style="shape-rendering:geometricPrecision; text-rendering:geometricPrecision; image-rendering:optimizeQuality; fill-rule:evenodd; clip-rule:evenodd"
viewBox="0 0 1300 1056"
 xmlns:xlink="http://www.w3.org/1999/xlink">
 <defs>
  <style type="text/css">
   <![CDATA[
    .fil0 {fill:#996633;fill-opacity:0.501961}
   ]]>
  </style>
 </defs>
 <g id="_100:master">
  <metadata id="CorelCorpID_0Corel-Layer"/>
  <path class="fil0" d="M546 406c-13,17 -67,-13 -49,-42 122,-190 176,-102 495,26 28,16 3,76 -17,81l-1 0 0 0c-175,0 -264,179 -509,179l-28 0 0 0 0 0c-20,0 -41,-20 -41,-41 1,-21 20,-40 41,-40l0 0 0 0 0 0 22 0c164,0 263,-102 387,-152 -178,-81 -227,-124 -300,-11z"/>
 </g>
</svg>
