<?xml version="1.0" encoding="UTF-8"?>
<!DOCTYPE svg PUBLIC "-//W3C//DTD SVG 1.0//EN" "http://www.w3.org/TR/2001/REC-SVG-20010904/DTD/svg10.dtd">
<!-- Creator: CorelDRAW -->
<svg xmlns="http://www.w3.org/2000/svg" xml:space="preserve" width="1300px" height="1300px" version="1.0" style="shape-rendering:geometricPrecision; text-rendering:geometricPrecision; image-rendering:optimizeQuality; fill-rule:evenodd; clip-rule:evenodd"
viewBox="0 0 1300 1056"
 xmlns:xlink="http://www.w3.org/1999/xlink">
 <defs>
  <style type="text/css">
   <![CDATA[
    .fil0 {fill:#990000;fill-opacity:0.501961}
    .fil2 {fill:#996633;fill-opacity:0.501961}
    .fil1 {fill:#999933;fill-opacity:0.501961}
   ]]>
  </style>
 </defs>
 <g id="_100:master" visibility="hidden">
  <metadata id="CorelCorpID_0Corel-Layer"/>
  <path class="fil0" d="M812 439l67 -11c7,34 25,141 127,141l51 0 0 81 -50 0c-153,0 -165,-90 -195,-211z"/>
  <path class="fil1" d="M905 863c48,-12 32,77 18,82 -152,51 -473,67 -476,-197 -2,-165 163,-358 474,-356l16 77 -43 3c-244,14 -375,153 -374,267 3,199 287,162 385,124z"/>
  <path class="fil2" d="M499 434c-12,17 -64,-26 -48,-43 41,-61 69,-140 159,-99 137,62 223,98 365,98l17 0c24,0 3,76 -17,81l-16 0c-152,0 -214,-44 -368,-97 -53,-18 -63,20 -92,60z"/>
 </g>
 <g id="Layer_x0020_1" visibility="hidden">
  <metadata id="CorelCorpID_1Corel-Layer"/>
  <path class="fil1" d="M905 863c48,-12 32,77 18,82 -152,51 -457,67 -460,-197 -1,-165 147,-358 458,-356l17 79 -44 1c-244,14 -359,153 -357,267 2,199 270,162 368,124z"/>
  <path class="fil2" d="M499 434c-12,17 -64,-26 -48,-43 41,-61 69,-140 159,-99 137,62 223,98 365,98l17 0c24,0 3,76 -17,81l-16 0c-152,0 -214,-44 -368,-97 -53,-18 -63,20 -92,60z"/>
  <path class="fil0" d="M812 439l67 -11c7,34 25,141 127,141l51 0 0 81 -50 0c-153,0 -165,-90 -195,-211z"/>
 </g>
 <g id="Layer_x0020_2" visibility="hidden">
  <metadata id="CorelCorpID_2Corel-Layer"/>
  <path class="fil0" d="M821 439l66 -11c-1,72 23,141 128,141l50 0 0 81 -50 0c-153,0 -194,-81 -194,-211z"/>
  <path class="fil1" d="M905 863c48,-12 32,77 18,82 -152,51 -457,67 -460,-197 -1,-160 190,-359 487,-367l24 24 1 66c-46,-9 -82,-8 -136,5 -184,44 -303,166 -302,263 2,199 270,162 368,124z"/>
  <path class="fil2" d="M546 406c-13,17 -67,-13 -49,-42 49,-76 88,-106 153,-104 65,2 165,51 308,115l51 23c28,12 33,21 9,42 -10,8 -28,31 -43,31 -166,-73 -271,-128 -325,-130 -54,-1 -73,20 -104,65z"/>
 </g>
 <g id="Layer_x0020_3">
  <metadata id="CorelCorpID_3Corel-Layer"/>
  <path class="fil1" d="M905 863c26,-10 51,69 18,82 -289,90 -435,-38 -435,-192 0,-136 114,-294 345,-346 -87,-39 -147,-65 -183,-66 -54,-1 -73,20 -104,65 -13,17 -67,-13 -49,-42 49,-76 88,-106 153,-104 65,2 165,51 308,115l51 23c28,12 33,21 9,42 -10,8 -28,31 -43,31 -22,1 -43,2 -63,4 24,96 77,94 169,94l0 81c-156,0 -212,-14 -246,-162 -179,44 -271,162 -272,259 0,99 122,194 342,116z"/>
 </g>
</svg>
