<?xml version="1.0" encoding="UTF-8"?>
<!DOCTYPE svg PUBLIC "-//W3C//DTD SVG 1.0//EN" "http://www.w3.org/TR/2001/REC-SVG-20010904/DTD/svg10.dtd">
<!-- Creator: CorelDRAW -->
<svg xmlns="http://www.w3.org/2000/svg" xml:space="preserve" width="1300px" height="1300px" version="1.0" style="shape-rendering:geometricPrecision; text-rendering:geometricPrecision; image-rendering:optimizeQuality; fill-rule:evenodd; clip-rule:evenodd"
viewBox="0 0 1300 1056"
 xmlns:xlink="http://www.w3.org/1999/xlink">
 <defs>
  <style type="text/css">
   <![CDATA[
    .fil0 {fill:black;fill-opacity:0.501961}
    .fil6 {fill:#336666;fill-opacity:0.501961}
    .fil5 {fill:#336699;fill-opacity:0.501961}
    .fil2 {fill:#993366;fill-opacity:0.501961}
    .fil3 {fill:#FF6633;fill-opacity:0.501961}
    .fil4 {fill:#FF9966;fill-opacity:0.501961}
    .fil1 {fill:#99CCCC}
   ]]>
  </style>
 </defs>
 <g id="_100:master" visibility="hidden">
  <metadata id="CorelCorpID_0Corel-Layer"/>
  <g id="Regular-g.he8.init.svg">
   <g>
    <path class="fil0" d="M667 621c-50,19 -108,29 -176,29l-29 0 0 -81 29 0c36,0 68,-3 98,-9 -28,-33 -42,-69 -42,-106 0,-37 9,-70 26,-99 18,-30 40,-55 68,-75 -7,-5 -23,-13 -48,-26l30 -73c42,21 86,47 130,76 70,44 126,96 170,157 16,21 28,45 38,71 10,27 15,50 15,70 0,20 -7,40 -21,61 -15,22 -31,37 -49,46 -17,9 -33,13 -47,13 -37,0 -82,-10 -136,-30 -22,-8 -41,-16 -56,-24l0 0zm192 -27c14,0 26,-5 36,-15 10,-9 15,-22 15,-38 0,-16 -8,-36 -23,-61 -15,-24 -38,-51 -71,-80 1,16 2,29 2,38 0,51 -23,97 -70,136 44,13 81,20 111,20l0 0zm-192 -56c57,-26 85,-59 85,-100 0,-51 -6,-84 -19,-101 -2,-4 -7,-7 -12,-7 -21,0 -44,12 -70,36 -26,23 -39,52 -39,87 0,18 5,34 15,47 10,13 23,26 40,38l0 0z"/>
   </g>
  </g>
  <path class="fil1" d="M464 650l0 -81c-20,0 -40,19 -41,40 0,21 21,41 41,41z"/>
 </g>
 <g id="Layer_x0020_1" visibility="hidden">
  <metadata id="CorelCorpID_1Corel-Layer"/>
  <path class="fil0" d="M873 437l72 -20c0,119 -181,233 -334,233l-43 0 0 -81 18 0c179,0 286,-100 287,-132z"/>
  <path class="fil1" d="M569 650l0 -81c-21,0 -41,19 -41,40 0,21 20,41 41,41z"/>
  <path class="fil0" d="M945 417l-72 20c0,-20 -42,-95 -70,-95 -28,0 -79,67 -79,92l-72 29c-19,-80 77,-219 156,-219 79,0 137,126 137,173z"/>
  <path class="fil2" d="M652 463l72 -40c-7,40 158,125 265,145 96,18 68,-103 -41,-167l-217 -129 30 -75c90,48 225,111 303,187 105,104 60,288 -77,266 -125,-20 -300,-81 -335,-187z"/>
 </g>
 <g id="Layer_x0020_2" visibility="hidden">
  <metadata id="CorelCorpID_2Corel-Layer"/>
  <path class="fil0" d="M890 490l75 9c-46,111 -163,151 -316,151l-40 0 0 -81 29 0c179,0 239,-50 252,-79z"/>
  <path class="fil1" d="M609 650l0 -81c-20,0 -40,19 -40,40 -1,21 20,41 40,41z"/>
  <path class="fil3" d="M1010 593l-33 75 -165 -58c-236,-82 -116,-383 68,-333 63,17 125,104 85,222l-75 -9c25,-45 13,-107 -36,-122 -93,-29 -140,122 -12,167l168 58z"/>
  <path class="fil2" d="M977 668l33 -75c129,45 115,-253 -291,-305l-20 -80c598,53 515,543 278,460z"/>
 </g>
 <g id="Layer_x0020_3" visibility="hidden">
  <metadata id="CorelCorpID_3Corel-Layer"/>
  <path class="fil1" d="M634 650l0 -81c-20,0 -40,19 -40,40 -1,21 20,41 40,41z"/>
  <path class="fil2" d="M895 259l-34 80c-48,-25 -103,42 -82,107 20,62 87,123 188,123 98,0 147,-87 36,-161l-235 -156c-9,-12 -17,-98 21,-82l292 189c110,72 79,291 -96,291 -130,0 -273,-75 -286,-198 -12,-109 81,-245 196,-193z"/>
  <path class="fil2" d="M861 339l34 -80c159,98 43,391 -227,391l-34 0 0 -81 16 0c214,0 285,-168 211,-230z"/>
 </g>
 <g id="Layer_x0020_4" visibility="hidden">
  <metadata id="CorelCorpID_4Corel-Layer"/>
  <path class="fil4" d="M906 445l80 -13c-2,107 -145,218 -317,218l-44 0 -3 -81 37 0c137,0 236,-96 247,-124z"/>
  <path class="fil0" d="M1006 569l7 81c-220,0 -345,-105 -349,-194l81 -7c0,45 128,120 261,120z"/>
  <path class="fil4" d="M986 432l-80 13c11,-27 -33,-121 -75,-120 -54,1 -86,85 -86,124l-81 7c-5,-86 65,-219 165,-220 88,-1 159,107 157,196z"/>
  <path class="fil5" d="M1013 650l-7 -81c115,14 96,-140 -7,-189l-280 -136c-9,-12 -17,-98 21,-82l338 169c73,37 169,319 -65,319z"/>
  <path class="fil1" d="M634 650l0 -81c-20,0 -40,19 -40,40 -1,21 20,41 40,41z"/>
  <path class="fil6" d="M1179 403l-31 72 -429 -231c-9,-12 -17,-98 21,-82l439 241z"/>
 </g>
 <g id="Layer_x0020_5">
  <metadata id="CorelCorpID_5Corel-Layer"/>
  <path class="fil4" d="M983 454c-9,33 -27,65 -53,93 41,13 81,22 109,22 41,0 70,-19 74,-60l76 -5c-3,82 -66,143 -150,146 -39,2 -115,-16 -189,-43 -50,27 -113,43 -186,43l-32 0 0 0 -1 0 0 0c-20,-1 -40,-20 -40,-41 1,-20 20,-40 40,-40l0 0 36 0c28,0 54,-4 78,-10 -3,-2 -6,-4 -9,-6 -113,-69 -61,-227 28,-297l-1 0c-10,-10 -31,-94 9,-84 289,88 409,191 417,332l-76 5c4,-42 -40,-103 -130,-159 8,35 9,72 0,104zm-139 59c32,-24 53,-50 58,-66 18,-24 -2,-125 -43,-135 -47,-12 -153,109 -68,170 14,10 32,21 53,31z"/>
 </g>
</svg>
