<?xml version="1.0" encoding="UTF-8"?>
<!DOCTYPE svg PUBLIC "-//W3C//DTD SVG 1.0//EN" "http://www.w3.org/TR/2001/REC-SVG-20010904/DTD/svg10.dtd">
<!-- Creator: CorelDRAW -->
<svg xmlns="http://www.w3.org/2000/svg" xml:space="preserve" width="1300px" height="1300px" version="1.0" style="shape-rendering:geometricPrecision; text-rendering:geometricPrecision; image-rendering:optimizeQuality; fill-rule:evenodd; clip-rule:evenodd"
viewBox="0 0 1300 1056"
 xmlns:xlink="http://www.w3.org/1999/xlink">
 <defs>
  <style type="text/css">
   <![CDATA[
    .fil0 {fill:#CC3399;fill-opacity:0.501961}
   ]]>
  </style>
 </defs>
 <g id="Layer_x0020_1">
  <metadata id="CorelCorpID_0Corel-Layer"/>
  <path class="fil0" d="M880 285l0 0 0 1c10,8 20,17 29,27 116,116 140,256 261,256l0 81c-107,0 -144,-54 -204,-138 -36,87 -168,138 -341,138 -178,0 -287,-47 -300,-162 -4,-36 7,-80 27,-133l5 -15c13,-33 81,-8 67,31l-6 17c-10,27 -16,50 -16,71 1,79 86,110 221,110 153,0 271,-45 274,-103 0,-31 -13,-60 -33,-84 -8,-8 -16,-17 -24,-25 -51,-47 -121,-78 -147,-92l0 0 -7 -4c14,-80 17,-91 48,-113 80,-53 208,-114 316,-148 49,-18 38,50 31,75 -102,31 -217,84 -310,139 34,19 74,42 109,71z"/>
 </g>
</svg>
