<?xml version="1.0" encoding="UTF-8"?>
<!DOCTYPE svg PUBLIC "-//W3C//DTD SVG 1.0//EN" "http://www.w3.org/TR/2001/REC-SVG-20010904/DTD/svg10.dtd">
<!-- Creator: CorelDRAW -->
<svg xmlns="http://www.w3.org/2000/svg" xml:space="preserve" width="1300px" height="1300px" version="1.0" style="shape-rendering:geometricPrecision; text-rendering:geometricPrecision; image-rendering:optimizeQuality; fill-rule:evenodd; clip-rule:evenodd"
viewBox="0 0 1300 1056"
 xmlns:xlink="http://www.w3.org/1999/xlink">
 <defs>
  <style type="text/css">
   <![CDATA[
    .fil0 {fill:black;fill-opacity:0.501961}
   ]]>
  </style>
 </defs>
 <g id="_100:master">
  <metadata id="CorelCorpID_0Corel-Layer"/>
  <path class="fil0" d="M975 333l0 0 0 141 0 9c2,66 45,86 82,86l56 0 0 81 -56 0c-57,0 -94,-16 -119,-44 -24,28 -62,44 -118,44 -19,0 -38,0 -56,0l0 0c-20,-1 -40,-20 -40,-41 0,-20 20,-40 40,-40l0 0 0 0 56 0c37,0 79,-20 82,-86l0 -9 0 -151 0 -307c0,-8 18,-16 36,-16 18,0 37,8 37,16l0 317z"/>
 </g>
</svg>
