<?xml version="1.0" encoding="UTF-8"?>
<!DOCTYPE svg PUBLIC "-//W3C//DTD SVG 1.0//EN" "http://www.w3.org/TR/2001/REC-SVG-20010904/DTD/svg10.dtd">
<!-- Creator: CorelDRAW -->
<svg xmlns="http://www.w3.org/2000/svg" xml:space="preserve" width="1300px" height="1300px" version="1.0" style="shape-rendering:geometricPrecision; text-rendering:geometricPrecision; image-rendering:optimizeQuality; fill-rule:evenodd; clip-rule:evenodd"
viewBox="0 0 1300 1056"
 xmlns:xlink="http://www.w3.org/1999/xlink">
 <defs>
  <style type="text/css">
   <![CDATA[
    .fil0 {fill:black;fill-opacity:0.501961}
   ]]>
  </style>
 </defs>
 <g id="_100:master">
  <metadata id="CorelCorpID_0Corel-Layer"/>
  <path class="fil0" d="M1113 569l0 81c-88,0 -140,-36 -170,-86 -57,98 -184,105 -329,63 -22,-7 -9,-84 19,-76 183,52 267,-13 269,-110l0 -55c-1,-19 0,-38 0,-55l0 -315c0,-8 18,-16 36,-16 18,0 37,8 37,16l0 305c3,148 29,248 138,248zm-323 -71c1,19 -58,39 -64,23 5,-132 -74,-261 -155,-379 -5,-7 5,-24 20,-34 15,-11 35,-15 40,-8 107,164 161,265 159,398z"/>
 </g>
</svg>
