<?xml version="1.0" encoding="UTF-8"?>
<!DOCTYPE svg PUBLIC "-//W3C//DTD SVG 1.0//EN" "http://www.w3.org/TR/2001/REC-SVG-20010904/DTD/svg10.dtd">
<!-- Creator: CorelDRAW -->
<svg xmlns="http://www.w3.org/2000/svg" xml:space="preserve" width="1300px" height="1300px" version="1.0" style="shape-rendering:geometricPrecision; text-rendering:geometricPrecision; image-rendering:optimizeQuality; fill-rule:evenodd; clip-rule:evenodd"
viewBox="0 0 1300 1056"
 xmlns:xlink="http://www.w3.org/1999/xlink">
 <defs>
  <style type="text/css">
   <![CDATA[
    .fil0 {fill:black;fill-opacity:0.501961}
    .fil1 {fill:#99CCCC}
   ]]>
  </style>
 </defs>
 <g id="_100:master" visibility="hidden">
  <metadata id="CorelCorpID_0Corel-Layer"/>
  <path class="fil0" d="M975 333l-73 0 0 -317c0,-8 18,-16 36,-16 18,0 37,8 37,16l0 317z"/>
  <path class="fil1" d="M764 650l0 -81c-20,0 -40,19 -40,40 0,21 20,41 40,41z"/>
  <path class="fil0" d="M975 322l-73 1 0 153c0,71 -44,93 -82,93l-56 0 0 81 56 0c119,0 156,-70 155,-176l0 -152z"/>
  <path class="fil0" d="M902 322l73 1 0 153c-1,71 44,93 82,93l56 0 0 81 -56 0c-119,0 -156,-70 -155,-176l0 -152z"/>
 </g>
 <g id="Layer_x0020_1">
  <metadata id="CorelCorpID_1Corel-Layer"/>
  <path class="fil1" d="M764 569l13 0c119,0 128,-57 126,-108l-25 -437c-1,-24 71,-32 73,-8l22 400c1,16 1,31 1,45 3,54 14,108 84,108l56 0 0 81 -56 0c-61,0 -100,-18 -123,-50 -30,33 -79,50 -157,50l-14 0c-20,0 -40,-20 -40,-41 0,-21 20,-40 40,-40z"/>
 </g>
</svg>
