<?xml version="1.0" encoding="UTF-8"?>
<!DOCTYPE svg PUBLIC "-//W3C//DTD SVG 1.0//EN" "http://www.w3.org/TR/2001/REC-SVG-20010904/DTD/svg10.dtd">
<!-- Creator: CorelDRAW -->
<svg xmlns="http://www.w3.org/2000/svg" xml:space="preserve" width="1300px" height="1300px" version="1.0" style="shape-rendering:geometricPrecision; text-rendering:geometricPrecision; image-rendering:optimizeQuality; fill-rule:evenodd; clip-rule:evenodd"
viewBox="0 0 1300 1056"
 xmlns:xlink="http://www.w3.org/1999/xlink">
 <defs>
  <style type="text/css">
   <![CDATA[
    .fil1 {fill:#990000;fill-opacity:0.501961}
    .fil0 {fill:#CC3366;fill-opacity:0.501961}
    .fil2 {fill:#FF6600}
   ]]>
  </style>
 </defs>
 <g id="_100:master" visibility="hidden">
  <metadata id="CorelCorpID_0Corel-Layer"/>
  <path class="fil0" d="M975 327l0 0 0 -311c0,-8 -19,-16 -37,-16 -18,0 -36,8 -36,16l0 303 0 0 0 343 73 -12 0 -323z"/>
  <path class="fil1" d="M902 657l73 -7c0,104 -92,245 -335,244 -144,0 -286,-77 -146,-389 14,-35 76,0 62,28 -107,241 -4,279 93,279 178,-1 253,-92 253,-155z"/>
 </g>
 <g id="Layer_x0020_1" visibility="hidden">
  <metadata id="CorelCorpID_1Corel-Layer"/>
  <path class="fil1" d="M902 657l73 -7c0,104 -116,245 -359,244 -145,0 -310,-77 -171,-389 14,-35 76,0 63,28 -107,241 19,279 116,279 178,-1 278,-92 278,-155z"/>
  <path class="fil0" d="M975 327l0 0 0 -311c0,-8 -19,-16 -37,-16 -18,0 -36,8 -36,16l0 303 0 0 0 343 73 -12 0 -323z"/>
 </g>
 <g id="Layer_x0020_2">
  <metadata id="CorelCorpID_2Corel-Layer"/>
  <path class="fil2" d="M975 652c-1,103 -93,243 -335,242 -144,0 -310,-77 -171,-389 15,-35 76,0 63,28 -107,241 20,279 117,279 178,-1 253,-92 253,-155l-21 -633c-1,-24 71,-32 72,-8l22 636 0 0z"/>
 </g>
</svg>
