<?xml version="1.0" encoding="UTF-8"?>
<!DOCTYPE svg PUBLIC "-//W3C//DTD SVG 1.0//EN" "http://www.w3.org/TR/2001/REC-SVG-20010904/DTD/svg10.dtd">
<!-- Creator: CorelDRAW -->
<svg xmlns="http://www.w3.org/2000/svg" xml:space="preserve" width="1300px" height="1300px" version="1.0" style="shape-rendering:geometricPrecision; text-rendering:geometricPrecision; image-rendering:optimizeQuality; fill-rule:evenodd; clip-rule:evenodd"
viewBox="0 0 1300 1056"
 xmlns:xlink="http://www.w3.org/1999/xlink">
 <defs>
  <style type="text/css">
   <![CDATA[
    .fil0 {fill:black;fill-opacity:0.501961}
   ]]>
  </style>
 </defs>
 <g id="_100:master">
  <metadata id="CorelCorpID_0Corel-Layer"/>
  <path class="fil0" d="M975 500c0,55 58,69 104,69l12 0 0 81 -12 0c-42,0 -77,-7 -104,-20l0 20 -5 1 5 -1c0,104 -116,245 -359,244 -145,0 -310,-77 -171,-389 14,-35 76,0 63,28 -107,241 19,279 116,279 178,-1 278,-92 278,-155l0 -338 0 0 0 -303c0,-8 18,-16 36,-16 18,0 37,8 37,16l0 311 0 0 0 174 0 -1z"/>
 </g>
</svg>
