<?xml version="1.0" encoding="UTF-8"?>
<!DOCTYPE svg PUBLIC "-//W3C//DTD SVG 1.0//EN" "http://www.w3.org/TR/2001/REC-SVG-20010904/DTD/svg10.dtd">
<!-- Creator: CorelDRAW -->
<svg xmlns="http://www.w3.org/2000/svg" xml:space="preserve" width="1300px" height="1300px" version="1.0" style="shape-rendering:geometricPrecision; text-rendering:geometricPrecision; image-rendering:optimizeQuality; fill-rule:evenodd; clip-rule:evenodd"
viewBox="0 0 1300 1056"
 xmlns:xlink="http://www.w3.org/1999/xlink">
 <defs>
  <style type="text/css">
   <![CDATA[
    .fil3 {fill:black;fill-opacity:0.501961}
    .fil4 {fill:#990000;fill-opacity:0.501961}
    .fil0 {fill:#996633;fill-opacity:0.501961}
    .fil1 {fill:#FF9933;fill-opacity:0.501961}
    .fil2 {fill:#FF9966;fill-opacity:0.501961}
   ]]>
  </style>
 </defs>
 <g id="_100:master" visibility="hidden">
  <metadata id="CorelCorpID_0Corel-Layer"/>
  <path class="fil0" d="M830 586l56 42c-64,162 -393,93 -208,-183 -52,-5 -103,-6 -141,17 -21,13 -32,42 -32,86 0,88 12,211 36,369l-73 12c-26,-152 -39,-278 -39,-378 0,-63 15,-109 44,-140 33,-33 66,-50 146,-50 30,0 51,1 63,2l-20 -37 56 -42 122 207c30,52 62,78 120,78l32 0 0 81 -41 0c-114,0 -155,-98 -206,-180 -119,153 22,212 85,116z"/>
 </g>
 <g id="Layer_x0020_1" visibility="hidden">
  <metadata id="CorelCorpID_1Corel-Layer"/>
  <path class="fil0" d="M838 525l62 52c-98,166 -261,154 -276,16 -4,-39 14,-90 45,-150 -90,-8 -164,-3 -164,105 0,88 12,211 36,369l-73 12c-26,-152 -39,-278 -39,-378 0,-63 15,-109 44,-140 55,-54 136,-55 209,-48l-20 -37 56 -42 122 207c30,52 62,78 120,78l32 0 0 81 -41 0c-114,0 -155,-98 -206,-180 -35,57 -57,99 -50,122 16,52 101,15 143,-67z"/>
 </g>
 <g id="Layer_x0020_2" visibility="hidden">
  <metadata id="CorelCorpID_2Corel-Layer"/>
  <path class="fil0" d="M652 331l66 -47 122 207c41,70 78,78 152,78l0 81c-101,0 -158,-8 -216,-107l-124 -212z"/>
  <path class="fil1" d="M682 392l70 26c-27,69 -76,315 63,151l56 59c-46,54 -97,75 -138,78 -83,8 -131,-105 -51,-314z"/>
  <path class="fil2" d="M743 478l13 -82c-56,-18 -117,-30 -159,-28 -187,8 -226,159 -179,286l94 253 69 -42 -91 -237c-31,-80 -3,-177 106,-176 36,0 95,11 147,26z"/>
 </g>
 <g id="Layer_x0020_3" visibility="hidden">
  <metadata id="CorelCorpID_3Corel-Layer"/>
  <path class="fil3" d="M878 561c0,-1 -63,32 -63,31 -2,-5 -11,-7 -14,-12 -46,-69 -98,-142 -129,-114 -17,15 -29,68 -22,111 14,82 58,69 114,30 36,-25 63,-45 90,-57l23 77 -105 72c-89,60 -172,35 -196,-72 -19,-89 7,-209 65,-236 45,-22 89,-14 136,25 35,29 61,81 101,145z"/>
  <path class="fil0" d="M652 331l66 -47 122 207c41,70 78,78 152,78l0 81c-101,0 -158,-8 -216,-107l-104 -178 -20 -34z"/>
  <path class="fil2" d="M727 469l13 -82c-98,-30 -261,-53 -343,25 -60,57 -66,150 -36,233l94 253 69 -42 -91 -237c-20,-52 -15,-110 20,-145 55,-55 209,-23 274,-5z"/>
 </g>
 <g id="Layer_x0020_4" visibility="hidden">
  <metadata id="CorelCorpID_4Corel-Layer"/>
  <path class="fil4" d="M775 392l-23 88c-14,-11 -27,-15 -38,-7 -28,20 -62,124 -9,157 34,22 114,-36 147,-54l52 63c-80,44 -173,123 -259,72 -105,-62 -65,-264 48,-318 28,-13 55,-13 82,-1z"/>
  <path class="fil0" d="M652 331l66 -47 122 207c41,70 78,78 152,78l0 81c-101,0 -158,-8 -216,-107l-104 -178 -20 -34z"/>
  <path class="fil2" d="M727 469l13 -82c-98,-30 -261,-52 -343,25 -60,57 -66,150 -36,233l123 330 69 -42 -120 -314c-20,-52 -15,-110 20,-145 55,-55 209,-23 274,-5z"/>
 </g>
 <g id="Layer_x0020_5" visibility="hidden">
  <metadata id="CorelCorpID_5Corel-Layer"/>
  <path class="fil2" d="M544 442l196 11 -1 -81 -195 -11c-80,-4 -171,44 -162,179l29 432 80 -8 -29 -441c-2,-33 8,-85 82,-81z"/>
  <path class="fil4" d="M775 392l-23 88c-14,-11 -27,-15 -38,-7 -28,20 -62,124 -9,157 34,22 114,-36 147,-54l52 63c-80,44 -173,123 -259,72 -105,-62 -65,-264 48,-318 28,-13 55,-13 82,-1z"/>
  <path class="fil0" d="M652 331l66 -47 122 207c41,70 78,78 152,78l0 81c-101,0 -158,-8 -216,-107l-104 -178 -20 -34z"/>
  <path class="fil3" d="M790 395c-1,-1 -30,75 -31,75 -70,-10 -208,-41 -193,25 7,31 72,121 115,113 15,-3 26,-26 35,-54 37,-116 44,-197 185,-225l20 -4 16 80 -15 3c-104,20 -118,95 -134,162 -55,229 -266,96 -296,-59 -38,-188 184,-132 298,-116z"/>
 </g>
 <g id="Layer_x0020_6" visibility="hidden">
  <metadata id="CorelCorpID_6Corel-Layer"/>
  <path class="fil0" d="M745 470l-67 -25c-52,-5 -103,-6 -141,17 -21,13 -32,42 -32,86 0,88 12,211 36,369l-73 12c-26,-152 -39,-278 -39,-378 0,-63 15,-109 44,-140 33,-33 66,-50 146,-50 30,0 51,1 63,2l-20 -37 56 -42 122 207c30,52 62,78 120,78l32 0 0 81 -41 0c-114,0 -155,-98 -206,-180z"/>
  <path class="fil0" d="M678 445l67 25c-119,153 22,212 85,116l56 42c-64,162 -393,93 -208,-183z"/>
 </g>
 <g id="Layer_x0020_7" visibility="hidden">
  <metadata id="CorelCorpID_7Corel-Layer"/>
  <path class="fil2" d="M569 442l196 11 -2 -81 -194 -11c-80,-4 -172,44 -163,179l29 432 80 -8 -29 -441c-2,-33 9,-85 83,-81z"/>
  <path class="fil0" d="M652 331l66 -47 122 207c41,70 78,78 152,78l0 81c-101,0 -158,-8 -216,-107l-104 -178 -20 -34z"/>
  <path class="fil3" d="M725 372l10 83c-172,119 -5,220 56,116l67 31c-175,264 -470,-58 -133,-230z"/>
 </g>
 <g id="Layer_x0020_8" visibility="hidden">
  <metadata id="CorelCorpID_8Corel-Layer"/>
  <path class="fil3" d="M893 419l-29 84c24,49 112,147 255,147l29 0 0 -81 -29 0c-132,0 -176,-132 -226,-150z"/>
  <path class="fil2" d="M691 477l196 -1 -52 -81 -144 1c-80,0 -172,44 -162,179l29 379 80 -9 -29 -387c-3,-34 8,-81 82,-81z"/>
  <path class="fil3" d="M825 650l6 82c89,-3 172,-88 108,-267 -16,-44 -79,-74 -139,-70l2 77c23,5 54,14 62,29 56,107 9,151 -39,149z"/>
  <path class="fil3" d="M831 732l-6 -82c-27,0 -55,-17 -62,-45 -22,-83 11,-112 43,-119l1 -90c-76,6 -155,65 -126,220 20,78 86,118 150,116z"/>
 </g>
 <g id="Layer_x0020_9" visibility="hidden">
  <metadata id="CorelCorpID_9Corel-Layer"/>
  <path class="fil2" d="M779 459l-177 23c-74,9 -85,47 -83,81l36 394 -80 9 -35 -386c-11,-116 58,-164 128,-176 29,-5 84,-15 163,-23l60 -7c36,-4 57,24 60,44l4 33c14,64 44,118 120,118l0 81c-135,0 -179,-75 -196,-191z"/>
  <path class="fil3" d="M645 467l-100 -40c64,26 -9,215 122,279 84,41 181,-31 222,-116l-64 -45c-22,48 -92,98 -127,84 -29,-11 -45,-92 -53,-162z"/>
 </g>
 <g id="Layer_x0020_10">
  <metadata id="CorelCorpID_10Corel-Layer"/>
  <path class="fil2" d="M771 459l-78 11 0 0c-83,8 4,169 68,162 20,-2 36,-28 46,-75l1 0c-19,-27 -33,-60 -37,-98zm-199 29c-47,15 -54,47 -53,75l36 394 -80 9 -35 -386c-11,-116 58,-166 128,-176l214 -31c37,-6 61,15 63,45 4,85 76,151 163,151l0 81c-49,0 -97,-12 -136,-36 -18,65 -55,104 -99,112 -71,12 -161,-55 -195,-183 -5,-19 -7,-37 -6,-55z"/>
 </g>
</svg>
