<?xml version="1.0" encoding="UTF-8"?>
<!DOCTYPE svg PUBLIC "-//W3C//DTD SVG 1.0//EN" "http://www.w3.org/TR/2001/REC-SVG-20010904/DTD/svg10.dtd">
<!-- Creator: CorelDRAW -->
<svg xmlns="http://www.w3.org/2000/svg" xml:space="preserve" width="1300px" height="1300px" version="1.0" style="shape-rendering:geometricPrecision; text-rendering:geometricPrecision; image-rendering:optimizeQuality; fill-rule:evenodd; clip-rule:evenodd"
viewBox="0 0 1300 1056"
 xmlns:xlink="http://www.w3.org/1999/xlink">
 <defs>
  <style type="text/css">
   <![CDATA[
    .fil0 {fill:black;fill-opacity:0.501961}
    .fil1 {fill:#FF9966;fill-opacity:0.501961}
   ]]>
  </style>
 </defs>
 <g id="_100:master" visibility="hidden">
  <metadata id="CorelCorpID_0Corel-Layer"/>
  <path class="fil0" d="M518 602c0,100 12,226 38,378l73 -11c-24,-159 -36,-282 -36,-370 0,-44 11,-73 34,-86 21,-12 55,-19 102,-20 80,0 143,11 189,34l24 11 31 -76c3,-10 4,-22 4,-36 0,-51 -16,-96 -49,-135 -32,-39 -72,-58 -120,-58 -36,0 -65,14 -87,44 -28,38 -39,89 -29,137 -45,5 -98,16 -130,48 -30,31 -44,78 -44,140l0 0zm257 -190c-8,-27 -9,-57 4,-80 6,-12 19,-17 36,-17 18,0 38,9 59,29 26,24 41,59 26,90 -46,-11 -81,-19 -125,-22l0 0z"/>
 </g>
 <g id="Layer_x0020_1" visibility="hidden">
  <metadata id="CorelCorpID_1Corel-Layer"/>
  <path class="fil0" d="M970 457c-5,21 -18,54 -29,75 -207,-75 -307,-44 -307,51 0,88 8,156 32,314l-72 27c-26,-152 -36,-239 -36,-339 0,-179 159,-231 412,-128z"/>
  <path class="fil0" d="M970 457l-70 -22 9 -19c41,-92 -86,-154 -120,-81l-35 77 -88 13 64 -131c79,-160 308,-63 246,142l-6 21z"/>
 </g>
 <g id="Layer_x0020_2" visibility="hidden">
  <metadata id="CorelCorpID_2Corel-Layer"/>
  <path class="fil0" d="M1057 457l-70 -22 8 -19c42,-92 -63,-144 -106,-62l-33 60 -71 11 32 -90c70,-195 308,-104 246,101l-6 21z"/>
  <path class="fil1" d="M755 907l70 -42c-47,-112 -203,-391 14,-389 48,0 135,20 193,41 10,-21 24,-55 29,-76 -67,-27 -163,-51 -221,-49 -312,14 -162,344 -85,515z"/>
 </g>
 <g id="Layer_x0020_3" visibility="hidden">
  <metadata id="CorelCorpID_3Corel-Layer"/>
  <path class="fil1" d="M756 907l70 -42 -92 -237c-31,-80 -3,-153 106,-152 48,0 135,20 192,41 11,-21 25,-55 29,-76 -66,-27 -162,-51 -220,-49 -186,9 -226,135 -178,262l93 253z"/>
  <path class="fil0" d="M1057 457l-70 -22 8 -19c42,-92 -63,-144 -106,-62l-33 60 -71 11 32 -90c70,-195 308,-104 246,101l-6 21z"/>
 </g>
 <g id="Layer_x0020_4" visibility="hidden">
  <metadata id="CorelCorpID_4Corel-Layer"/>
  <path class="fil0" d="M1009 563c3,-111 -75,-278 -131,-166l-51 101 -44 -64 50 -109c54,-119 249,-64 237,172l-61 66z"/>
  <path class="fil1" d="M816 552l196 11 -1 -81 -195 -11c-80,-4 -171,44 -162,179l21 327 79 -9 -20 -334c-3,-34 8,-86 82,-82z"/>
 </g>
 <g id="Layer_x0020_5" visibility="hidden">
  <metadata id="CorelCorpID_5Corel-Layer"/>
  <path class="fil1" d="M683 907l72 -13 -21 -266c-7,-85 -3,-129 106,-128 48,1 135,-4 192,17 32,-17 45,-53 28,-79 -67,-27 -161,-24 -219,-21 -186,8 -189,102 -178,237l20 253z"/>
  <path class="fil0" d="M1032 517c28,-25 30,-228 -88,-239 -62,-5 -84,89 -82,128 1,29 -62,41 -86,54 -11,-105 40,-282 170,-282 122,0 208,140 171,307 -12,52 -30,49 -85,32z"/>
 </g>
 <g id="Layer_x0020_6" visibility="hidden">
  <metadata id="CorelCorpID_6Corel-Layer"/>
  <path class="fil1" d="M812 569l146 0 2 -81 -148 0c-80,0 -173,34 -162,169l26 319 80 -9 -27 -336c-2,-34 9,-62 83,-62z"/>
  <path class="fil0" d="M817 488l-47 -43c34,-68 60,-177 122,-177 112,0 225,249 142,301l-120 0 -4 -81 65 0c25,0 -58,-112 -93,-118l-65 118z"/>
 </g>
 <g id="Layer_x0020_7">
  <metadata id="CorelCorpID_7Corel-Layer"/>
  <path class="fil1" d="M702 572l-76 1c-74,0 -84,47 -82,81l29 330 -80 9 -29 -322c-12,-135 82,-178 162,-179l16 0c62,-11 92,-193 230,-187 187,7 205,435 -50,333 -45,-19 -85,-47 -120,-66zm37 -67c30,15 81,44 117,57 134,51 71,-167 7,-175 -31,-4 -83,60 -124,118z"/>
 </g>
</svg>
