<?xml version="1.0" encoding="UTF-8"?>
<!DOCTYPE svg PUBLIC "-//W3C//DTD SVG 1.0//EN" "http://www.w3.org/TR/2001/REC-SVG-20010904/DTD/svg10.dtd">
<!-- Creator: CorelDRAW -->
<svg xmlns="http://www.w3.org/2000/svg" xml:space="preserve" width="1300px" height="1300px" version="1.0" style="shape-rendering:geometricPrecision; text-rendering:geometricPrecision; image-rendering:optimizeQuality; fill-rule:evenodd; clip-rule:evenodd"
viewBox="0 0 1300 1056"
 xmlns:xlink="http://www.w3.org/1999/xlink">
 <defs>
  <style type="text/css">
   <![CDATA[
    .fil0 {fill:black;fill-opacity:0.501961}
   ]]>
  </style>
 </defs>
 <g id="_100:master">
  <metadata id="CorelCorpID_0Corel-Layer"/>
  <path class="fil0" d="M696 210c61,97 175,75 157,-96 -3,-32 75,-36 79,0 5,39 4,72 -1,102 63,59 149,24 133,-126 -3,-32 75,-36 79,0 27,230 -132,294 -246,213 -42,58 -112,72 -175,45 6,49 9,99 9,147l0 155c0,18 -81,35 -81,0l0 -147c0,-97 -13,-219 -81,-357 -14,-28 67,-93 81,-66 18,37 33,81 46,130z"/>
 </g>
</svg>
