<?xml version="1.0" encoding="UTF-8"?>
<!DOCTYPE svg PUBLIC "-//W3C//DTD SVG 1.0//EN" "http://www.w3.org/TR/2001/REC-SVG-20010904/DTD/svg10.dtd">
<!-- Creator: CorelDRAW -->
<svg xmlns="http://www.w3.org/2000/svg" xml:space="preserve" width="1300px" height="1300px" version="1.0" style="shape-rendering:geometricPrecision; text-rendering:geometricPrecision; image-rendering:optimizeQuality; fill-rule:evenodd; clip-rule:evenodd"
viewBox="0 0 1300 1056"
 xmlns:xlink="http://www.w3.org/1999/xlink">
 <defs>
  <style type="text/css">
   <![CDATA[
    .fil0 {fill:black;fill-opacity:0.501961}
   ]]>
  </style>
 </defs>
 <g id="_100:master">
  <metadata id="CorelCorpID_0Corel-Layer"/>
  <path class="fil0" d="M711 276c16,11 38,24 55,24 -74,-105 -5,-326 213,-243 38,11 17,82 -2,77 -217,-61 -181,144 -91,167 25,6 80,-4 127,-30 26,-15 43,68 23,80 -89,41 -171,59 -312,12 5,44 7,89 7,132l0 155c0,18 -81,35 -81,0l0 -147c0,-97 -13,-219 -81,-357 -14,-28 67,-93 81,-66 26,53 47,122 61,196z"/>
 </g>
</svg>
