<?xml version="1.0" encoding="UTF-8"?>
<!DOCTYPE svg PUBLIC "-//W3C//DTD SVG 1.0//EN" "http://www.w3.org/TR/2001/REC-SVG-20010904/DTD/svg10.dtd">
<!-- Creator: CorelDRAW -->
<svg xmlns="http://www.w3.org/2000/svg" xml:space="preserve" width="1300px" height="1300px" version="1.0" style="shape-rendering:geometricPrecision; text-rendering:geometricPrecision; image-rendering:optimizeQuality; fill-rule:evenodd; clip-rule:evenodd"
viewBox="0 0 1300 1056"
 xmlns:xlink="http://www.w3.org/1999/xlink">
 <defs>
  <style type="text/css">
   <![CDATA[
    .fil0 {fill:black;fill-opacity:0.501961}
    .fil1 {fill:#990000;fill-opacity:0.501961}
   ]]>
  </style>
 </defs>
 <g id="_100:master" visibility="hidden">
  <metadata id="CorelCorpID_0Corel-Layer"/>
  <path class="fil0" d="M948 605l-50 -163c38,55 79,127 193,127l0 81c-71,0 -119,-15 -143,-45z"/>
  <path class="fil1" d="M523 512c-241,447 399,305 378,147 -5,-40 -35,-104 -88,-192l70 -52c60,105 89,180 92,235 21,316 -840,389 -503,-171l51 33z"/>
 </g>
 <g id="Layer_x0020_1">
  <metadata id="CorelCorpID_1Corel-Layer"/>
  <path class="fil0" d="M937 487c11,20 25,39 48,54 27,17 60,28 105,28l0 81c-50,0 -89,-8 -116,-23 1,8 1,16 1,23 0,104 -141,245 -384,244 -144,0 -310,-77 -170,-389 14,-35 76,0 62,28 -107,241 20,279 117,279 178,-1 296,-92 296,-154 -1,-53 -23,-120 -59,-198 -16,-32 42,-71 69,-43 12,24 22,47 31,70z"/>
 </g>
</svg>
