<?xml version="1.0" encoding="UTF-8"?>
<!DOCTYPE svg PUBLIC "-//W3C//DTD SVG 1.0//EN" "http://www.w3.org/TR/2001/REC-SVG-20010904/DTD/svg10.dtd">
<!-- Creator: CorelDRAW -->
<svg xmlns="http://www.w3.org/2000/svg" xml:space="preserve" width="1300px" height="1300px" version="1.0" style="shape-rendering:geometricPrecision; text-rendering:geometricPrecision; image-rendering:optimizeQuality; fill-rule:evenodd; clip-rule:evenodd"
viewBox="0 0 1300 1056"
 xmlns:xlink="http://www.w3.org/1999/xlink">
 <defs>
  <style type="text/css">
   <![CDATA[
    .fil0 {fill:black;fill-opacity:0.501961}
   ]]>
  </style>
 </defs>
 <g id="_100:master" visibility="hidden">
  <metadata id="CorelCorpID_0Corel-Layer"/>
  <path class="fil0" d="M676 315l-1 81c-350,123 -287,-313 -91,-315 107,-1 152,63 146,184l-81 0c-1,-56 -22,-98 -64,-97 -72,1 -171,225 91,147z"/>
  <path class="fil0" d="M649 249l81 -8c0,97 13,219 81,357 14,28 -67,93 -81,66 -51,-105 -81,-270 -81,-415z"/>
 </g>
 <g id="Layer_x0020_1">
  <metadata id="CorelCorpID_1Corel-Layer"/>
  <path class="fil0" d="M660 406l-109 0c-182,0 -158,-328 42,-328 69,-1 134,41 138,126 1,18 0,38 -1,59 2,93 18,207 81,335 14,28 -67,93 -81,66 -33,-68 -57,-161 -70,-258zm-11 -141l0 0c-1,-78 -34,-106 -68,-104 -79,5 -110,164 -21,164l91 0c-1,-20 -2,-40 -2,-60z"/>
 </g>
</svg>
