<?xml version="1.0" encoding="UTF-8"?>
<!DOCTYPE svg PUBLIC "-//W3C//DTD SVG 1.0//EN" "http://www.w3.org/TR/2001/REC-SVG-20010904/DTD/svg10.dtd">
<!-- Creator: CorelDRAW -->
<svg xmlns="http://www.w3.org/2000/svg" xml:space="preserve" width="1300px" height="1300px" version="1.0" style="shape-rendering:geometricPrecision; text-rendering:geometricPrecision; image-rendering:optimizeQuality; fill-rule:evenodd; clip-rule:evenodd"
viewBox="0 0 1300 1056"
 xmlns:xlink="http://www.w3.org/1999/xlink">
 <defs>
  <style type="text/css">
   <![CDATA[
    .fil2 {fill:black;fill-opacity:0.501961}
    .fil1 {fill:#990000;fill-opacity:0.501961}
    .fil0 {fill:#FF6666;fill-opacity:0.501961}
   ]]>
  </style>
 </defs>
 <g id="_100:master" visibility="hidden">
  <metadata id="CorelCorpID_0Corel-Layer"/>
  <polygon class="fil0" points="805,650 804,569 1056,569 1058,650 "/>
  <path class="fil1" d="M895 649l78 -26c1,9 2,18 2,27 0,104 -92,245 -335,244 -144,0 -343,-77 -203,-389 14,-35 76,0 62,28 -106,241 53,279 150,279 178,-1 247,-92 247,-154 -1,-3 -1,-6 -1,-9z"/>
  <path class="fil2" d="M791 325c121,2 176,175 181,308l-76 23c-10,-155 -66,-248 -108,-250 -69,-2 -121,163 16,163l1 81c-254,-2 -157,-326 -14,-325z"/>
 </g>
 <g id="Layer_x0020_1">
  <metadata id="CorelCorpID_1Corel-Layer"/>
  <path class="fil2" d="M809 327c131,-1 155,135 162,242l85 0 2 81 -83 0 0 0c0,104 -92,245 -335,244 -144,0 -343,-77 -203,-389 14,-35 76,0 62,28 -106,241 53,279 150,279 178,-1 251,-92 250,-154l0 0 -1 0 0 -8 -91 0 0 1c-222,0 -163,-323 2,-324zm86 242c-9,-92 -34,-161 -88,-161 -69,0 -117,160 -3,162l0 -1 91 0z"/>
 </g>
</svg>
