<?xml version="1.0" encoding="UTF-8"?>
<!DOCTYPE svg PUBLIC "-//W3C//DTD SVG 1.0//EN" "http://www.w3.org/TR/2001/REC-SVG-20010904/DTD/svg10.dtd">
<!-- Creator: CorelDRAW -->
<svg xmlns="http://www.w3.org/2000/svg" xml:space="preserve" width="1300px" height="1300px" version="1.0" style="shape-rendering:geometricPrecision; text-rendering:geometricPrecision; image-rendering:optimizeQuality; fill-rule:evenodd; clip-rule:evenodd"
viewBox="0 0 1300 1056"
 xmlns:xlink="http://www.w3.org/1999/xlink">
 <defs>
  <style type="text/css">
   <![CDATA[
    .fil0 {fill:black;fill-opacity:0.501961}
    .fil1 {fill:#1A1A1A;fill-opacity:0.501961}
   ]]>
  </style>
 </defs>
 <g id="_100:master" visibility="hidden">
  <metadata id="CorelCorpID_0Corel-Layer"/>
  <g id="Regular-g.ree.fina.svg">
   <g>
    <path class="fil0" d="M855 393c16,22 31,53 43,92 5,13 8,26 11,38 2,4 5,7 7,10 7,9 17,17 30,25 14,8 31,12 52,12l0 80c-33,0 -61,-5 -83,-16 -3,22 -10,44 -18,66 -16,34 -33,63 -53,88 -41,49 -78,84 -113,107l-22 14 -48 -65c14,-9 33,-24 56,-45 24,-21 43,-41 59,-59 15,-19 29,-41 42,-68 13,-26 19,-51 19,-75 0,-24 -4,-48 -12,-74 -9,-26 -17,-46 -25,-60l-13 -21 68 -49z"/>
   </g>
  </g>
 </g>
 <g id="Layer_x0020_1" visibility="hidden">
  <metadata id="CorelCorpID_1Corel-Layer"/>
  <path class="fil0" d="M958 605l-30 -175c28,64 60,139 174,139l0 81c-72,0 -120,-15 -144,-45z"/>
  <path class="fil1" d="M912 392c116,270 82,326 -146,517l-48 -65c161,-131 185,-185 186,-217 0,-29 -8,-77 -60,-186l68 -49z"/>
 </g>
 <g id="Layer_x0020_2">
  <metadata id="CorelCorpID_2Corel-Layer"/>
  <path class="fil0" d="M945 444l0 0 1 0c2,9 4,18 7,27 16,57 41,98 140,98l0 81c-52,0 -91,-8 -118,-24 -9,134 -138,235 -253,276l-25 8c-9,4 -125,-44 -40,-73l30 -10c87,-27 217,-125 209,-218 -4,-41 -17,-89 -33,-144 -7,-22 61,-74 78,-37l4 16z"/>
 </g>
</svg>
