<?xml version="1.0" encoding="UTF-8"?>
<!DOCTYPE svg PUBLIC "-//W3C//DTD SVG 1.0//EN" "http://www.w3.org/TR/2001/REC-SVG-20010904/DTD/svg10.dtd">
<!-- Creator: CorelDRAW -->
<svg xmlns="http://www.w3.org/2000/svg" xml:space="preserve" width="1300px" height="1300px" version="1.0" style="shape-rendering:geometricPrecision; text-rendering:geometricPrecision; image-rendering:optimizeQuality; fill-rule:evenodd; clip-rule:evenodd"
viewBox="0 0 1300 1056"
 xmlns:xlink="http://www.w3.org/1999/xlink">
 <defs>
  <style type="text/css">
   <![CDATA[
    .fil0 {fill:black;fill-opacity:0.501961}
    .fil1 {fill:#1A1A1A;fill-opacity:0.501961}
    .fil3 {fill:#990000;fill-opacity:0.501961}
    .fil2 {fill:#999933;fill-opacity:0.501961}
   ]]>
  </style>
 </defs>
 <g id="_100:master" visibility="hidden">
  <metadata id="CorelCorpID_0Corel-Layer"/>
  <g id="Regular-g.ree.isol.svg">
   <g>
    <path class="fil0" d="M912 392c15,22 30,53 43,93 13,39 19,76 19,110 0,36 -7,70 -21,104 -15,34 -33,64 -53,88 -40,49 -78,85 -113,108l-22 14 -48 -65c14,-9 33,-24 56,-45 24,-21 43,-41 59,-60 15,-18 29,-41 42,-67 13,-27 19,-52 19,-75 0,-24 -4,-49 -12,-75 -9,-26 -17,-46 -25,-60l-13 -21 69 -49z"/>
   </g>
  </g>
 </g>
 <g id="Layer_x0020_1" visibility="hidden">
  <metadata id="CorelCorpID_1Corel-Layer"/>
  <path class="fil1" d="M796 395c116,270 81,325 -146,516l-49 -65c162,-131 186,-184 186,-217 1,-28 -7,-76 -60,-185l69 -49z"/>
 </g>
 <g id="Layer_x0020_2" visibility="hidden">
  <metadata id="CorelCorpID_2Corel-Layer"/>
  <path class="fil2" d="M678 917c-12,5 -104,-41 -26,-77 110,-38 241,-128 243,-218 0,-34 -2,-93 -56,-181 -7,-32 38,-65 64,-50 61,105 72,168 72,223 0,134 -127,249 -297,303z"/>
 </g>
 <g id="Layer_x0020_3">
  <metadata id="CorelCorpID_3Corel-Layer"/>
  <path class="fil3" d="M657 837l30 -10c87,-27 217,-125 209,-218 -4,-37 -13,-79 -27,-126l-21 -70c-11,-36 52,-88 76,-43 28,92 48,174 51,232 6,146 -131,257 -253,300l-25 8c-9,4 -125,-44 -40,-73z"/>
 </g>
</svg>
