<?xml version="1.0" encoding="UTF-8"?>
<!DOCTYPE svg PUBLIC "-//W3C//DTD SVG 1.0//EN" "http://www.w3.org/TR/2001/REC-SVG-20010904/DTD/svg10.dtd">
<!-- Creator: CorelDRAW -->
<svg xmlns="http://www.w3.org/2000/svg" xml:space="preserve" width="1300px" height="1300px" version="1.0" style="shape-rendering:geometricPrecision; text-rendering:geometricPrecision; image-rendering:optimizeQuality; fill-rule:evenodd; clip-rule:evenodd"
viewBox="0 0 1300 1056"
 xmlns:xlink="http://www.w3.org/1999/xlink">
 <defs>
  <style type="text/css">
   <![CDATA[
    .fil0 {fill:#990000;fill-opacity:0.501961}
   ]]>
  </style>
 </defs>
 <g id="_100:master">
  <metadata id="CorelCorpID_0Corel-Layer"/>
  <path class="fil0" d="M118 533c-107,241 20,279 117,279 178,-1 247,-92 246,-154 0,-53 -22,-120 -58,-198 -16,-32 42,-71 69,-43 5,11 10,22 15,32 2,4 3,7 5,11 12,27 22,54 30,79 4,10 15,17 26,22 52,-65 194,-247 305,-268 113,-22 197,63 200,170l0 0 0 9 -1 0c-7,162 -225,178 -291,178l-178 0 0 0 -6 0 -14 0 0 -1c-7,-1 -15,-2 -22,-4 0,2 0,3 0,5 0,104 -92,245 -335,244 -144,0 -310,-77 -171,-389 15,-35 76,0 63,28zm873 -69c-1,-53 -45,-95 -100,-88 -75,9 -174,119 -235,193l130 0c101,0 204,-34 205,-105l0 0z"/>
 </g>
</svg>
