<?xml version="1.0" encoding="UTF-8"?>
<!DOCTYPE svg PUBLIC "-//W3C//DTD SVG 1.0//EN" "http://www.w3.org/TR/2001/REC-SVG-20010904/DTD/svg10.dtd">
<!-- Creator: CorelDRAW -->
<svg xmlns="http://www.w3.org/2000/svg" xml:space="preserve" width="1300px" height="1300px" version="1.0" style="shape-rendering:geometricPrecision; text-rendering:geometricPrecision; image-rendering:optimizeQuality; fill-rule:evenodd; clip-rule:evenodd"
viewBox="0 0 1300 1056"
 xmlns:xlink="http://www.w3.org/1999/xlink">
 <defs>
  <style type="text/css">
   <![CDATA[
    .fil0 {fill:#006633;fill-opacity:0.501961}
   ]]>
  </style>
 </defs>
 <g id="_100:master">
  <metadata id="CorelCorpID_0Corel-Layer"/>
  <path class="fil0" d="M613 568l30 -31c12,-12 32,-12 43,0l31 31c12,11 12,31 0,43l-31 30c-11,12 -31,12 -43,0l-30 -30c-12,-12 -12,-32 0,-43zm171 -452c-67,-62 -175,-29 -176,27 -1,72 173,62 168,202 -2,58 -41,99 -71,137 -11,12 -32,7 -48,-4 -16,-11 -27,-27 -19,-38 44,-54 55,-63 57,-87 7,-83 -160,-63 -158,-208 1,-75 75,-147 158,-145 35,1 80,14 117,46 48,29 8,86 -28,70z"/>
 </g>
</svg>
