<?xml version="1.0" encoding="UTF-8"?>
<!DOCTYPE svg PUBLIC "-//W3C//DTD SVG 1.0//EN" "http://www.w3.org/TR/2001/REC-SVG-20010904/DTD/svg10.dtd">
<!-- Creator: CorelDRAW -->
<svg xmlns="http://www.w3.org/2000/svg" xml:space="preserve" width="1300px" height="1300px" version="1.0" style="shape-rendering:geometricPrecision; text-rendering:geometricPrecision; image-rendering:optimizeQuality; fill-rule:evenodd; clip-rule:evenodd"
viewBox="0 0 1300 1056"
 xmlns:xlink="http://www.w3.org/1999/xlink">
 <defs>
  <style type="text/css">
   <![CDATA[
    .fil0 {fill:black}
   ]]>
  </style>
 </defs>
 <g id="_100:master">
  <metadata id="CorelCorpID_0Corel-Layer"/>
  <path class="fil0" d="M760 615l-96 -96 96 -98 97 98 -97 96zm110 116c-63,125 -174,215 -334,270l-3 0c70,-74 122,-159 157,-254l70 69 87 -85 23 0zm-180 -438c-34,-92 -86,-178 -157,-256l3 0c157,54 268,145 334,272l-23 0 -87 -85 -70 69zm-30 125c-26,27 -40,60 -40,100 0,40 14,74 41,101 27,27 60,41 100,41 40,0 73,-14 99,-41 26,-26 39,-60 39,-99 0,-40 -13,-74 -40,-101 -27,-28 -60,-41 -100,-41 -40,0 -73,13 -99,40zm-69 271l0 -101 -67 -69 67 -68 0 -100 100 0 69 -69 69 69 100 0 0 100 68 68 -68 69 0 101 -100 0 -69 67 -69 -67 -100 0zm-48 354c180,-61 303,-165 371,-312l57 0 0 -126 85 -86 -85 -86 0 -124 -57 0c-68,-148 -191,-252 -371,-313l-109 0c70,69 128,145 175,229 18,34 31,62 40,84l-100 0 0 124 -86 86 86 86 0 126 100 0c-44,112 -115,217 -215,312l109 0z"/>
 </g>
</svg>
