<?xml version="1.0" encoding="UTF-8"?>
<!DOCTYPE svg PUBLIC "-//W3C//DTD SVG 1.0//EN" "http://www.w3.org/TR/2001/REC-SVG-20010904/DTD/svg10.dtd">
<!-- Creator: CorelDRAW -->
<svg xmlns="http://www.w3.org/2000/svg" xml:space="preserve" width="1300px" height="1300px" version="1.0" style="shape-rendering:geometricPrecision; text-rendering:geometricPrecision; image-rendering:optimizeQuality; fill-rule:evenodd; clip-rule:evenodd"
viewBox="0 0 1300 1056"
 xmlns:xlink="http://www.w3.org/1999/xlink">
 <defs>
  <style type="text/css">
   <![CDATA[
    .fil0 {fill:black;fill-opacity:0.501961}
   ]]>
  </style>
 </defs>
 <g id="_100:master">
  <metadata id="CorelCorpID_0Corel-Layer"/>
  <path class="fil0" d="M829 431l0 0 0 40c-109,0 -133,9 -137,56 -1,24 2,133 2,184 -1,156 -66,159 -207,159l0 -61c94,0 129,3 129,-101 0,-44 -1,-151 -1,-179 1,-66 52,-91 97,-98 -45,-8 -96,-32 -97,-99 0,-27 1,-127 1,-171 0,-103 -35,-100 -129,-100l0 -61c141,0 206,2 207,158 0,51 -3,152 -2,177 4,47 28,55 137,55l0 40 0 0 0 1 0 0z"/>
 </g>
</svg>
