<?xml version="1.0" encoding="UTF-8"?>
<!DOCTYPE svg PUBLIC "-//W3C//DTD SVG 1.0//EN" "http://www.w3.org/TR/2001/REC-SVG-20010904/DTD/svg10.dtd">
<!-- Creator: CorelDRAW -->
<svg xmlns="http://www.w3.org/2000/svg" xml:space="preserve" width="1300px" height="1300px" version="1.0" style="shape-rendering:geometricPrecision; text-rendering:geometricPrecision; image-rendering:optimizeQuality; fill-rule:evenodd; clip-rule:evenodd"
viewBox="0 0 1300 1056"
 xmlns:xlink="http://www.w3.org/1999/xlink">
 <defs>
  <style type="text/css">
   <![CDATA[
    .fil0 {fill:black;fill-opacity:0.501961}
   ]]>
  </style>
 </defs>
 <g id="_100:master">
  <metadata id="CorelCorpID_0Corel-Layer"/>
  <path class="fil0" d="M487 431l1 0 0 40c109,0 133,9 136,56 2,24 -2,133 -2,184 2,156 67,159 207,159l0 -61c-93,0 -128,3 -128,-101 0,-44 1,-151 1,-179 -1,-66 -52,-91 -97,-98 45,-8 96,-32 97,-99 0,-27 -1,-127 -1,-171 0,-103 35,-100 128,-100l0 -61c-140,0 -205,2 -207,158 0,51 4,152 2,177 -3,47 -27,55 -136,55l0 40 -1 0 1 1 -1 0z"/>
 </g>
</svg>
