<?xml version="1.0" encoding="UTF-8"?>
<!DOCTYPE svg PUBLIC "-//W3C//DTD SVG 1.0//EN" "http://www.w3.org/TR/2001/REC-SVG-20010904/DTD/svg10.dtd">
<!-- Creator: CorelDRAW -->
<svg xmlns="http://www.w3.org/2000/svg" xml:space="preserve" width="1300px" height="1300px" version="1.0" style="shape-rendering:geometricPrecision; text-rendering:geometricPrecision; image-rendering:optimizeQuality; fill-rule:evenodd; clip-rule:evenodd"
viewBox="0 0 1300 1056"
 xmlns:xlink="http://www.w3.org/1999/xlink">
 <defs>
  <style type="text/css">
   <![CDATA[
    .fil0 {fill:black;fill-opacity:0.501961}
    .fil1 {fill:#990000;fill-opacity:0.501961}
   ]]>
  </style>
 </defs>
 <g id="_100:master" visibility="hidden">
  <metadata id="CorelCorpID_0Corel-Layer"/>
  <path class="fil0" d="M799 596l37 -74c8,13 48,47 106,47l0 81c-59,0 -120,-26 -143,-54z"/>
  <path class="fil0" d="M1098 596l-37 -74c-8,13 -60,47 -119,47l0 81c59,0 134,-26 156,-54z"/>
  <path class="fil0" d="M1217 650c-107,0 -149,-50 -165,-113l-32 -133 67 -39 31 130c11,45 32,74 99,74l36 0 0 81 -36 0z"/>
  <path class="fil1" d="M156 512c-242,447 398,305 378,147 -6,-40 -36,-104 -89,-192l70 -52c6,10 11,19 16,27 51,80 107,127 168,127 32,0 67,-20 80,-74l25 -104c24,5 48,11 72,17l-31 129c-16,65 -71,114 -143,113 -39,0 -64,-4 -98,-24 2,8 3,16 3,24 21,316 -840,389 -503,-171l52 33z"/>
 </g>
 <g id="Layer_x0020_1">
  <metadata id="CorelCorpID_1Corel-Layer"/>
  <path class="fil1" d="M175 533c-107,241 20,279 117,279 178,-1 247,-92 246,-154 0,-50 -19,-111 -52,-183l-6 -15c-20,-43 53,-75 69,-43l7 15c15,32 28,63 38,93 24,62 145,66 171,-49 1,-4 1,-7 2,-11l7 -31 0 0 1 -4c7,-32 77,-14 72,12l-10 56c-7,87 146,108 175,-24l9 -44c7,-32 77,-15 72,12l-11 59c-1,8 -3,15 -5,23 19,28 49,45 100,45l30 0 0 81 -29 0c-69,0 -115,-16 -145,-48 -70,70 -187,63 -241,-6 -46,51 -116,65 -174,48 0,2 0,4 0,6 0,104 -92,245 -335,244 -145,0 -310,-77 -171,-389 14,-35 76,0 63,28z"/>
 </g>
</svg>
