<?xml version="1.0" encoding="UTF-8"?>
<!DOCTYPE svg PUBLIC "-//W3C//DTD SVG 1.0//EN" "http://www.w3.org/TR/2001/REC-SVG-20010904/DTD/svg10.dtd">
<!-- Creator: CorelDRAW -->
<svg xmlns="http://www.w3.org/2000/svg" xml:space="preserve" width="1300px" height="1300px" version="1.0" style="shape-rendering:geometricPrecision; text-rendering:geometricPrecision; image-rendering:optimizeQuality; fill-rule:evenodd; clip-rule:evenodd"
viewBox="0 0 1300 1056"
 xmlns:xlink="http://www.w3.org/1999/xlink">
 <defs>
  <style type="text/css">
   <![CDATA[
    .fil1 {fill:black;fill-opacity:0.501961}
    .fil3 {fill:#663333;fill-opacity:0.501961}
    .fil0 {fill:#990000;fill-opacity:0.501961}
    .fil2 {fill:#9900CC;fill-opacity:0.501961}
   ]]>
  </style>
 </defs>
 <g id="_100:master" visibility="hidden">
  <metadata id="CorelCorpID_0Corel-Layer"/>
  <path class="fil0" d="M156 512c-242,447 398,305 378,147 -6,-40 -36,-104 -89,-192l70 -52c6,10 11,19 16,27 51,80 107,127 168,127 32,0 67,-20 80,-74l25 -104c24,5 48,11 72,17l-31 129c-16,65 -71,114 -143,113 -39,0 -64,-4 -98,-24 2,8 3,16 3,24 21,316 -840,389 -503,-171l52 33z"/>
  <path class="fil1" d="M799 596l37 -74c8,13 48,47 106,47l0 81c-59,0 -120,-26 -143,-54z"/>
  <path class="fil2" d="M941 650l1 -81c39,0 88,-20 88,-63 0,-40 -18,-99 -43,-170l74 -31c28,79 43,146 43,199 0,101 -65,146 -163,146z"/>
 </g>
 <g id="Layer_x0020_1" visibility="hidden">
  <metadata id="CorelCorpID_1Corel-Layer"/>
  <path class="fil0" d="M223 533c-107,241 -4,279 93,279 178,-1 247,-92 246,-154 0,-53 -22,-120 -58,-198 -16,-32 42,-71 69,-43 42,86 69,165 69,233 0,104 -92,245 -335,244 -145,0 -286,-77 -146,-389 14,-35 76,0 62,28z"/>
  <path class="fil3" d="M767 450l4 -20c8,-35 76,-13 72,12l-4 23c-47,283 -379,225 -280,-37l3 -9c14,11 22,20 30,38 7,17 17,40 30,79 20,62 118,40 145,-86z"/>
  <path class="fil2" d="M841 455l-2 10c-28,173 145,117 148,39 1,-36 -23,-95 -41,-143 -8,-31 64,-59 75,-32 23,48 43,104 43,166 0,197 -362,259 -295,-52l2 -9 70 21z"/>
 </g>
 <g id="Layer_x0020_2">
  <metadata id="CorelCorpID_2Corel-Layer"/>
  <path class="fil0" d="M175 533c-107,241 20,279 117,279 178,-1 247,-92 246,-154 0,-53 -22,-120 -58,-198 -16,-32 42,-71 69,-43 6,13 12,27 18,40l0 0 1 1c12,28 23,56 31,82 24,57 142,33 168,-90l2 -7 2 -9 0 -4c8,-35 76,-13 72,12l-4 23c-28,173 145,117 148,39 1,-36 -23,-95 -41,-143 -8,-31 64,-59 75,-32 23,48 43,104 43,166 0,155 -222,226 -286,100 -47,48 -109,65 -160,55l0 0c0,104 -92,245 -335,244 -145,0 -310,-77 -171,-389 14,-35 76,0 63,28z"/>
 </g>
</svg>
