<?xml version="1.0" encoding="UTF-8"?>
<!DOCTYPE svg PUBLIC "-//W3C//DTD SVG 1.0//EN" "http://www.w3.org/TR/2001/REC-SVG-20010904/DTD/svg10.dtd">
<!-- Creator: CorelDRAW -->
<svg xmlns="http://www.w3.org/2000/svg" xml:space="preserve" width="1300px" height="1300px" version="1.0" style="shape-rendering:geometricPrecision; text-rendering:geometricPrecision; image-rendering:optimizeQuality; fill-rule:evenodd; clip-rule:evenodd"
viewBox="0 0 1300 1056"
 xmlns:xlink="http://www.w3.org/1999/xlink">
 <defs>
  <style type="text/css">
   <![CDATA[
    .fil0 {fill:black}
   ]]>
  </style>
 </defs>
 <g id="_100:master">
  <metadata id="CorelCorpID_0Corel-Layer"/>
  <path class="fil0" d="M534 650c-6,11 -88,2 -79,-29l360 -543c16,-20 92,10 73,34l-354 538zm-62 -443l30 -31c12,-12 31,-12 43,0l31 31c12,11 12,31 0,43l-31 30c-12,12 -31,12 -43,0l-30 -30c-12,-12 -12,-32 0,-43zm309 281l30 -31c12,-11 31,-11 43,0l31 31c12,12 12,31 0,43l-31 31c-12,11 -31,11 -43,0l-30 -31c-12,-12 -12,-31 0,-43z"/>
 </g>
</svg>
