<?xml version="1.0" encoding="UTF-8"?>
<!DOCTYPE svg PUBLIC "-//W3C//DTD SVG 1.0//EN" "http://www.w3.org/TR/2001/REC-SVG-20010904/DTD/svg10.dtd">
<!-- Creator: CorelDRAW -->
<svg xmlns="http://www.w3.org/2000/svg" xml:space="preserve" width="1300px" height="1300px" version="1.0" style="shape-rendering:geometricPrecision; text-rendering:geometricPrecision; image-rendering:optimizeQuality; fill-rule:evenodd; clip-rule:evenodd"
viewBox="0 0 1300 1056"
 xmlns:xlink="http://www.w3.org/1999/xlink">
 <defs>
  <style type="text/css">
   <![CDATA[
    .fil0 {fill:black;fill-opacity:0.501961}
    .fil1 {fill:#99CCCC}
   ]]>
  </style>
 </defs>
 <g id="_100:master" visibility="hidden">
  <metadata id="CorelCorpID_0Corel-Layer"/>
  <path class="fil0" d="M894 502l0 -112 81 0 0 112c0,45 21,67 63,67l46 0 0 81 -46 0c-51,0 -88,-18 -110,-54 -55,71 -184,72 -236,1 -53,68 -188,72 -236,3 -24,34 -75,50 -117,50l-116 0 0 -81 116 0c36,0 84,-29 84,-67l-1 -112 82 0 0 112c0,93 146,85 146,0l0 -96 81 0 0 96c0,95 163,81 163,0z"/>
  <path class="fil1" d="M224 650l0 -81c-20,0 -40,19 -40,40 -1,21 20,41 40,41z"/>
 </g>
 <g id="Layer_x0020_1">
  <metadata id="CorelCorpID_1Corel-Layer"/>
  <path class="fil0" d="M284 569l0 0 63 0c69,0 111,-20 128,-95l6 -30 2 -10 0 0 1 -4c7,-32 76,-14 72,12l-9 49c-15,93 145,118 174,-17l9 -40 0 0 1 -4c7,-32 76,-15 71,12l-6 36 -2 11c-17,94 145,121 174,-15l10 -44c6,-32 76,-15 71,12l-10 59c-2,7 -3,13 -5,19 19,30 49,49 102,49l31 0 0 81 -30 0c-70,0 -116,-16 -147,-50 -69,72 -188,65 -242,-4 -69,76 -190,71 -246,1 -38,40 -94,53 -161,53l-57 0 0 0c-20,0 -40,-20 -40,-41 0,-21 20,-40 40,-40z"/>
 </g>
</svg>
