<?xml version="1.0" encoding="UTF-8"?>
<!DOCTYPE svg PUBLIC "-//W3C//DTD SVG 1.0//EN" "http://www.w3.org/TR/2001/REC-SVG-20010904/DTD/svg10.dtd">
<!-- Creator: CorelDRAW -->
<svg xmlns="http://www.w3.org/2000/svg" xml:space="preserve" width="1300px" height="1300px" version="1.0" style="shape-rendering:geometricPrecision; text-rendering:geometricPrecision; image-rendering:optimizeQuality; fill-rule:evenodd; clip-rule:evenodd"
viewBox="0 0 1300 1056"
 xmlns:xlink="http://www.w3.org/1999/xlink">
 <defs>
  <style type="text/css">
   <![CDATA[
    .fil0 {fill:#99CCCC}
   ]]>
  </style>
 </defs>
 <g id="_100:master">
  <metadata id="CorelCorpID_0Corel-Layer"/>
  <path class="fil0" d="M991 464l0 0c-1,71 -104,105 -205,105l-130 0c61,-74 160,-184 235,-193 55,-7 99,35 100,88zm-487 186l0 0 0 0c-21,0 -41,-20 -41,-41 1,-21 20,-40 41,-40l0 0 59 0c17,-22 48,-63 87,-107l0 -154c0,-78 -15,-205 -39,-277 -7,-20 62,-43 69,-23 25,72 43,198 43,300l0 78c49,-46 102,-84 150,-93 113,-22 197,63 200,170l0 0 0 9 -1 0c0,18 -4,34 -9,49 18,29 48,48 101,48l6 0 0 81 -5 0c-77,0 -125,-20 -156,-61 -71,54 -184,61 -228,61l-277 0 0 0z"/>
 </g>
</svg>
