<?xml version="1.0" encoding="UTF-8"?>
<!DOCTYPE svg PUBLIC "-//W3C//DTD SVG 1.0//EN" "http://www.w3.org/TR/2001/REC-SVG-20010904/DTD/svg10.dtd">
<!-- Creator: CorelDRAW -->
<svg xmlns="http://www.w3.org/2000/svg" xml:space="preserve" width="1300px" height="1300px" version="1.0" style="shape-rendering:geometricPrecision; text-rendering:geometricPrecision; image-rendering:optimizeQuality; fill-rule:evenodd; clip-rule:evenodd"
viewBox="0 0 1300 1056"
 xmlns:xlink="http://www.w3.org/1999/xlink">
 <defs>
  <style type="text/css">
   <![CDATA[
    .fil0 {fill:black;fill-opacity:0.501961}
   ]]>
  </style>
 </defs>
 <g id="_100:master">
  <metadata id="CorelCorpID_0Corel-Layer"/>
  <path class="fil0" d="M552 650l0 0 -4 0 0 0c-51,0 -113,-13 -148,-43 -11,-5 2,-94 33,-75 41,26 75,36 115,37l13 0 0 -553c0,-8 18,-16 36,-16 18,0 37,8 37,16l0 465c66,-78 160,-173 239,-188 113,-22 197,63 200,170l0 0 0 9 -1 0c0,18 -4,34 -9,49 18,29 48,48 101,48l6 0 0 81 -5 0c-77,0 -125,-20 -156,-61 -71,54 -184,61 -228,61l-229 0zm439 -186c-1,-53 -45,-95 -100,-88 -75,9 -174,119 -235,193l130 0c101,0 204,-34 205,-105l0 0z"/>
 </g>
</svg>
