<?xml version="1.0" encoding="UTF-8"?>
<!DOCTYPE svg PUBLIC "-//W3C//DTD SVG 1.0//EN" "http://www.w3.org/TR/2001/REC-SVG-20010904/DTD/svg10.dtd">
<!-- Creator: CorelDRAW -->
<svg xmlns="http://www.w3.org/2000/svg" xml:space="preserve" width="1300px" height="1300px" version="1.0" style="shape-rendering:geometricPrecision; text-rendering:geometricPrecision; image-rendering:optimizeQuality; fill-rule:evenodd; clip-rule:evenodd"
viewBox="0 0 1300 1056"
 xmlns:xlink="http://www.w3.org/1999/xlink">
 <defs>
  <style type="text/css">
   <![CDATA[
    .fil0 {fill:black;fill-opacity:0.501961}
   ]]>
  </style>
 </defs>
 <g id="_100:master">
  <metadata id="CorelCorpID_0Corel-Layer"/>
  <path class="fil0" d="M576 650l0 0 -3 0 0 0c-52,0 -114,-13 -149,-43 -31,-27 2,-94 33,-75 38,24 62,35 106,36 17,-21 48,-62 87,-106l0 -154c0,-78 -15,-205 -39,-277 -7,-20 62,-43 69,-23 25,72 43,198 43,300l0 78c49,-46 102,-84 150,-93 113,-22 197,63 200,170l0 0 0 9 -1 0c-7,162 -225,178 -291,178l-205 0zm415 -186c-1,-53 -45,-95 -100,-88 -75,9 -174,119 -235,193l130 0c101,0 204,-34 205,-105l0 0z"/>
 </g>
</svg>
