<?xml version="1.0" encoding="UTF-8"?>
<!DOCTYPE svg PUBLIC "-//W3C//DTD SVG 1.0//EN" "http://www.w3.org/TR/2001/REC-SVG-20010904/DTD/svg10.dtd">
<!-- Creator: CorelDRAW -->
<svg xmlns="http://www.w3.org/2000/svg" xml:space="preserve" width="1300px" height="1300px" version="1.0" style="shape-rendering:geometricPrecision; text-rendering:geometricPrecision; image-rendering:optimizeQuality; fill-rule:evenodd; clip-rule:evenodd"
viewBox="0 0 1300 1056"
 xmlns:xlink="http://www.w3.org/1999/xlink">
 <defs>
  <style type="text/css">
   <![CDATA[
    .fil0 {fill:#99CCCC}
   ]]>
  </style>
 </defs>
 <g id="_100:master">
  <metadata id="CorelCorpID_0Corel-Layer"/>
  <path class="fil0" d="M991 464l0 0c-1,71 -104,105 -205,105l-130 0c61,-74 160,-184 235,-193 55,-7 99,35 100,88zm-519 186l-1 0 0 0c-20,-1 -40,-20 -39,-41 0,-20 19,-39 39,-40l0 0 90 0 0 -553c0,-8 17,-16 36,-16 18,0 37,8 37,16l0 465c66,-78 160,-173 239,-188 113,-22 197,63 200,170l0 0 0 9 -1 0c-7,162 -225,178 -291,178l-309 0 0 0z"/>
 </g>
</svg>
