<?xml version="1.0" encoding="UTF-8"?>
<!DOCTYPE svg PUBLIC "-//W3C//DTD SVG 1.0//EN" "http://www.w3.org/TR/2001/REC-SVG-20010904/DTD/svg10.dtd">
<!-- Creator: CorelDRAW -->
<svg xmlns="http://www.w3.org/2000/svg" xml:space="preserve" width="1300px" height="1300px" version="1.0" style="shape-rendering:geometricPrecision; text-rendering:geometricPrecision; image-rendering:optimizeQuality; fill-rule:evenodd; clip-rule:evenodd"
viewBox="0 0 1300 1056"
 xmlns:xlink="http://www.w3.org/1999/xlink">
 <defs>
  <style type="text/css">
   <![CDATA[
    .fil0 {fill:black;fill-opacity:0.501961}
   ]]>
  </style>
 </defs>
 <g id="_100:master">
  <metadata id="CorelCorpID_0Corel-Layer"/>
  <path class="fil0" d="M939 781c-1,1 -1,1 -2,2 -64,62 -172,111 -316,111 -141,0 -301,-73 -182,-363 3,-9 35,-84 39,-93 14,-35 76,0 62,28 -4,10 -36,87 -40,96 -84,215 36,250 129,250 114,-1 203,-38 253,-81 47,-42 -42,-65 -82,-81 -73,-28 -76,-102 -44,-172 50,-110 166,-180 304,-85l-32 61c-25,-10 -49,-15 -73,-15 -119,-4 -153,119 -130,127 68,26 229,76 127,200 -3,6 -8,11 -13,15l0 0z"/>
 </g>
</svg>
