<?xml version="1.0" encoding="utf-8"?>
<!-- Generator: Adobe Illustrator 19.2.0, SVG Export Plug-In . SVG Version: 6.00 Build 0)  -->
<svg version="1.1" id="Layer_1" xmlns="http://www.w3.org/2000/svg" xmlns:xlink="http://www.w3.org/1999/xlink" x="0px" y="0px"
	 viewBox="0 0 228.7 100" style="enable-background:new 0 0 228.7 100;" xml:space="preserve">
<style type="text/css">
	.st0{display:none;opacity:0.87;}
	.st1{display:inline;fill:none;}
	.st2{display:inline;}
	.st3{opacity:0.1091;fill:#ED1E79;enable-background:new    ;}
	.st4{display:none;}
	.st5{display:inline;fill:#FFFFFF;}
	.st6{fill:#001106;}
	.st7{fill:#D34E79;}
</style>
<g class="st0">
	<line class="st1" x1="-74.2" y1="64.9" x2="149.9" y2="64.9"/>
	<g class="st2">
		<g>
			<path class="st3" d="M-64.1,73.9c37.2,0,74.5,0.1,111.7,0.1c37.3,0,74.6-0.2,111.9,0c-0.1-0.5-0.4-0.9-0.9-1.3
				c-1.3-1.3-2.7-2.7-4-4c-1.4-1.3-2.7-2.6-4.1-3.8c-0.4-0.4-0.8-0.7-1.3-0.8c-3.2-0.1-6.4-0.3-9.6-0.4c-3.9-0.1-7.8,0-11.6,0.1
				c-5,0.2-10,0.1-15,0.1c-25.1-0.2-50.3-0.2-75.4-0.2c-12.9,0-25.8,0-38.7,0.1c-6.5,0-13.1,0-19.6,0.1c-5.8,0-11.7,0.2-17.5-0.1
				c-2.5-0.2-5-0.3-7.4-0.2c-2.4,0-4.8,0.1-7.2,0.1c-3.8,0-7.5,0.1-11.3-0.2c-3-0.2-6.1-0.4-9.1-0.5c0.1,0.5,0.3,1,0.7,1.3
				c1.2,1.5,2.3,2.9,3.5,4.3s2.4,2.8,3.7,4.2C-65,73.4-64.6,73.7-64.1,73.9z"/>
			<path class="st3" d="M-65.9,71.1c12,0.2,24,0.1,36.1,0.2c25.2,0.2,50.5,0,75.7,0s50.4,0,75.6,0c12.1,0,24.2-0.1,36.3,0
				c-0.1-0.5-0.3-0.9-0.7-1.2c-1.1-1.2-2.3-2.4-3.5-3.6s-2.4-2.4-3.6-3.5c-0.3-0.4-0.7-0.6-1.2-0.7c-3.2-0.1-6.4-0.3-9.6-0.3
				c-3.9-0.1-7.7,0-11.6,0.1c-5,0.2-10,0.1-15,0.1C87.5,62,62.3,62,37.2,62c-12.9,0-25.8,0-38.7,0c-6.5,0-13.1,0-19.6,0.1
				c-5.8,0-11.7,0.2-17.5,0c-2.5-0.2-4.9-0.3-7.4-0.2c-2.4,0-4.8,0.1-7.2,0.1c-3.8,0-7.6,0.1-11.4-0.1c-3.1-0.2-6.1-0.3-9.2-0.5
				c0,0.5,0.2,0.9,0.6,1.2c1,1.3,2,2.6,3,3.9s2.1,2.6,3.2,3.8C-66.7,70.7-66.4,71-65.9,71.1z"/>
			<path class="st3" d="M-67.3,75.1c37.3,0.2,74.5,0.1,111.8,0.1s74.6-0.2,111.9,0c-0.2-0.5-0.5-0.8-1-1c-1.4-1-2.9-2.1-4.4-3
				c-1.5-1-3-2-4.5-2.9c-0.4-0.3-0.9-0.5-1.4-0.5c-3.2-0.1-6.5-0.3-9.7-0.3c-3.9-0.1-7.7,0-11.6,0.1c-5,0.2-10,0.1-14.9,0.1
				c-25.2-0.2-50.3-0.2-75.5-0.2c-12.9,0-25.8,0-38.6,0c-6.5,0-13.1,0-19.6,0.1c-5.8,0-11.7,0.2-17.5,0c-2.5-0.2-5-0.3-7.5-0.2
				c-2.4,0-4.8,0.1-7.2,0.1c-3.8,0-7.6,0.1-11.4-0.1c-3.1-0.2-6.3-0.3-9.4-0.5c0.2,0.5,0.5,0.8,0.9,1.1c1.3,1.1,2.7,2.3,4.1,3.3
				c1.4,1.1,2.8,2.2,4.2,3.2C-68.2,74.9-67.8,75.1-67.3,75.1z"/>
			<path class="st3" d="M-66,79.9C8.7,80.4,83.3,79.8,157.9,80c0.5,0.1,0.6,0,0.1-0.3c-1-0.6-2.1-1-3.2-1.4
				c-2.1-0.8-4.1-1.6-6.2-2.4c-1.1-0.5-2.2-0.8-3.3-1.1c-3.3-0.1-6.6-0.2-9.8-0.2c-3.8-0.1-7.7,0-11.5,0.1c-5,0.1-9.9,0.1-14.9,0.1
				c-25.2-0.1-50.4-0.1-75.5-0.1c-12.9,0-25.7,0-38.6,0c-12.4,0-24.7,0.3-37.1,0c-4.9-0.1-9.8-0.1-14.7-0.1c-3.8,0-7.6,0.1-11.4-0.1
				c-3.2-0.2-6.5-0.3-9.7-0.5c-0.5-0.1-0.6,0-0.2,0.3c1,0.6,2,1.2,3,1.6c2,0.9,4,1.9,6,2.7C-68.1,79.2-67.1,79.6-66,79.9z"/>
			<path class="st3" d="M-64,71.3c37.2,0.3,74.5,0.1,111.7,0.1c37.3,0,74.6-0.2,111.9,0.1c0-0.5-0.2-0.8-0.6-1.2
				c-1-1.3-2-2.5-3.1-3.7c-1-1.2-2.1-2.4-3.2-3.6c-0.3-0.4-0.6-0.7-1.1-0.8c-3.2-0.1-6.4-0.2-9.5-0.3c-3.9-0.1-7.7,0-11.6,0.1
				c-5,0.2-10,0.1-15,0.1c-25.1-0.2-50.3-0.2-75.4-0.2c-12.9,0-25.8,0-38.7,0c-6.5,0-13.1,0-19.6,0.1c-5.8,0-11.7,0.2-17.5,0
				c-2.5-0.2-4.9-0.3-7.4-0.2c-2.4,0-4.8,0-7.2,0.1c-3.8,0-7.6,0.1-11.4-0.1c-3-0.2-6.1-0.3-9.1-0.5c0,0.5,0.1,0.9,0.4,1.2
				c0.8,1.3,1.7,2.7,2.6,4c0.9,1.3,1.8,2.6,2.7,3.9C-64.8,70.8-64.4,71.1-64,71.3z"/>
			<path class="st3" d="M-66.3,69c12.1,0.7,24.1,0.4,36.2,0.5c25.2,0.2,50.5,0,75.7,0s50.4,0,75.6,0c12.1,0,24.2-0.1,36.3,0
				c0-0.4-0.1-0.7-0.5-1c-0.8-1-1.7-2-2.5-3c-0.9-1-1.7-1.9-2.7-2.9c-0.2-0.3-0.5-0.5-0.9-0.6c-3.2-0.1-6.4-0.2-9.6-0.3
				c-3.9-0.1-7.7-0.1-11.6,0.1c-5,0.2-10,0.1-15,0.1c-25.1-0.1-50.3-0.1-75.4-0.1c-12.9,0-25.8,0-38.7,0c-6.5,0-13.1,0-19.6,0.1
				c-5.9,0-11.7,0.2-17.6,0c-2.5-0.2-4.9-0.3-7.4-0.2c-2.4,0-4.8,0-7.2,0.1c-3.8,0-7.6,0.1-11.5,0c-3.2-0.1-6.4-0.6-9.6-1
				c0,0.4,0.1,0.7,0.4,1c0.7,1.1,1.5,2.2,2.3,3.3c0.8,1.1,1.6,2.1,2.4,3.2C-67,68.7-66.7,68.9-66.3,69z"/>
			<path class="st3" d="M-65.9,68.5c12-0.1,23.9,0,35.9,0c25.2,0.1,50.5,0,75.7,0c37.3,0,74.6-0.2,111.8,0.1c0.1-0.3,0-0.5-0.2-0.8
				c-0.6-0.8-1.1-1.5-1.8-2.2c-0.5-0.6-1.7-2.5-2.6-2.5c-3.2-0.1-6.4-0.1-9.7-0.2c-3.9-0.1-7.7-0.1-11.5,0c-5,0.1-10,0.1-15,0.1
				c-25.2-0.1-50.3-0.1-75.5-0.1c-12.9,0-25.8,0-38.6,0c-6.5,0-13.1,0-19.6,0c-5.9,0-11.8,0.2-17.6,0c-4.9-0.1-9.7-0.2-14.6-0.1
				c-3.9,0-7.7,0.1-11.5,0c-3.1-0.1-6.3-0.3-9.4-0.5c-0.3,0,1.8,3.4,1.7,3.3C-67.9,66.1-66.7,68.5-65.9,68.5z"/>
			<path class="st3" d="M-65.6,74.8c37.3,0.1,74.5,0.1,111.8,0.1s74.6-0.2,111.9,0c-0.2-0.5-0.6-0.9-1.1-1.3
				c-1.6-1.3-3.2-2.6-4.8-3.9s-3.2-2.5-4.9-3.7c-0.4-0.4-0.9-0.7-1.5-0.8c-3.2-0.1-6.4-0.3-9.6-0.4c-3.9-0.1-7.7,0-11.6,0.2
				c-5,0.2-10,0.1-15,0.1C84.5,65,59.4,65,34.2,65c-12.9,0-25.8,0-38.7,0.1c-6.5,0-13.1,0-19.6,0.1c-5.8,0-11.7,0.2-17.5-0.1
				c-2.5-0.2-5-0.3-7.5-0.2c-2.4,0-4.8,0.1-7.2,0.1c-3.8,0-7.6,0.1-11.3-0.2c-3.1-0.2-6.2-0.4-9.3-0.6c0.2,0.5,0.5,1,1,1.3
				c1.4,1.4,2.9,2.9,4.4,4.2c1.5,1.4,3,2.8,4.5,4.1C-66.6,74.4-66.1,74.7-65.6,74.8z"/>
			<path class="st3" d="M-67.3,70.7c12,0.3,24.1,0.1,36.1,0.2c25.2,0.2,50.5,0,75.7,0s50.4,0,75.6,0c12.1,0,24.2-0.1,36.3,0
				c0-0.4-0.2-0.7-0.6-1c-0.9-1-1.9-1.9-2.8-2.8c-1-0.9-1.9-1.8-3-2.7c-0.3-0.3-0.6-0.5-1-0.5c-3.2-0.1-6.4-0.2-9.6-0.3
				c-3.9-0.1-7.7-0.1-11.6,0.1c-5,0.2-10,0.1-15,0.1c-25.1-0.1-50.3-0.1-75.4-0.1c-12.9,0-25.8,0-38.6,0c-6.5,0-13.1,0-19.6,0.1
				c-5.8,0-11.7,0.2-17.6,0c-2.5-0.2-5-0.3-7.4-0.2c-2.4,0-4.8,0-7.2,0.1c-3.8,0-7.6,0.1-11.5,0c-3.2-0.1-6.3-0.4-9.5-0.7
				c0,0.4,0.2,0.7,0.5,1c0.8,1.1,1.7,2.1,2.6,3.1s1.8,2,2.7,3C-68,70.4-67.7,70.6-67.3,70.7z"/>
			<path class="st3" d="M-64.2,68c12-0.2,23.9-0.1,35.9-0.1c25.2,0.1,50.5,0,75.7,0c37.3,0,74.6-0.1,111.8,0.1
				c0.4,0-1.8-3.2-1.7-3.1c-0.4-0.5-1.5-2.6-2.3-2.7c-3.2-0.1-6.4-0.1-9.6-0.2c-8.8-0.1-17.7,0.1-26.5,0.1C93.9,62,68.7,62,43.6,62
				c-12.9,0-25.8,0-38.7,0c-6.5,0-13.1,0-19.6,0c-5.9,0-11.8,0.2-17.6,0c-4.9-0.1-9.7-0.2-14.5-0.1c-3.9,0-7.7,0.1-11.6,0
				c-3.1-0.1-6.2-0.2-9.3-0.3c-0.4,0,1.4,3.5,1.4,3.4C-66.1,65.4-65,68-64.2,68z"/>
			<path class="st3" d="M-66.2,77.8C8.4,78.2,83,77.6,157.6,77.9c-0.3-0.5-0.7-0.8-1.3-1c-1.7-1-3.5-2-5.3-2.9
				c-1.8-1-3.6-1.9-5.4-2.8c-0.5-0.3-1-0.5-1.6-0.5c-3.3-0.1-6.5-0.3-9.8-0.3c-3.9-0.1-7.7,0-11.6,0.1c-5,0.2-9.9,0.1-14.9,0.1
				c-25.2-0.2-50.3-0.2-75.5-0.2c-12.9,0-25.8,0-38.6,0.1c-12.4,0-24.7,0.4-37.1,0c-2.5-0.2-5-0.3-7.6-0.2c-2.4,0-4.8,0.1-7.2,0.1
				c-3.8,0-7.6,0.1-11.4-0.2c-3.2-0.2-6.3-0.4-9.5-0.6c0.3,0.5,0.7,0.9,1.2,1.1c1.6,1.1,3.3,2.2,5,3.3c1.7,1.1,3.4,2.1,5.1,3.1
				C-67.2,77.6-66.7,77.8-66.2,77.8z"/>
			<path class="st3" d="M-66.5,72.8C-29.3,73,8,72.9,45.2,72.9c25.2,0,50.4,0,75.6,0c12.1,0,24.2-0.1,36.3,0
				c-0.2-0.5-0.5-0.9-0.9-1.2c-1.4-1.3-2.7-2.5-4.1-3.7s-2.8-2.4-4.2-3.6c-0.4-0.4-0.8-0.6-1.3-0.7c-3.2-0.1-6.4-0.3-9.6-0.3
				c-3.9-0.1-7.7,0-11.6,0.1c-5,0.2-10,0.1-15,0.1c-25.1-0.2-50.3-0.2-75.4-0.2c-12.9,0-25.8,0-38.7,0.1c-6.5,0-13.1,0-19.6,0.1
				c-5.8,0-11.7,0.2-17.5,0c-2.5-0.2-5-0.3-7.5-0.2c-2.4,0-4.8,0.1-7.2,0.1c-3.8,0-7.6,0.1-11.4-0.1c-3.1-0.2-6.1-0.4-9.2-0.5
				c0.1,0.5,0.4,0.9,0.8,1.3c1.2,1.4,2.5,2.7,3.7,4c1.3,1.3,2.5,2.6,3.9,3.9C-67.4,72.4-66.9,72.6-66.5,72.8z"/>
		</g>
	</g>
</g>
<g class="st4">
	<path class="st5" d="M-102.7,212.7c0-0.9,0.3-1.8,0.9-2.7c0.6-0.9,1.4-1.7,2.5-2.3l0.1,0.3l-0.1-0.3c-0.2-0.7-0.7-1-1.5-1
		c-0.1,0-0.4,0-0.6,0.1l-0.4-1.3c1.2-0.7,2.3-1,3.5-1c0.7,0,1.3,0.1,1.8,0.4c0.4,0.2,0.7,0.6,0.7,1c0,0.8-0.5,1.6-1.6,2.3
		c0.3,0.4,0.7,0.7,1.2,1c0.5,0.2,1.1,0.4,1.8,0.4h0.3v1.4h-0.5c-0.9,0-1.6-0.2-2.3-0.6c-0.7-0.4-1.2-0.9-1.6-1.5
		c-0.1,0-0.2,0.1-0.3,0.1c-0.8,0.5-1.4,1-1.8,1.6c-0.4,0.6-0.6,1.3-0.6,1.9c0,0.8,0.3,1.4,0.9,1.9c0.6,0.5,1.4,0.8,2.5,0.8h0.1
		c0.9,0,2-0.2,3.4-0.5l0.2,1.1c-0.5,0.2-1.1,0.4-1.8,0.6c-0.7,0.2-1.3,0.3-1.8,0.3c-0.8,0-1.5-0.1-2.1-0.3s-1.1-0.5-1.5-0.9
		C-102.3,214.7-102.7,213.8-102.7,212.7z"/>
	<path class="st5" d="M-94.3,211c-0.2,0-0.3-0.1-0.4-0.2c-0.1-0.1-0.1-0.3-0.1-0.5s0-0.4,0.1-0.5s0.2-0.2,0.4-0.2h3.5v1.4H-94.3
		L-94.3,211z"/>
	<path class="st5" d="M-91,211c-0.2,0-0.3-0.1-0.4-0.2c-0.1-0.1-0.1-0.3-0.1-0.5s0-0.4,0.1-0.5s0.2-0.2,0.4-0.2h3.5v1.4H-91L-91,211
		z"/>
	<path class="st5" d="M-88.2,210.3c0-0.2,0.1-0.4,0.2-0.5s0.3-0.2,0.5-0.2h0.3c0.2,0,0.5,0,0.7-0.1c0.2,0,0.4-0.1,0.6-0.2
		c0.2-0.1,0.3-0.2,0.5-0.3c0.1-0.1,0.3-0.2,0.4-0.4c0.1-0.1,0.2-0.3,0.3-0.4s0.2-0.3,0.2-0.4c0.1-0.1,0.1-0.3,0.2-0.5v-0.1
		c0.3-0.6,0.6-1,0.9-1.3s0.7-0.4,1.1-0.4c0.5,0,0.9,0.2,1.4,0.6c0.4,0.4,0.8,0.8,1.1,1.4c0.3,0.6,0.4,1.2,0.4,1.8c0,1.3-0.6,2-1.7,2
		c-0.3,0-0.6,0-0.9-0.1c-0.4-0.1-0.6-0.1-0.9-0.2c-0.2-0.1-0.5-0.2-1-0.3s-0.7-0.3-0.8-0.3c-0.5,0.5-1.3,0.7-2.3,0.7h-0.4
		c-0.2,0-0.3-0.1-0.5-0.2C-88.2,210.6-88.2,210.5-88.2,210.3z M-84,209.2c0,0,0.1,0,0.3,0.1c0.2,0.1,0.3,0.1,0.3,0.1s0.1,0,0.3,0.1
		c0.1,0.1,0.2,0.1,0.3,0.1c0.1,0,0.2,0,0.3,0.1c0.1,0,0.2,0.1,0.3,0.1c0.1,0,0.2,0,0.3,0.1s0.2,0,0.3,0c0.1,0,0.2,0,0.2,0
		c0.4,0,0.7-0.2,0.7-0.5c0-0.2-0.1-0.5-0.2-0.8c-0.2-0.4-0.4-0.7-0.6-1c-0.3-0.3-0.5-0.5-0.8-0.5c-0.2,0-0.5,0.3-0.8,0.8
		c-0.1,0.1-0.2,0.4-0.4,0.7C-83.8,208.8-83.9,209-84,209.2z"/>
	<path class="st5" d="M-77.1,208.2v-8.6h1.3v8.3c0,0.6,0.1,1,0.4,1.2s0.6,0.4,1,0.4v1.4c-0.4,0-0.8-0.1-1.1-0.2
		c-0.3-0.1-0.6-0.2-0.8-0.4s-0.4-0.4-0.5-0.6C-77,209.4-77.1,208.8-77.1,208.2z"/>
	<path class="st5" d="M-74.6,211c-0.2,0-0.3-0.1-0.4-0.2c-0.1-0.1-0.1-0.3-0.1-0.5s0-0.4,0.1-0.5s0.2-0.2,0.4-0.2h3.5v1.4H-74.6
		L-74.6,211z"/>
	<path class="st5" d="M-71.2,211c-0.2,0-0.3-0.1-0.4-0.2c-0.1-0.1-0.1-0.3-0.1-0.5s0-0.4,0.1-0.5s0.2-0.2,0.4-0.2h3.5v1.4H-71.2
		L-71.2,211z"/>
	<path class="st5" d="M-68.2,210.8c-0.1-0.1-0.2-0.3-0.2-0.5s0.1-0.3,0.2-0.5c0.1-0.1,0.3-0.2,0.5-0.2h1.8c0.3,0,0.7,0,1-0.1
		s0.6-0.1,0.9-0.2c0.3-0.1,0.5-0.2,0.9-0.4c0.3-0.2,0.6-0.3,0.8-0.4c0.2-0.1,0.5-0.3,0.8-0.5s0.6-0.4,0.7-0.5
		c-0.4-0.1-0.9-0.3-1.4-0.5s-0.9-0.4-1.3-0.5s-0.6-0.2-0.8-0.2c-0.4,0-0.9,0.4-1.5,1.1l-0.8-0.7c0.5-0.7,0.9-1.1,1.1-1.3
		c0.4-0.4,0.9-0.6,1.3-0.6c0.3,0,0.7,0.1,1.1,0.3c0.5,0.2,0.9,0.4,1.3,0.6c0.4,0.2,0.9,0.4,1.6,0.6s1.2,0.3,1.9,0.3h1.1l-0.3,1.4
		H-58c-0.3,0-0.6,0.1-1,0.2c-0.3,0.1-0.7,0.3-1,0.4c-0.3,0.2-0.6,0.4-1,0.6c-0.3,0.2-0.7,0.4-1.1,0.7s-0.7,0.4-1.1,0.6
		c-0.4,0.2-0.8,0.3-1.3,0.4c-0.5,0.1-1,0.2-1.5,0.2h-1.8C-67.9,211-68.1,210.9-68.2,210.8z M-65.3,213.1l0.8-0.8
		c0.1,0,0.1-0.1,0.2-0.1s0.1,0,0.2,0.1l0.8,0.8c0.1,0,0.1,0.1,0.1,0.2s0,0.1-0.1,0.2l-0.8,0.8c-0.1,0.1-0.1,0.1-0.2,0.1
		s-0.1,0-0.2-0.1l-0.8-0.8c-0.1-0.1-0.1-0.1-0.1-0.2C-65.4,213.2-65.4,213.2-65.3,213.1z"/>
	<path class="st5" d="M-41.2,211.9L-41.2,211.9c-0.2,0.7-0.6,1.3-1.2,1.8s-1.3,0.9-2.1,1.1c-0.8,0.3-1.6,0.4-2.5,0.4
		s-1.7-0.2-2.4-0.5c-0.7-0.4-1.3-0.9-1.5-1.6c-0.1-0.4-0.2-0.8-0.2-1.2c0-1.1,0.5-2.4,1.4-3.9l0.9,0.6c-0.6,1.1-0.9,2.1-0.9,3
		c0,0.5,0.1,1,0.4,1.3s0.6,0.6,1,0.7c0.4,0.1,0.9,0.2,1.4,0.2c0.9,0,1.7-0.2,2.6-0.5s1.5-0.7,1.8-1.2c0.1-0.1,0.1-0.2,0.1-0.3
		c0-0.2-0.2-0.5-0.5-0.7s-0.8-0.4-1.4-0.6l0.4-1.4c1.5,0.4,2.8,0.6,4.1,0.6v1.4c-0.9,0-1.5-0.1-1.8-0.2c0.1,0.1,0.3,0.3,0.4,0.5
		C-41.2,211.5-41.2,211.7-41.2,211.9z"/>
	<path class="st5" d="M-40.6,210.3c0-0.2,0.1-0.3,0.2-0.5c0.1-0.1,0.3-0.2,0.5-0.2h2.3c1,0,1.5-0.4,1.5-1.3c0-0.2,0-0.5-0.1-0.9
		s-0.2-0.6-0.2-0.8c-0.1-0.2-0.2-0.4-0.3-0.8l1.3-0.5c0.4,1.1,0.7,2.2,0.7,3c0,1.7-0.9,2.6-2.8,2.6h-2.3c-0.2,0-0.3-0.1-0.5-0.2
		C-40.5,210.6-40.6,210.5-40.6,210.3z M-40.4,213.1l0.7-0.7c0.1,0,0.1-0.1,0.2-0.1s0.1,0,0.2,0.1l0.7,0.7c0.1,0,0.1,0.1,0.1,0.2
		s0,0.1-0.1,0.2l-0.7,0.7c-0.1,0-0.1,0.1-0.2,0.1s-0.1,0-0.2-0.1l-0.7-0.7c-0.1,0-0.1-0.1-0.1-0.2S-40.4,213.2-40.4,213.1z
		 M-38.3,213.1l0.7-0.7c0.1,0,0.1-0.1,0.2-0.1s0.1,0,0.2,0.1l0.7,0.7c0.1,0,0.1,0.1,0.1,0.2s0,0.1-0.1,0.2l-0.7,0.7
		c-0.1,0-0.1,0.1-0.2,0.1s-0.1,0-0.2-0.1l-0.7-0.7c-0.1,0-0.1-0.1-0.1-0.2S-38.3,213.2-38.3,213.1z"/>
	<path class="st5" d="M-32.3,208.2v-8.6h1.3v8.3c0,0.6,0.1,1,0.4,1.2s0.6,0.4,1,0.4v1.4c-0.4,0-0.8-0.1-1.1-0.2
		c-0.3-0.1-0.6-0.2-0.8-0.4s-0.4-0.4-0.5-0.6C-32.1,209.4-32.3,208.8-32.3,208.2z"/>
	<path class="st5" d="M-29.7,211c-0.2,0-0.3-0.1-0.4-0.2c-0.1-0.1-0.1-0.3-0.1-0.5s0-0.4,0.1-0.5s0.2-0.2,0.4-0.2h3.5v1.4H-29.7
		L-29.7,211z"/>
	<path class="st5" d="M-26.4,211c-0.2,0-0.3-0.1-0.4-0.2c-0.1-0.1-0.1-0.3-0.1-0.5s0-0.4,0.1-0.5s0.2-0.2,0.4-0.2h3.5v1.4H-26.4
		L-26.4,211z"/>
	<path class="st5" d="M-23.4,210.8c-0.1-0.1-0.2-0.3-0.2-0.5s0.1-0.4,0.2-0.5c0.1-0.1,0.3-0.2,0.5-0.2h1.4c0.4,0,0.7,0,1-0.1
		c-0.8-0.6-1.2-1.2-1.2-2c0-0.7,0.3-1.3,0.8-2c0.3-0.3,0.6-0.6,0.9-0.8c-0.3-0.1-0.4-0.2-0.5-0.2l0.4-1.3c0.8,0.3,1.6,0.7,2.3,1.1
		c0.7,0.4,1.3,0.7,1.7,1s0.7,0.6,1.1,0.9c0.8,0.7,1.2,1.5,1.2,2.4c0,0.8-0.3,1.5-1,2.3c-0.1,0.1-0.4,0.2-0.9,0.2s-1-0.1-1.6-0.2
		c-0.6-0.1-1.2-0.3-1.7-0.5c-0.7,0.5-1.4,0.7-2.2,0.7H-23C-23.1,211-23.3,210.9-23.4,210.8z M-20.4,207.3c0,0.5,0.5,0.9,1.5,1.4
		c0.5-0.5,0.8-1,0.8-1.6c0-0.5-0.1-0.8-0.2-1c-0.1-0.2-0.3-0.3-0.6-0.3s-0.5,0.1-0.8,0.4c-0.3,0.3-0.5,0.6-0.6,1
		C-20.4,207.2-20.4,207.2-20.4,207.3z M-15.8,209.5c0.3,0,0.4,0,0.5-0.1c0.2-0.3,0.4-0.6,0.4-0.9c0-0.7-0.7-1.5-2-2.3
		c0,0.2,0,0.4,0,0.6c0,0.8-0.3,1.6-0.8,2.4C-16.9,209.4-16.3,209.5-15.8,209.5z"/>
	<path class="st5" d="M-7.3,212.9c0.3-0.3,0.4-0.6,0.4-1s0-0.8-0.1-1.2c0-0.4-0.2-1-0.3-1.6c-0.2-0.7-0.4-1.2-0.7-1.7l1.1-0.9
		c0.6,1,1,2.1,1.1,3.2c0.1,0.5,0.1,0.9,0.1,1.2s0,0.6,0,1.1s-0.1,0.8-0.3,1.2s-0.4,0.7-0.7,0.9s-0.7,0.5-1.1,0.7
		c-0.8,0.4-1.8,0.7-3.1,0.9l-0.5-1.3c1.1-0.1,2.1-0.4,2.9-0.7C-7.9,213.4-7.5,213.2-7.3,212.9z"/>
	<path class="st5" d="M-3.5,208.2v-8.6h1.3v8.3c0,0.6,0.1,1,0.4,1.2s0.6,0.4,1,0.4v1.4c-0.4,0-0.8-0.1-1.1-0.2
		c-0.3-0.1-0.6-0.2-0.8-0.4s-0.4-0.4-0.5-0.6C-3.3,209.4-3.5,208.8-3.5,208.2z"/>
	<path class="st5" d="M-0.9,211c-0.2,0-0.3-0.1-0.4-0.2c-0.1-0.1-0.1-0.3-0.1-0.5s0-0.4,0.1-0.5s0.2-0.2,0.4-0.2h3.5v1.4H-0.9
		L-0.9,211z"/>
	<path class="st5" d="M2.4,211c-0.2,0-0.3-0.1-0.4-0.2c-0.1-0.1-0.1-0.3-0.1-0.5s0-0.4,0.1-0.5s0.2-0.2,0.4-0.2h3.5v1.4H2.4L2.4,211
		z"/>
	<path class="st5" d="M5.7,211c-0.2,0-0.3-0.1-0.4-0.2c-0.1-0.1-0.1-0.3-0.1-0.5s0-0.4,0.1-0.5s0.2-0.2,0.4-0.2h3.5v1.4H5.7L5.7,211
		z"/>
	<path class="st5" d="M9.1,211c-0.2,0-0.3-0.1-0.4-0.2c-0.1-0.1-0.1-0.3-0.1-0.5s0-0.4,0.1-0.5s0.2-0.2,0.4-0.2h3.5v1.4H9.1L9.1,211
		z"/>
	<path class="st5" d="M12.1,210.8c-0.1-0.1-0.2-0.3-0.2-0.5s0.1-0.3,0.2-0.5c0.1-0.1,0.3-0.2,0.5-0.2h2.1c0.8,0,1.4-0.1,1.8-0.3
		c0.3-0.2,0.5-0.5,0.5-0.8c0-0.9-0.6-1.9-1.9-2.9c-0.3-0.2-0.6-0.5-0.8-0.6s-0.5-0.4-1.1-0.7c0.1-0.7,0.2-1.2,0.3-1.4
		s0.3-0.4,0.5-0.6c0.7-0.5,1.6-0.9,2.6-1.4s2-0.9,2.9-1.2L20,201c-1.9,0.6-3.7,1.4-5.5,2.5c0.8,0.5,1.4,1,2,1.6
		c0.5,0.4,1,1.1,1.7,1.9c0.7,0.8,1.1,1.3,1.3,1.6c0.3,0.4,0.7,0.6,1,0.8s0.7,0.3,1,0.3v1.4c-1,0-1.8-0.3-2.4-0.9
		c-0.2-0.2-0.4-0.4-0.5-0.5c-0.1-0.2-0.3-0.4-0.5-0.7c-0.1,0.6-0.5,1.1-1.1,1.5s-1.3,0.6-2.3,0.6h-2.3
		C12.4,211,12.2,210.9,12.1,210.8z"/>
	<path class="st5" d="M21.1,210.8c-0.1-0.1-0.2-0.3-0.2-0.5s0.1-0.4,0.2-0.5c0.1-0.1,0.3-0.2,0.5-0.2H23c0.4,0,0.7,0,1-0.1
		c-0.8-0.6-1.2-1.2-1.2-2c0-0.7,0.3-1.3,0.8-2c0.3-0.3,0.6-0.6,0.9-0.8c-0.3-0.1-0.4-0.2-0.5-0.2l0.4-1.3c0.8,0.3,1.6,0.7,2.3,1.1
		c0.7,0.4,1.3,0.7,1.7,1c0.4,0.3,0.7,0.6,1.1,0.9c0.8,0.7,1.2,1.5,1.2,2.4c0,0.8-0.3,1.5-1,2.3c-0.1,0.1-0.4,0.2-0.9,0.2
		s-1-0.1-1.6-0.2c-0.6-0.1-1.2-0.3-1.7-0.5c-0.7,0.5-1.4,0.7-2.2,0.7h-1.7C21.4,211,21.3,210.9,21.1,210.8z M24.1,207.3
		c0,0.5,0.5,0.9,1.5,1.4c0.5-0.5,0.8-1,0.8-1.6c0-0.5-0.1-0.8-0.2-1c-0.1-0.2-0.3-0.3-0.6-0.3c-0.3,0-0.5,0.1-0.8,0.4
		c-0.3,0.3-0.5,0.6-0.6,1C24.1,207.2,24.1,207.2,24.1,207.3z M28.8,209.5c0.3,0,0.4,0,0.5-0.1c0.2-0.3,0.4-0.6,0.4-0.9
		c0-0.7-0.7-1.5-2-2.3c0,0.2,0,0.4,0,0.6c0,0.8-0.3,1.6-0.8,2.4C27.6,209.4,28.3,209.5,28.8,209.5z"/>
	<path class="st5" d="M33.3,211v-11.3h1.3V211H33.3z"/>
	<path class="st5" d="M40.7,212.9c0.3-0.3,0.4-0.6,0.4-1s0-0.8-0.1-1.2c0-0.4-0.2-1-0.3-1.6c-0.2-0.7-0.4-1.2-0.7-1.7l1.1-0.9
		c0.6,1,1,2.1,1.1,3.2c0.1,0.5,0.1,0.9,0.1,1.2s0,0.6,0,1.1s-0.1,0.8-0.3,1.2s-0.4,0.7-0.7,0.9s-0.7,0.5-1.1,0.7
		c-0.8,0.4-1.8,0.7-3.1,0.9l-0.5-1.3c1.1-0.1,2.1-0.4,2.9-0.7C40.1,213.4,40.4,213.2,40.7,212.9z"/>
	<path class="st5" d="M48.3,210.6c-0.2-0.3-0.3-0.6-0.3-1s0.1-0.8,0.4-1.3c0.2-0.5,0.6-0.9,1-1.3l0.5,0.5c-0.1,0.1-0.2,0.3-0.3,0.3
		c-0.1,0.1-0.2,0.2-0.2,0.4s-0.1,0.3-0.1,0.5c0,0.3,0.2,0.5,0.5,0.9c0.1,0.2,0.2,0.3,0.2,0.6s-0.1,0.4-0.3,0.6
		c-0.2,0.2-0.4,0.2-0.6,0.2C48.7,211,48.5,210.9,48.3,210.6z"/>
	<path class="st5" d="M61.5,213L61.5,213c-0.5,0.7-1.3,1.2-2.3,1.7s-2,0.6-3,0.6c-0.9,0-1.7-0.2-2.4-0.5c-0.7-0.4-1.3-0.9-1.5-1.6
		c-0.1-0.4-0.2-0.8-0.2-1.2c0-1.1,0.5-2.4,1.4-3.9l0.9,0.6c-0.6,1.1-0.9,2.1-0.9,3c0,0.5,0.1,1,0.4,1.3c0.3,0.3,0.6,0.6,1,0.7
		c0.4,0.1,0.9,0.2,1.4,0.2c0.9,0,1.8-0.2,2.6-0.5c0.9-0.4,1.5-0.8,1.8-1.3c0-0.1,0.1-0.2,0.1-0.3s-0.1-0.2-0.1-0.3
		c-0.1-0.1-0.3-0.2-0.5-0.3c-0.2-0.1-0.4-0.2-0.6-0.3s-0.4-0.2-0.7-0.3s-0.5-0.2-0.6-0.2c-0.2-0.1-0.4-0.2-0.5-0.4
		c-0.1-0.2-0.2-0.5-0.2-0.8s0.1-0.7,0.4-1.2c0.4-0.8,0.9-1.4,1.5-1.9s1.1-0.7,1.6-0.7c0.9,0,1.7,0.6,2.3,1.9l-1,0.8
		c-0.3-0.4-0.5-0.8-0.8-1s-0.5-0.3-0.7-0.3s-0.5,0.1-0.7,0.3s-0.5,0.5-0.9,0.8c-0.3,0.4-0.5,0.6-0.5,0.9c0,0.1,0,0.2,0.1,0.2
		c0.1,0.1,0.1,0.1,0.2,0.1s0.1,0.1,0.3,0.1c0.8,0.3,1.3,0.5,1.6,0.7c0.8,0.4,1.2,1,1.2,1.6C62.2,211.9,62,212.4,61.5,213z"/>
	<path class="st5" d="M69.4,212.9c0.3-0.3,0.4-0.6,0.4-1s0-0.8-0.1-1.2c0-0.4-0.2-1-0.3-1.6c-0.2-0.7-0.4-1.2-0.7-1.7l1.1-0.9
		c0.6,1,1,2.1,1.1,3.2c0.1,0.5,0.1,0.9,0.1,1.2s0,0.6,0,1.1s-0.1,0.8-0.3,1.2c-0.2,0.4-0.4,0.7-0.7,0.9s-0.7,0.5-1.1,0.7
		c-0.8,0.4-1.8,0.7-3.1,0.9l-0.5-1.3c1.1-0.1,2.1-0.4,2.9-0.7C68.8,213.4,69.1,213.2,69.4,212.9z M69.1,204.3c0-0.1,0-0.2,0.1-0.2
		l0.8-0.8c0.1,0,0.1-0.1,0.2-0.1s0.1,0,0.2,0.1l0.8,0.8c0.1,0,0.1,0.1,0.1,0.2s0,0.2-0.1,0.2l-0.8,0.8c-0.1,0-0.1,0.1-0.2,0.1
		s-0.1,0-0.2-0.1l-0.8-0.8C69.2,204.5,69.1,204.4,69.1,204.3z"/>
	<path class="st5" d="M73.2,208.2v-8.6h1.3v8.3c0,0.6,0.1,1,0.4,1.2s0.6,0.4,1,0.4v1.4c-0.4,0-0.8-0.1-1.1-0.2
		c-0.3-0.1-0.6-0.2-0.8-0.4c-0.2-0.2-0.4-0.4-0.5-0.6C73.3,209.4,73.2,208.8,73.2,208.2z"/>
	<path class="st5" d="M75.4,210.8c-0.1-0.1-0.2-0.3-0.2-0.5s0.1-0.3,0.2-0.5c0.1-0.1,0.3-0.2,0.5-0.2h1.8c0.3,0,0.7,0,1-0.1
		c0.3-0.1,0.6-0.1,0.9-0.2c0.3-0.1,0.5-0.2,0.9-0.4c0.3-0.2,0.6-0.3,0.8-0.4c0.2-0.1,0.5-0.3,0.8-0.5c0.3-0.2,0.6-0.4,0.7-0.5
		c-0.4-0.1-0.9-0.3-1.4-0.5s-0.9-0.4-1.3-0.5c-0.4-0.1-0.6-0.2-0.8-0.2c-0.4,0-0.9,0.4-1.5,1.1l-0.8-0.7c0.5-0.7,0.9-1.1,1.1-1.3
		c0.4-0.4,0.9-0.6,1.3-0.6c0.3,0,0.7,0.1,1.1,0.3c0.5,0.2,0.9,0.4,1.3,0.6c0.4,0.2,0.9,0.4,1.6,0.6c0.6,0.2,1.2,0.3,1.9,0.3h1.1
		l-0.3,1.4h-0.5c-0.3,0-0.6,0-0.9,0.1c0.1,0.5,0.4,0.9,0.8,1.2c0.4,0.3,1,0.4,1.8,0.4v1.4c-1.2,0-2-0.2-2.6-0.6
		c-0.6-0.4-0.9-1-1.1-1.9c-0.2,0.1-0.6,0.3-1,0.6s-0.8,0.5-1.1,0.7s-0.7,0.4-1.1,0.6s-0.9,0.4-1.3,0.5c-0.5,0.1-1,0.2-1.5,0.2h-1.8
		C75.7,211,75.5,210.9,75.4,210.8z M78.3,213.1l0.8-0.8c0.1,0,0.1-0.1,0.2-0.1c0.1,0,0.1,0,0.2,0.1l0.8,0.8c0.1,0,0.1,0.1,0.1,0.2
		s0,0.1-0.1,0.2l-0.8,0.8c-0.1,0.1-0.1,0.1-0.2,0.1c-0.1,0-0.1,0-0.2-0.1l-0.8-0.8c-0.1-0.1-0.1-0.1-0.1-0.2
		C78.2,213.2,78.2,213.2,78.3,213.1z"/>
	<path class="st5" d="M87,211c-0.2,0-0.3-0.1-0.4-0.2c-0.1-0.1-0.1-0.3-0.1-0.5s0-0.4,0.1-0.5s0.2-0.2,0.4-0.2h3.5v1.4H87L87,211z"
		/>
	<path class="st5" d="M90.4,211c-0.2,0-0.3-0.1-0.4-0.2c-0.1-0.1-0.1-0.3-0.1-0.5s0-0.4,0.1-0.5s0.2-0.2,0.4-0.2h3.5v1.4H90.4
		L90.4,211z"/>
	<path class="st5" d="M93.7,211c-0.2,0-0.3-0.1-0.4-0.2c-0.1-0.1-0.1-0.3-0.1-0.5s0-0.4,0.1-0.5s0.2-0.2,0.4-0.2h3.5v1.4H93.7
		L93.7,211z"/>
	<path class="st5" d="M96.5,210.3c0-0.2,0.1-0.4,0.2-0.5s0.3-0.2,0.5-0.2h0.3c0.2,0,0.5,0,0.7-0.1c0.2,0,0.4-0.1,0.6-0.2
		c0.2-0.1,0.3-0.2,0.5-0.3c0.1-0.1,0.3-0.2,0.4-0.4c0.1-0.1,0.2-0.3,0.3-0.4s0.2-0.3,0.2-0.4c0.1-0.1,0.1-0.3,0.2-0.5v-0.1
		c0.3-0.6,0.6-1,0.9-1.3c0.4-0.3,0.7-0.4,1.1-0.4c0.5,0,0.9,0.2,1.4,0.6c0.4,0.4,0.8,0.8,1.1,1.4c0.3,0.6,0.4,1.2,0.4,1.8
		c0,1.3-0.6,2-1.7,2c-0.3,0-0.6,0-0.9-0.1c-0.4-0.1-0.6-0.1-0.9-0.2c-0.2-0.1-0.5-0.2-1-0.3s-0.7-0.3-0.8-0.3
		c-0.5,0.5-1.3,0.7-2.3,0.7h-0.4c-0.2,0-0.3-0.1-0.5-0.2C96.5,210.6,96.5,210.5,96.5,210.3z M100.7,209.2c0,0,0.1,0,0.3,0.1
		c0.2,0.1,0.3,0.1,0.3,0.1s0.1,0,0.3,0.1c0.1,0.1,0.2,0.1,0.3,0.1c0.1,0,0.2,0,0.3,0.1c0.1,0,0.2,0.1,0.3,0.1c0.1,0,0.2,0,0.3,0.1
		s0.2,0,0.3,0c0.1,0,0.2,0,0.2,0c0.4,0,0.7-0.2,0.7-0.5c0-0.2-0.1-0.5-0.2-0.8c-0.2-0.4-0.4-0.7-0.6-1s-0.5-0.5-0.8-0.5
		c-0.2,0-0.5,0.3-0.8,0.8c-0.1,0.1-0.2,0.4-0.4,0.7S100.8,209,100.7,209.2z"/>
	<path class="st5" d="M120.7,213L120.7,213c-0.5,0.7-1.3,1.2-2.3,1.7s-2,0.6-3,0.6c-0.9,0-1.7-0.2-2.4-0.5c-0.7-0.4-1.3-0.9-1.5-1.6
		c-0.1-0.4-0.2-0.8-0.2-1.2c0-1.1,0.5-2.4,1.4-3.9l0.9,0.6c-0.6,1.1-0.9,2.1-0.9,3c0,0.5,0.1,1,0.4,1.3s0.6,0.6,1,0.7
		c0.4,0.1,0.9,0.2,1.4,0.2c0.9,0,1.8-0.2,2.6-0.5c0.9-0.4,1.5-0.8,1.8-1.3c0-0.1,0.1-0.2,0.1-0.3s0-0.2-0.1-0.3s-0.3-0.2-0.5-0.3
		s-0.4-0.2-0.6-0.3s-0.4-0.2-0.7-0.3c-0.3-0.1-0.5-0.2-0.6-0.2c-0.2-0.1-0.4-0.2-0.5-0.4s-0.2-0.5-0.2-0.8s0.1-0.7,0.4-1.2
		c0.4-0.8,0.9-1.4,1.5-1.9c0.5-0.5,1.1-0.7,1.6-0.7c0.9,0,1.7,0.6,2.3,1.9l-1,0.8c-0.3-0.4-0.5-0.8-0.8-1c-0.2-0.2-0.5-0.3-0.7-0.3
		s-0.5,0.1-0.7,0.3s-0.5,0.5-0.9,0.8c-0.3,0.4-0.5,0.6-0.5,0.9c0,0.1,0,0.2,0.1,0.2c0.1,0.1,0.1,0.1,0.2,0.1s0.1,0.1,0.3,0.1
		c0.8,0.3,1.3,0.5,1.6,0.7c0.8,0.4,1.2,1,1.2,1.6C121.3,211.9,121.1,212.4,120.7,213z"/>
	<path class="st5" d="M124.5,211v-11.3h1.3V211H124.5z"/>
	<path class="st5" d="M128.6,209.3c-0.4-0.3-0.6-0.7-0.6-1.2s0.3-1.1,0.8-1.8s1.2-1.2,2.1-1.8l-0.2-0.9l1.2-0.6l1.1,4.6
		c0.1,0.5,0.2,0.8,0.3,1c0.3,0.7,0.9,1,1.8,1v1.4c-1.4,0-2.3-0.5-2.8-1.4l0,0c-0.6,0.1-1.1,0.2-1.6,0.2
		C129.7,209.7,129,209.6,128.6,209.3z M129.2,207.8c0,0.2,0.1,0.3,0.3,0.4c0.2,0.1,0.5,0.1,0.8,0.1s0.8,0,1.4-0.1l-0.5-2.2
		C129.9,206.8,129.2,207.4,129.2,207.8z"/>
	<path class="st5" d="M134.7,211c-0.2,0-0.3-0.1-0.4-0.2c-0.1-0.1-0.1-0.3-0.1-0.5s0-0.4,0.1-0.5c0.1-0.1,0.2-0.2,0.4-0.2h3.5v1.4
		H134.7L134.7,211z"/>
	<path class="st5" d="M138.1,211c-0.2,0-0.3-0.1-0.4-0.2c-0.1-0.1-0.1-0.3-0.1-0.5s0-0.4,0.1-0.5s0.2-0.2,0.4-0.2h3.5v1.4H138.1
		L138.1,211z"/>
	<path class="st5" d="M140.9,210.3c0-0.2,0.1-0.3,0.2-0.5c0.1-0.1,0.3-0.2,0.5-0.2h2.3c1,0,1.5-0.4,1.5-1.3c0-0.2,0-0.5-0.1-0.9
		c-0.1-0.3-0.2-0.6-0.2-0.8s-0.2-0.4-0.3-0.8l1.3-0.5c0.4,1.1,0.7,2.2,0.7,3c0,1.7-0.9,2.6-2.8,2.6h-2.3c-0.2,0-0.3-0.1-0.5-0.2
		S140.9,210.5,140.9,210.3z M142.8,202.5c0,0-0.1-0.1-0.1-0.2s0-0.2,0.1-0.2l0.8-0.8c0.1,0,0.1-0.1,0.2-0.1s0.1,0,0.2,0.1l0.8,0.8
		c0.1,0,0.1,0.1,0.1,0.2s0,0.2-0.1,0.2l-0.8,0.8c0,0-0.1,0.1-0.2,0.1s-0.1,0-0.2-0.1L142.8,202.5z"/>
	<path class="st5" d="M149.2,208.2v-8.6h1.3v8.3c0,0.6,0.1,1,0.4,1.2c0.3,0.3,0.6,0.4,1,0.4v1.4c-0.4,0-0.8-0.1-1.1-0.2
		s-0.6-0.2-0.8-0.4s-0.4-0.4-0.5-0.6C149.3,209.4,149.2,208.8,149.2,208.2z"/>
	<path class="st5" d="M151.7,211c-0.2,0-0.3-0.1-0.4-0.2c-0.1-0.1-0.1-0.3-0.1-0.5s0-0.4,0.1-0.5c0.1-0.1,0.2-0.2,0.4-0.2h3.5v1.4
		H151.7L151.7,211z"/>
	<path class="st5" d="M155.1,211c-0.2,0-0.3-0.1-0.4-0.2c-0.1-0.1-0.1-0.3-0.1-0.5s0-0.4,0.1-0.5s0.2-0.2,0.4-0.2h3.5v1.4H155.1
		L155.1,211z"/>
	<path class="st5" d="M158.1,210.8c-0.1-0.1-0.2-0.3-0.2-0.5s0.1-0.3,0.2-0.5c0.1-0.1,0.3-0.2,0.5-0.2h1.8c0.3,0,0.7,0,1-0.1
		s0.6-0.1,0.9-0.2s0.5-0.2,0.9-0.4c0.3-0.2,0.6-0.3,0.8-0.4c0.2-0.1,0.5-0.3,0.8-0.5s0.6-0.4,0.7-0.5c-0.4-0.1-0.9-0.3-1.4-0.5
		s-0.9-0.4-1.3-0.5s-0.6-0.2-0.8-0.2c-0.4,0-0.9,0.4-1.5,1.1l-0.8-0.7c0.5-0.7,0.9-1.1,1.1-1.3c0.4-0.4,0.9-0.6,1.3-0.6
		c0.3,0,0.7,0.1,1.1,0.3s0.9,0.4,1.3,0.6c0.4,0.2,0.9,0.4,1.6,0.6s1.2,0.3,1.9,0.3h1.1l-0.3,1.4h-0.5c-0.3,0-0.6,0.1-1,0.2
		c-0.3,0.1-0.7,0.3-1,0.4s-0.6,0.4-1,0.6c-0.3,0.2-0.7,0.4-1,0.7s-0.7,0.4-1.1,0.6c-0.4,0.2-0.8,0.3-1.3,0.4c-0.5,0.1-1,0.2-1.5,0.2
		h-1.8C158.4,211,158.2,210.9,158.1,210.8z M160.5,202.1c-0.1,0-0.1-0.1-0.1-0.2s0-0.2,0.1-0.2l0.8-0.8c0,0,0.1-0.1,0.2-0.1
		s0.1,0,0.2,0.1l0.8,0.8c0,0,0.1,0.1,0.1,0.2s0,0.2-0.1,0.2l-0.8,0.8c0,0-0.1,0.1-0.2,0.1s-0.1,0-0.2-0.1L160.5,202.1z"/>
	<path class="st5" d="M-103.1,239.3L-103.1,239.3c-0.2,0.7-0.6,1.3-1.2,1.8c-0.6,0.5-1.3,0.9-2.1,1.1c-0.8,0.3-1.6,0.4-2.5,0.4
		s-1.7-0.2-2.4-0.5c-0.7-0.4-1.3-0.9-1.5-1.6c-0.1-0.4-0.2-0.8-0.2-1.2c0-1.1,0.5-2.4,1.4-3.9l0.9,0.6c-0.6,1.1-0.9,2.1-0.9,3
		c0,0.5,0.1,1,0.4,1.3s0.6,0.6,1,0.7c0.4,0.1,0.9,0.2,1.4,0.2c0.9,0,1.7-0.2,2.6-0.5c0.9-0.3,1.5-0.7,1.8-1.2
		c0.1-0.1,0.1-0.2,0.1-0.3c0-0.2-0.2-0.5-0.5-0.7s-0.8-0.4-1.4-0.6l0.4-1.4c1.5,0.4,2.8,0.6,4.1,0.6v1.4c-0.9,0-1.5-0.1-1.8-0.2
		c0.1,0.1,0.3,0.3,0.4,0.5C-103.1,238.9-103.1,239.1-103.1,239.3z"/>
	<path class="st5" d="M-102.3,238.1c-0.1-0.1-0.2-0.3-0.2-0.5s0.1-0.3,0.2-0.5c0.1-0.1,0.3-0.2,0.5-0.2h1.4c0.5,0,0.9-0.1,1.2-0.4
		c0.3-0.2,0.5-0.5,0.6-0.9l0.4-1.7l1.3,0.3l-0.5,2.1c0.6,0.4,1.2,0.6,1.8,0.6c0.4,0,0.7-0.1,1-0.3s0.5-0.5,0.6-1l0.3-1.4l1.3,0.3
		l-0.4,1.8c0.5,0.4,1,0.6,1.7,0.6c0.5,0,0.9-0.1,1.1-0.3s0.4-0.4,0.4-0.8s0-0.7-0.1-1s-0.3-0.9-0.5-1.5l1.3-0.6
		c0.2,0.7,0.4,1.3,0.5,1.7s0.1,0.9,0.1,1.3c0,0.9-0.3,1.5-0.8,1.9s-1.2,0.6-2.1,0.6c-0.5,0-0.9-0.1-1.4-0.2c-0.4-0.2-0.8-0.4-1-0.6
		c-0.5,0.6-1.2,0.8-2.1,0.8c-0.4,0-0.9-0.1-1.3-0.2s-0.8-0.4-1.1-0.6c-0.6,0.6-1.3,0.9-2.1,0.9h-1.5
		C-102,238.4-102.1,238.3-102.3,238.1z"/>
	<path class="st5" d="M-82,240.2c0.3-0.3,0.4-0.6,0.4-1s0-0.8-0.1-1.2c0-0.4-0.2-1-0.3-1.6c-0.2-0.7-0.4-1.2-0.7-1.7l1.1-0.9
		c0.6,1,1,2.1,1.1,3.2c0.1,0.5,0.1,0.9,0.1,1.2s0,0.6,0,1.1s-0.1,0.8-0.3,1.2c-0.2,0.4-0.4,0.7-0.7,0.9s-0.7,0.5-1.1,0.7
		c-0.8,0.4-1.8,0.7-3.1,0.9l-0.5-1.3c1.1-0.1,2.1-0.4,2.9-0.7C-82.7,240.8-82.3,240.5-82,240.2z"/>
	<path class="st5" d="M-78.2,235.6V227h1.3v8.3c0,0.6,0.1,1,0.4,1.2s0.6,0.4,1,0.4v1.4c-0.4,0-0.8-0.1-1.1-0.2
		c-0.3-0.1-0.6-0.2-0.8-0.4s-0.4-0.4-0.5-0.6C-78.1,236.7-78.2,236.2-78.2,235.6z"/>
	<path class="st5" d="M-75.7,238.4c-0.2,0-0.3-0.1-0.4-0.2c-0.1-0.1-0.1-0.3-0.1-0.5s0-0.4,0.1-0.5s0.2-0.2,0.4-0.2h3.5v1.4H-75.7
		L-75.7,238.4z"/>
	<path class="st5" d="M-72.9,237.7c0-0.2,0.1-0.3,0.2-0.5c0.1-0.1,0.3-0.2,0.5-0.2h3.1c0.4,0,0.7-0.1,1.1-0.3
		c0.3-0.2,0.5-0.5,0.5-0.8v-0.6c-0.7,0.2-1.2,0.2-1.5,0.2l0,0c-0.9,0-1.5-0.2-1.9-0.6c-0.4-0.4-0.6-1-0.6-1.6c0-0.9,0.3-1.7,0.9-2.4
		s1.2-1,1.9-1c0.3,0,0.5,0.1,0.8,0.2s0.5,0.3,0.7,0.6s0.4,0.7,0.6,1.1s0.3,1,0.4,1.7s0.1,1.4,0.1,2.3v0.2c0,0.9-0.2,1.5-0.7,1.9
		s-1.2,0.6-2.1,0.6H-72c-0.2,0-0.3-0.1-0.5-0.2C-72.8,238-72.9,237.8-72.9,237.7z M-70.3,233.2c0,0.6,0.4,0.9,1.3,0.9h0.1
		c0.3,0,0.8-0.1,1.4-0.2c-0.1-0.9-0.3-1.5-0.6-1.9c-0.3-0.4-0.6-0.6-0.9-0.6s-0.6,0.2-0.9,0.5S-70.3,232.7-70.3,233.2z M-70.2,227.5
		c-0.1,0-0.1-0.1-0.1-0.2s0-0.2,0.1-0.2l0.8-0.8c0.1,0,0.1-0.1,0.2-0.1s0.1,0,0.2,0.1l0.8,0.8c0.1,0,0.1,0.1,0.1,0.2s0,0.2-0.1,0.2
		l-0.8,0.8c-0.1,0-0.1,0.1-0.2,0.1s-0.1,0-0.2-0.1L-70.2,227.5z"/>
	<path class="st5" d="M-48.2,237h0.5v1.4c-0.5,0-0.9,0-1.1,0c-0.3,0-0.6-0.1-1-0.1s-0.7-0.2-1-0.3c-0.5,0.3-1.2,0.5-2,0.5h-4.5
		c-0.9,0-1.9-0.2-2.9-0.7l0.6-1.3c0.5,0.3,0.9,0.4,1.5,0.5c0.4-0.5,0.8-0.9,1-1.2V227h1.3v7.3c1.4-1.3,2.5-2,3.4-2.1
		c0.1,0,0.3,0,0.4,0c0.8,0,1.4,0.3,2,0.9s0.8,1.3,0.8,2.1c0,0.6-0.2,1.2-0.5,1.7C-49.4,236.9-48.9,237-48.2,237z M-53.2,236.9
		c0.6,0,1.1-0.1,1.6-0.3s0.8-0.4,1-0.6c0.1-0.2,0.1-0.3,0.1-0.4c0-0.5-0.2-0.9-0.5-1.2c-0.3-0.4-0.8-0.6-1.2-0.6
		c-0.4,0-0.8,0.1-1.2,0.3c-0.4,0.2-0.9,0.5-1.3,0.8c-0.7,0.6-1.4,1.2-2,1.9h3.5V236.9z"/>
	<path class="st5" d="M-47.8,238.4c-0.2,0-0.3-0.1-0.4-0.2c-0.1-0.1-0.1-0.3-0.1-0.5s0-0.4,0.1-0.5s0.2-0.2,0.4-0.2h3.5v1.4H-47.8
		L-47.8,238.4z"/>
	<path class="st5" d="M-44.8,238.1c-0.1-0.1-0.2-0.3-0.2-0.5s0.1-0.3,0.2-0.5c0.1-0.1,0.3-0.2,0.5-0.2h1.8c0.3,0,0.7,0,1-0.1
		s0.6-0.1,0.9-0.2c0.3-0.1,0.5-0.2,0.9-0.4c0.3-0.2,0.6-0.3,0.8-0.4c0.2-0.1,0.5-0.3,0.8-0.5s0.6-0.4,0.7-0.5
		c-0.4-0.1-0.9-0.3-1.4-0.5s-0.9-0.4-1.3-0.5s-0.6-0.2-0.8-0.2c-0.4,0-0.9,0.4-1.5,1.1l-0.9-0.7c0.5-0.7,0.9-1.1,1.1-1.3
		c0.4-0.4,0.9-0.6,1.3-0.6c0.3,0,0.7,0.1,1.1,0.3c0.5,0.2,0.9,0.4,1.3,0.6c0.4,0.2,0.9,0.4,1.6,0.6c0.6,0.2,1.2,0.3,1.9,0.3h1.1
		l-0.3,1.4h-0.5c-0.3,0-0.6,0.1-1,0.2c-0.3,0.1-0.7,0.3-1,0.4c-0.3,0.2-0.6,0.4-1,0.6c-0.3,0.2-0.7,0.4-1.1,0.7s-0.7,0.4-1.1,0.6
		c-0.4,0.2-0.8,0.3-1.3,0.4c-0.5,0.1-1,0.2-1.5,0.2h-1.6C-44.5,238.4-44.7,238.3-44.8,238.1z M-42.3,229.4c-0.1,0-0.1-0.1-0.1-0.2
		s0-0.2,0.1-0.2l0.8-0.8c0.1,0,0.1-0.1,0.2-0.1s0.1,0,0.2,0.1l0.8,0.8c0.1,0,0.1,0.1,0.1,0.2s0,0.2-0.1,0.2l-0.8,0.8
		c-0.1,0-0.1,0.1-0.2,0.1s-0.1,0-0.2-0.1L-42.3,229.4z"/>
	<path class="st5" d="M-27.8,239.3c0-0.5,0.1-1,0.3-1.6s0.4-1.2,0.7-1.7l1,0.4c-0.2,0.4-0.4,0.8-0.5,1.4s-0.2,1-0.2,1.4
		c0,0.5,0.1,0.8,0.4,1.1c0.3,0.3,0.6,0.5,1,0.6s0.9,0.2,1.4,0.2c0.7,0,1.5-0.1,2.2-0.3c0.8-0.2,1.4-0.5,1.9-0.9s0.8-0.8,0.8-1.3
		c0,0,0,0,0-0.1c0,0,0,0,0-0.1c-0.1-0.6-0.6-1.7-1.5-3.3l1.2-0.9c0,0,0.1,0.1,0.1,0.2c0.1,0.1,0.1,0.2,0.1,0.2s0.1,0.1,0.1,0.2
		s0.1,0.2,0.1,0.2s0.1,0.1,0.1,0.2s0.1,0.1,0.1,0.2c0,0.1,0.1,0.1,0.2,0.2c0.1,0.1,0.1,0.1,0.2,0.2c0.3,0.3,0.7,0.6,1.1,0.8
		c0.4,0.2,0.8,0.3,1.3,0.3c0.4,0,0.7-0.1,0.9-0.3s0.4-0.5,0.6-1l0.3-1.4l1.3,0.3l-0.4,1.8c0.5,0.4,1,0.6,1.7,0.6
		c0.5,0,0.8-0.1,1.1-0.3s0.4-0.5,0.4-0.8s0-0.7-0.1-1s-0.3-0.9-0.5-1.5l1.3-0.6c0.3,0.7,0.4,1.3,0.5,1.7s0.1,0.9,0.1,1.4
		c0,0.9-0.3,1.5-0.8,1.9s-1.2,0.6-2.1,0.6c-0.5,0-0.9-0.1-1.4-0.2c-0.4-0.2-0.8-0.4-1-0.6c-0.5,0.5-1.1,0.8-1.8,0.8l0,0h-0.1h-0.1
		h-0.1c-0.7,0-1.3-0.1-1.8-0.4c0,0.1,0,0.2,0,0.4c0,0.5-0.1,1-0.4,1.4s-0.6,0.8-0.9,1.2s-0.9,0.6-1.4,0.9s-1.1,0.4-1.6,0.5
		c-0.6,0.1-1.1,0.2-1.7,0.2c-0.6,0-1.1-0.1-1.6-0.2s-0.9-0.3-1.3-0.6c-0.4-0.3-0.7-0.6-0.9-1C-27.7,240.3-27.8,239.9-27.8,239.3z
		 M-17.9,230.9c-0.1,0-0.1-0.1-0.1-0.2s0-0.1,0.1-0.2l0.7-0.7c0.1,0,0.1-0.1,0.2-0.1c0.1,0,0.1,0,0.2,0.1l0.7,0.7
		c0.1,0,0.1,0.1,0.1,0.2s0,0.1-0.1,0.2l-0.7,0.7c-0.1,0-0.1,0.1-0.2,0.1s-0.1,0-0.2-0.1L-17.9,230.9z M-16.7,228.9
		c-0.1-0.1-0.1-0.2,0-0.3l0.6-0.6c0,0,0.1-0.1,0.2-0.1c0.1,0,0.1,0,0.2,0.1l0.6,0.6c0.1,0.1,0.1,0.2,0,0.3l-0.6,0.7
		c0,0-0.1,0.1-0.2,0.1c-0.1,0-0.1,0-0.2-0.1L-16.7,228.9z M-15.8,230.9c-0.1,0-0.1-0.1-0.1-0.2s0-0.1,0.1-0.2l0.7-0.7
		c0.1,0,0.1-0.1,0.2-0.1c0.1,0,0.1,0,0.2,0.1l0.7,0.7c0.1,0,0.1,0.1,0.1,0.2s0,0.1-0.1,0.2l-0.7,0.7c-0.1,0-0.1,0.1-0.2,0.1
		c-0.1,0-0.1,0-0.2-0.1L-15.8,230.9z"/>
	<path class="st5" d="M1.2,236.9v1.4c-0.5,0-1,0-1.3-0.1s-0.6-0.3-0.8-0.5c0,0.8-0.2,1.5-0.7,2.2s-1.1,1.3-1.8,1.8
		c-0.8,0.5-1.7,0.9-2.7,1.3l-0.5-1.3c1-0.4,2-0.9,2.8-1.6c0.4-0.3,0.8-0.7,1-1.1c0.3-0.4,0.4-0.8,0.4-1.1s0-0.6,0-0.8
		s-0.1-0.6-0.3-1s-0.4-0.9-0.7-1.4l1.1-0.9c0.2,0.3,0.4,0.7,0.7,1.4c0.1,0.2,0.2,0.4,0.4,0.6c0.2,0.2,0.3,0.4,0.5,0.6
		c0.2,0.1,0.4,0.3,0.7,0.4C0.3,236.9,0.9,236.9,1.2,236.9z"/>
	<path class="st5" d="M0.5,237.7c0-0.2,0.1-0.4,0.2-0.5S1,237,1.2,237h2.1c0.6,0,1.1-0.1,1.4-0.4s0.4-0.7,0.4-1.3v-1.4h1.3v1.4
		c0,0.6,0.2,1,0.5,1.3s0.8,0.4,1.3,0.4h0.2v1.4H8.1c-0.7,0-1.2-0.1-1.6-0.3s-0.6-0.5-0.8-0.8c-0.1,0.3-0.3,0.6-0.7,0.8
		s-0.9,0.3-1.5,0.3H1.2c-0.2,0-0.3-0.1-0.5-0.2C0.6,238,0.5,237.8,0.5,237.7z M2,231.1c-0.1,0-0.1-0.1-0.1-0.2s0-0.1,0.1-0.2
		l0.7-0.7c0.1,0,0.1-0.1,0.2-0.1s0.1,0,0.2,0.1l0.7,0.7c0.1,0,0.1,0.1,0.1,0.2s0,0.1-0.1,0.2l-0.7,0.7c-0.1,0-0.1,0.1-0.2,0.1
		s-0.1,0-0.2-0.1L2,231.1z M4.1,231.1C4,231.1,4,231,4,230.9s0-0.1,0.1-0.2l0.7-0.7c0.1,0,0.1-0.1,0.2-0.1s0.1,0,0.2,0.1l0.7,0.7
		c0.1,0,0.1,0.1,0.1,0.2s0,0.1-0.1,0.2l-0.7,0.7c-0.1,0-0.1,0.1-0.2,0.1s-0.1,0-0.2-0.1L4.1,231.1z"/>
	<path class="st5" d="M7.9,238.1c-0.2-0.1-0.2-0.3-0.2-0.4s0.1-0.3,0.2-0.5c0.1-0.1,0.3-0.2,0.5-0.2h1.4c0.4,0,0.8-0.1,1.1-0.3
		s0.5-0.5,0.6-1l0.3-1.4l1.3,0.3l-0.5,1.8c0.6,0.4,1.2,0.6,1.8,0.6c0.4,0,0.7-0.1,1-0.3s0.5-0.5,0.6-1l0.3-1.4l1.3,0.3l-0.4,1.8
		c0.5,0.4,1,0.6,1.7,0.6c0.8,0,1.3-0.2,1.5-0.6l-0.5-2.2l1.2-0.4l0.4,2c0.1,0.4,0.3,0.7,0.5,1c0.3,0.2,0.7,0.3,1.2,0.3h0.6v1.4h-0.6
		c-1,0-1.7-0.2-2.2-0.7c-0.5,0.5-1.2,0.7-2.2,0.7c-0.5,0-0.9-0.1-1.4-0.2c-0.4-0.2-0.8-0.4-1-0.6c-0.5,0.6-1.2,0.8-2.1,0.8
		c-0.4,0-0.9-0.1-1.3-0.2s-0.8-0.4-1.1-0.6c-0.6,0.6-1.3,0.9-2.1,0.9H8.3C8.2,238.4,8,238.3,7.9,238.1z"/>
	<path class="st5" d="M23.7,238.4c-0.2,0-0.3-0.1-0.4-0.2c-0.1-0.1-0.1-0.3-0.1-0.5s0-0.4,0.1-0.5c0.1-0.1,0.2-0.2,0.4-0.2h3.5v1.4
		H23.7L23.7,238.4z"/>
	<path class="st5" d="M26.7,238.1c-0.1-0.1-0.2-0.3-0.2-0.5s0.1-0.3,0.2-0.5c0.1-0.1,0.3-0.2,0.5-0.2h2.1c0.8,0,1.4-0.1,1.8-0.3
		c0.3-0.2,0.5-0.5,0.5-0.8c0-1-0.8-2.1-2.3-3.3c-0.3-0.2-0.6-0.4-0.9-0.6c-0.3-0.2-0.5-0.3-0.5-0.3c0.1-0.7,0.2-1.2,0.3-1.4
		c0.1-0.2,0.3-0.4,0.5-0.6c0.7-0.5,1.6-0.9,2.6-1.4s2-0.9,2.9-1.2l0.5,1.3c-1.9,0.6-3.7,1.4-5.5,2.5c0.3,0.2,0.6,0.4,0.9,0.6
		c0.3,0.2,0.6,0.5,0.9,0.8c0.4,0.3,0.7,0.7,0.9,1s0.4,0.7,0.6,1.2s0.3,0.9,0.3,1.4c0,0.8-0.3,1.4-0.9,1.8c-0.6,0.5-1.4,0.7-2.5,0.7
		h-2.3C27,238.4,26.8,238.3,26.7,238.1z M28.1,228.4c0.8-0.5,1.6-1,2.3-1.3c0.7-0.3,1.6-0.7,2.5-1l0.3,0.8c-0.9,0.3-1.7,0.6-2.4,1
		c-0.7,0.4-1.5,0.8-2.4,1.3L28.1,228.4z"/>
	<path class="st5" d="M45.4,238c-0.6,0.2-1.1,0.3-1.7,0.3c-0.6,0-1-0.1-1.4-0.4c-0.7-0.5-1-1.2-1-2.2c0-0.5,0.1-1,0.3-1.5
		c0.2-0.5,0.5-0.9,0.9-1.2s0.9-0.5,1.4-0.5c1,0,1.7,0.4,2.1,1.2s0.7,2.1,0.7,3.9c0,0.8-0.3,1.5-0.8,2.3s-1.2,1.3-2.1,1.9
		c-0.9,0.5-1.8,0.9-2.9,1.2l-0.3-1.4c1-0.3,2-0.7,3-1.4c0.5-0.3,0.9-0.7,1.2-1.1C45.2,238.9,45.4,238.5,45.4,238z M43,234.6
		c-0.2,0.3-0.3,0.7-0.3,1s0.1,0.7,0.3,0.9s0.5,0.4,0.9,0.4H44c0.3,0,0.6,0,0.9-0.1c0.3-0.1,0.5-0.2,0.6-0.3l0.1,0.3
		c-0.1-1.8-0.6-2.7-1.6-2.7C43.5,234.1,43.2,234.3,43,234.6z"/>
	<path class="st5" d="M53.7,237.8c-0.4-0.2-0.8-0.5-1-0.8c-0.2-0.4-0.3-0.8-0.3-1.3c0-0.6,0.2-1.5,0.5-2.6l1.2,0.4
		c0,0.1-0.1,0.2-0.1,0.4c-0.1,0.2-0.1,0.3-0.1,0.4c0,0.1-0.1,0.2-0.1,0.4s-0.1,0.3-0.1,0.4c0,0.1,0,0.2,0,0.3c0,0,0,0,0,0.1v0.1
		c0.1,0.5,0.4,0.9,1,1.1c0.6,0.2,1.5,0.3,2.8,0.3c0.5,0,0.9,0,1.4,0c0.4,0,0.8,0,1.2-0.1c0.4,0,0.7-0.1,1-0.2
		c0.3-0.1,0.5-0.2,0.8-0.3c0.2-0.1,0.4-0.2,0.5-0.4s0.2-0.3,0.2-0.5c0,0,0,0,0-0.1v-1.6h1.1v1.4c0,0.6,0.2,1,0.5,1.3
		c0.3,0.3,0.8,0.4,1.3,0.4h0.2v1.4h-0.3c-1,0-1.8-0.4-2.4-1.2c-0.3,0.3-0.6,0.5-1,0.6c-0.4,0.2-0.9,0.3-1.4,0.4
		c-0.5,0.1-1,0.1-1.5,0.1s-1,0-1.7,0h-0.3c-0.8,0-1.4,0-1.9-0.1S54.1,238,53.7,237.8z M56.4,231.2c-0.1,0-0.1-0.1-0.1-0.2
		s0-0.1,0.1-0.2l0.7-0.7c0.1,0,0.1-0.1,0.2-0.1c0.1,0,0.1,0,0.2,0.1l0.7,0.7c0.1,0,0.1,0.1,0.1,0.2s0,0.1-0.1,0.2l-0.7,0.7
		c-0.1,0-0.1,0.1-0.2,0.1c-0.1,0-0.1,0-0.2-0.1L56.4,231.2z M58.5,231.2c-0.1,0-0.1-0.1-0.1-0.2s0-0.1,0.1-0.2l0.7-0.7
		c0.1,0,0.1-0.1,0.2-0.1s0.1,0,0.2,0.1l0.7,0.7c0.1,0,0.1,0.1,0.1,0.2s0,0.1-0.1,0.2l-0.7,0.7c-0.1,0-0.1,0.1-0.2,0.1
		s-0.1,0-0.2-0.1L58.5,231.2z"/>
	<path class="st5" d="M65,237.7c0-0.2,0.1-0.3,0.2-0.5c0.1-0.1,0.3-0.2,0.5-0.2H68c1,0,1.5-0.4,1.5-1.3c0-0.2,0-0.5-0.1-0.9
		s-0.2-0.6-0.2-0.8c-0.1-0.2-0.2-0.4-0.3-0.8l1.3-0.5c0.4,1.1,0.7,2.2,0.7,3c0,1.7-0.9,2.6-2.8,2.6h-2.4c-0.2,0-0.3-0.1-0.5-0.2
		C65,238,65,237.8,65,237.7z M66.9,229.9c-0.1,0-0.1-0.1-0.1-0.2s0-0.2,0.1-0.2l0.8-0.8c0.1,0,0.1-0.1,0.2-0.1s0.1,0,0.2,0.1
		l0.8,0.8c0.1,0,0.1,0.1,0.1,0.2s0,0.2-0.1,0.2l-0.8,0.8c-0.1,0-0.1,0.1-0.2,0.1s-0.1,0-0.2-0.1L66.9,229.9z"/>
	<path class="st5" d="M73.4,235.6V227h1.3v8.3c0,0.6,0.1,1,0.4,1.2s0.6,0.4,1,0.4v1.4c-0.4,0-0.8-0.1-1.1-0.2
		c-0.3-0.1-0.6-0.2-0.8-0.4s-0.4-0.4-0.5-0.6C73.5,236.7,73.4,236.2,73.4,235.6z"/>
	<path class="st5" d="M75.3,237.7c0-0.2,0.1-0.4,0.2-0.5c0.1-0.1,0.3-0.2,0.5-0.2h2.1c0.6,0,1.1-0.1,1.4-0.4
		c0.3-0.3,0.4-0.7,0.4-1.3v-1.4h1.3v1.4c0,0.6,0.2,1,0.5,1.3c0.3,0.3,0.8,0.4,1.3,0.4h0.2v1.4h-0.3c-0.7,0-1.2-0.1-1.6-0.3
		s-0.6-0.5-0.8-0.8c-0.1,0.3-0.3,0.6-0.7,0.8s-0.9,0.3-1.5,0.3H76c-0.2,0-0.3-0.1-0.5-0.2C75.4,238,75.3,237.8,75.3,237.7z
		 M76.1,240.5l0.7-0.7c0.1,0,0.1-0.1,0.2-0.1c0.1,0,0.1,0,0.2,0.1l0.7,0.7c0.1,0,0.1,0.1,0.1,0.2s0,0.1-0.1,0.2l-0.7,0.7
		c-0.1,0-0.1,0.1-0.2,0.1s-0.1,0-0.2-0.1l-0.7-0.7c-0.1,0-0.1-0.1-0.1-0.2S76,240.5,76.1,240.5z M78.2,240.5l0.7-0.7
		c0.1,0,0.1-0.1,0.2-0.1c0.1,0,0.1,0,0.2,0.1l0.7,0.7c0.1,0,0.1,0.1,0.1,0.2s0,0.1-0.1,0.2l-0.7,0.7c-0.1,0-0.1,0.1-0.2,0.1
		c-0.1,0-0.1,0-0.2-0.1l-0.7-0.7c-0.1,0-0.1-0.1-0.1-0.2S78.1,240.5,78.2,240.5z"/>
	<path class="st5" d="M83,238.4c-0.2,0-0.3-0.1-0.4-0.2c-0.1-0.1-0.1-0.3-0.1-0.5s0-0.4,0.1-0.5s0.2-0.2,0.4-0.2h3.5v1.4H83
		L83,238.4z"/>
	<path class="st5" d="M86,238.1c-0.1-0.1-0.2-0.3-0.2-0.5s0.1-0.3,0.2-0.5c0.1-0.1,0.3-0.2,0.5-0.2h1.1c0.6,0,1.1-0.1,1.3-0.4
		c0.3-0.3,0.4-0.7,0.4-1.3v-1.1h1.4v1.1c0,0.6,0.2,1,0.6,1.3c0.5-0.6,0.9-1,1.2-1.4s0.7-0.7,1.1-1.1c0.4-0.4,0.8-0.7,1.1-0.9
		c0.3-0.2,0.7-0.4,1.1-0.5s0.8-0.2,1.2-0.2c0.6,0,1.1,0.1,1.6,0.4c0.4,0.3,0.8,0.6,1,1s0.3,0.9,0.3,1.3c0,0.4-0.1,0.8-0.2,1.2
		s-0.4,0.7-0.6,1c-0.3,0.3-0.6,0.6-1.1,0.7c-0.5,0.2-1,0.3-1.5,0.3h-3.9c-0.7,0-1.2-0.1-1.6-0.3s-0.6-0.5-0.8-0.8
		c-0.1,0.3-0.4,0.6-0.7,0.8s-0.8,0.3-1.5,0.3h-1.3C86.3,238.4,86.2,238.3,86,238.1z M92.1,236.9h3.8c0.8,0,1.5-0.2,1.9-0.5
		s0.7-0.8,0.7-1.2s-0.2-0.7-0.5-1s-0.7-0.4-1.2-0.4C95.6,233.8,94,234.9,92.1,236.9z"/>
	<path class="st5" d="M106,237.9c-0.2-0.3-0.3-0.6-0.3-1s0.1-0.8,0.4-1.3c0.2-0.5,0.6-0.9,1-1.3l0.5,0.5c-0.1,0.1-0.2,0.3-0.3,0.3
		c-0.1,0.1-0.2,0.2-0.2,0.4s-0.1,0.3-0.1,0.5c0,0.3,0.2,0.5,0.5,0.9c0.1,0.2,0.2,0.3,0.2,0.6s-0.1,0.4-0.3,0.6
		c-0.2,0.2-0.4,0.2-0.6,0.2C106.4,238.4,106.2,238.2,106,237.9z"/>
	<path class="st5" d="M109.8,237.6l0.6-1.3c0.5,0.3,0.9,0.4,1.5,0.5c0.4-0.5,0.8-0.9,1-1.2V227h1.3v7.3c1.4-1.3,2.5-2,3.4-2.1
		c0.1,0,0.3,0,0.4,0c0.8,0,1.4,0.3,2,0.9c0.5,0.6,0.8,1.3,0.8,2.1c0,0.6-0.2,1.2-0.5,1.7c0.4,0.1,0.9,0.1,1.6,0.1c0.1,0,0.1,0,0.3,0
		c0.1,0,0.2,0,0.2,0v1.4c-0.5,0-0.9,0-1.1,0c-0.3,0-0.6-0.1-1-0.1c-0.4-0.1-0.7-0.2-1-0.3c-0.5,0.3-1.2,0.5-2,0.5h-4.6
		C111.7,238.4,110.8,238.1,109.8,237.6z M113.1,236.9h3.6c0.6,0,1.1-0.1,1.6-0.3c0.4-0.2,0.8-0.4,1-0.6c0-0.2,0.1-0.3,0.1-0.4
		c0-0.5-0.2-0.9-0.5-1.2c-0.3-0.4-0.8-0.6-1.2-0.6c-0.4,0-0.8,0.1-1.2,0.3c-0.4,0.2-0.9,0.5-1.3,0.8s-0.8,0.7-1.1,1
		C113.8,236.3,113.5,236.6,113.1,236.9z M116,229.9c0,0-0.1-0.1-0.1-0.2s0-0.2,0.1-0.2l0.8-0.8c0,0,0.1-0.1,0.2-0.1s0.1,0,0.2,0.1
		l0.8,0.8c0,0,0.1,0.1,0.1,0.2s0,0.2-0.1,0.2l-0.8,0.8c0,0-0.1,0.1-0.2,0.1s-0.1,0-0.2-0.1L116,229.9z"/>
	<path class="st5" d="M121.9,238.1c-0.1-0.1-0.2-0.3-0.2-0.5s0.1-0.3,0.2-0.5c0.1-0.1,0.3-0.2,0.5-0.2h0.3c0.6,0,1.1,0,1.5-0.1
		c-0.5-0.6-0.8-1.2-0.8-1.9c0-0.5,0.1-1,0.2-1.4c0.2-0.4,0.4-0.7,0.6-1c0.3-0.2,0.5-0.4,0.9-0.6c0.3-0.1,0.7-0.2,1-0.2
		s0.7,0.1,1,0.2s0.6,0.3,0.9,0.5s0.5,0.5,0.6,0.9c0.2,0.4,0.2,0.8,0.2,1.2s-0.1,0.7-0.3,1.1c-0.2,0.4-0.5,0.7-0.8,1.1
		c0.5,0,0.9,0,1.3,0h1.2v1.4H129c-1.2,0-2.3-0.2-3.1-0.5c-0.9,0.3-1.9,0.5-3,0.5h-0.5C122.2,238.4,122,238.3,121.9,238.1z
		 M124.7,234.3c0,1,0.4,1.7,1.3,2.1c1-0.5,1.6-1.2,1.6-2.2c0-0.2-0.2-0.4-0.5-0.6s-0.6-0.3-0.9-0.3s-0.7,0.1-1,0.3
		C124.8,233.9,124.7,234.1,124.7,234.3z M125.2,228.9c0,0-0.1-0.1-0.1-0.2s0-0.2,0.1-0.2l0.8-0.8c0,0,0.1-0.1,0.2-0.1s0.1,0,0.2,0.1
		l0.8,0.8c0,0,0.1,0.1,0.1,0.2s0,0.2-0.1,0.2l-0.8,0.8c0,0-0.1,0.1-0.2,0.1s-0.1,0-0.2-0.1L125.2,228.9z"/>
	<path class="st5" d="M130,238.4c-0.2,0-0.3-0.1-0.4-0.2c-0.1-0.1-0.1-0.3-0.1-0.5s0-0.4,0.1-0.5c0.1-0.1,0.2-0.2,0.4-0.2h3.5v1.4
		H130L130,238.4z"/>
	<path class="st5" d="M133,238.1c-0.1-0.1-0.2-0.3-0.2-0.5s0.1-0.3,0.2-0.5c0.1-0.1,0.3-0.2,0.5-0.2h1.8c1.1,0,2.3-0.4,3.6-1.2
		c0.2-0.1,0.5-0.3,0.8-0.5c0.3-0.2,0.6-0.4,0.7-0.5c-0.4-0.1-0.9-0.3-1.4-0.5s-0.9-0.4-1.3-0.5s-0.6-0.2-0.8-0.2
		c-0.4,0-0.9,0.4-1.5,1.1l-0.8-0.7c0.5-0.7,0.9-1.1,1.1-1.3c0.4-0.4,0.9-0.6,1.3-0.6c0.5,0,1.3,0.3,2.4,0.9c0.4,0.2,0.9,0.4,1.6,0.6
		c0.7,0.2,1.2,0.3,1.9,0.3h1.1l-0.3,1.4h-0.5c-0.6,0-1.3,0.2-2,0.6c-0.3,0.2-0.6,0.4-1,0.6c-0.4,0.2-0.7,0.4-1,0.7
		c-0.3,0.3-0.7,0.4-1.1,0.6c-0.9,0.4-1.8,0.6-2.8,0.6h-1.8C133.3,238.4,133.2,238.3,133,238.1z"/>
	<path class="st5" d="M159.5,240.4L159.5,240.4c-0.5,0.7-1.3,1.2-2.3,1.7s-2,0.6-3,0.6c-0.9,0-1.7-0.2-2.4-0.5
		c-0.7-0.4-1.3-0.9-1.5-1.6c-0.1-0.4-0.2-0.8-0.2-1.2c0-1.1,0.5-2.4,1.4-3.9l0.9,0.6c-0.6,1.1-0.9,2.1-0.9,3c0,0.5,0.1,1,0.4,1.3
		c0.3,0.3,0.6,0.6,1,0.7c0.4,0.1,0.9,0.2,1.4,0.2c0.9,0,1.8-0.2,2.6-0.5c0.9-0.4,1.5-0.8,1.8-1.3c0-0.1,0.1-0.2,0.1-0.3
		s0-0.2-0.1-0.3s-0.3-0.2-0.5-0.3s-0.4-0.2-0.6-0.3s-0.4-0.2-0.7-0.3s-0.5-0.2-0.6-0.2c-0.2-0.1-0.4-0.2-0.5-0.4
		c-0.1-0.2-0.2-0.5-0.2-0.8s0.1-0.7,0.4-1.2c0.4-0.8,0.9-1.4,1.5-1.9c0.5-0.5,1.1-0.7,1.6-0.7c0.9,0,1.7,0.6,2.3,1.9l-1,0.8
		c-0.3-0.4-0.5-0.8-0.8-1s-0.5-0.3-0.7-0.3s-0.5,0.1-0.7,0.3s-0.5,0.5-0.9,0.8c-0.3,0.4-0.5,0.6-0.5,0.9c0,0.1,0,0.2,0.1,0.2
		c0.1,0.1,0.1,0.1,0.2,0.1s0.1,0.1,0.3,0.1c0.8,0.3,1.3,0.5,1.6,0.7c0.8,0.4,1.2,1,1.2,1.6C160.2,239.3,160,239.8,159.5,240.4z"/>
	<path class="st5" d="M163.4,238.4V227h1.3v11.3L163.4,238.4L163.4,238.4z"/>
	<path class="st5" d="M174.5,236.9v1.4c-0.5,0-1,0-1.3-0.1s-0.6-0.3-0.8-0.5c0,0.8-0.2,1.5-0.7,2.2s-1.1,1.3-1.8,1.8
		c-0.8,0.5-1.7,0.9-2.7,1.3l-0.5-1.3c1-0.4,2-0.9,2.8-1.6c0.4-0.3,0.8-0.7,1-1.1c0.3-0.4,0.4-0.8,0.4-1.1s0-0.6,0-0.8
		s-0.1-0.6-0.3-1c-0.2-0.5-0.4-0.9-0.7-1.4l1.1-0.9c0.2,0.3,0.4,0.7,0.7,1.4c0.1,0.2,0.2,0.4,0.4,0.6s0.3,0.4,0.5,0.6
		c0.2,0.1,0.4,0.3,0.7,0.4S174.1,236.9,174.5,236.9z"/>
	<path class="st5" d="M174.3,238.4c-0.2,0-0.3-0.1-0.4-0.2c-0.1-0.1-0.1-0.3-0.1-0.5s0-0.4,0.1-0.5s0.2-0.2,0.4-0.2h3.5v1.4H174.3
		L174.3,238.4z"/>
	<path class="st5" d="M177.1,237.7c0-0.2,0.1-0.3,0.2-0.5c0.1-0.1,0.3-0.2,0.5-0.2h2.3c1,0,1.5-0.4,1.5-1.3c0-0.2,0-0.5-0.1-0.9
		s-0.2-0.6-0.2-0.8s-0.2-0.4-0.3-0.8l1.3-0.5c0.4,1.1,0.7,2.2,0.7,3c0,1.7-0.9,2.6-2.8,2.6h-2.3c-0.2,0-0.3-0.1-0.5-0.2
		S177.1,237.8,177.1,237.7z M178.5,240.5l0.8-0.8c0,0,0.1-0.1,0.2-0.1c0.1,0,0.1,0,0.2,0.1l0.8,0.8c0,0,0.1,0.1,0.1,0.2
		s0,0.1-0.1,0.2l-0.8,0.8c-0.1,0.1-0.1,0.1-0.2,0.1c-0.1,0-0.1,0-0.2-0.1l-0.8-0.8c0-0.1-0.1-0.1-0.1-0.2
		C178.5,240.7,178.5,240.6,178.5,240.5z"/>
	<path class="st5" d="M-111.8,266.7c0-1.1,0.5-2.4,1.4-4l0.9,0.6c-0.6,1.2-1,2.2-1,3c0,0.4,0.1,0.7,0.2,1c0.1,0.3,0.4,0.5,0.6,0.7
		c0.5,0.3,1.2,0.5,1.9,0.5s1.5-0.1,2.2-0.4c0.7-0.2,1.3-0.6,1.8-1s0.7-0.8,0.7-1.2v-11.6h1.3v11.5c0,0.6-0.2,1.2-0.6,1.7
		c-0.4,0.5-0.8,0.9-1.4,1.3c-0.6,0.3-1.2,0.6-1.9,0.8c-0.7,0.2-1.3,0.3-1.9,0.3c-0.6,0-1.1,0-1.5-0.1s-0.8-0.2-1.1-0.4
		c-0.4-0.2-0.7-0.4-0.9-0.6c-0.3-0.3-0.5-0.6-0.6-0.9C-111.8,267.6-111.8,267.2-111.8,266.7z"/>
	<path class="st5" d="M-99.5,263v-8.6h1.3v8.3c0,0.6,0.1,1,0.4,1.2c0.3,0.3,0.6,0.4,1,0.4v1.4c-0.4,0-0.8-0.1-1.1-0.2
		c-0.3-0.1-0.6-0.2-0.8-0.4c-0.2-0.2-0.4-0.4-0.5-0.6C-99.4,264.1-99.5,263.6-99.5,263z"/>
	<path class="st5" d="M-97.5,265c0-0.2,0.1-0.4,0.2-0.5s0.3-0.2,0.5-0.2h2.1c0.6,0,1.1-0.1,1.4-0.4s0.4-0.7,0.4-1.3v-1.4h1.3v1.4
		c0,0.6,0.2,1,0.5,1.3s0.8,0.4,1.3,0.4h0.2v1.4h-0.3c-0.7,0-1.2-0.1-1.6-0.3c-0.4-0.2-0.6-0.5-0.8-0.8c-0.1,0.3-0.3,0.6-0.7,0.8
		c-0.4,0.2-0.9,0.3-1.5,0.3h-2.3c-0.2,0-0.3-0.1-0.5-0.2C-97.4,265.4-97.5,265.2-97.5,265z M-96.1,258.4c-0.1,0-0.1-0.1-0.1-0.2
		s0-0.1,0.1-0.2l0.7-0.7c0.1,0,0.1-0.1,0.2-0.1s0.1,0,0.2,0.1l0.7,0.7c0.1,0,0.1,0.1,0.1,0.2s0,0.1-0.1,0.2l-0.7,0.7
		c-0.1,0-0.1,0.1-0.2,0.1s-0.1,0-0.2-0.1L-96.1,258.4z M-93.9,258.4c-0.1,0-0.1-0.1-0.1-0.2s0-0.1,0.1-0.2l0.7-0.7
		c0.1,0,0.1-0.1,0.2-0.1s0.1,0,0.2,0.1l0.7,0.7c0.1,0,0.1,0.1,0.1,0.2s0,0.1-0.1,0.2l-0.7,0.7c-0.1,0-0.1,0.1-0.2,0.1
		s-0.1,0-0.2-0.1L-93.9,258.4z"/>
	<path class="st5" d="M-90.4,265c0-0.2,0.1-0.4,0.2-0.5s0.3-0.2,0.5-0.2h2.1c0.6,0,1.1-0.1,1.4-0.4s0.4-0.7,0.4-1.3v-1.4h1.3v1.4
		c0,0.6,0.2,1,0.5,1.3s0.8,0.4,1.3,0.4h0.2v1.4h-0.3c-0.7,0-1.2-0.1-1.6-0.3c-0.4-0.2-0.6-0.5-0.8-0.8c-0.1,0.3-0.3,0.6-0.7,0.8
		c-0.4,0.2-0.9,0.3-1.5,0.3h-2.3c-0.2,0-0.3-0.1-0.5-0.2C-90.3,265.4-90.4,265.2-90.4,265z M-89.7,267.8l0.7-0.7
		c0.1,0,0.1-0.1,0.2-0.1s0.1,0,0.2,0.1l0.7,0.7c0.1,0,0.1,0.1,0.1,0.2s0,0.1-0.1,0.2l-0.7,0.7c-0.1,0-0.1,0.1-0.2,0.1
		s-0.1,0-0.2-0.1l-0.7-0.7c-0.1,0-0.1-0.1-0.1-0.2S-89.7,267.9-89.7,267.8z M-87.5,267.8l0.7-0.7c0.1,0,0.1-0.1,0.2-0.1
		s0.1,0,0.2,0.1l0.7,0.7c0.1,0,0.1,0.1,0.1,0.2s0,0.1-0.1,0.2l-0.7,0.7c-0.1,0-0.1,0.1-0.2,0.1s-0.1,0-0.2-0.1l-0.7-0.7
		c-0.1,0-0.1-0.1-0.1-0.2S-87.6,267.9-87.5,267.8z"/>
	<path class="st5" d="M-83,265.5c-0.1-0.1-0.2-0.3-0.2-0.5s0.1-0.3,0.2-0.5c0.1-0.1,0.3-0.2,0.5-0.2h1.8c0.3,0,0.7,0,1-0.1
		s0.6-0.1,0.9-0.2s0.5-0.2,0.9-0.4c0.3-0.2,0.6-0.3,0.8-0.4c0.2-0.1,0.5-0.3,0.8-0.5s0.6-0.4,0.7-0.5c-0.4-0.1-0.9-0.3-1.4-0.5
		s-0.9-0.4-1.3-0.5s-0.6-0.2-0.8-0.2c-0.4,0-0.9,0.4-1.5,1.1l-0.8-0.7c0.5-0.7,0.9-1.1,1.1-1.3c0.4-0.4,0.9-0.6,1.3-0.6
		c0.3,0,0.7,0.1,1.1,0.3c0.5,0.2,0.9,0.4,1.3,0.6s0.9,0.4,1.6,0.6c0.6,0.2,1.2,0.3,1.9,0.3h1.1l-0.3,1.4h-0.5
		c-0.3,0-0.6,0.1-0.9,0.1c0.1,0.5,0.4,0.9,0.8,1.2c0.4,0.3,1,0.4,1.8,0.4v1.4c-1.2,0-2-0.2-2.6-0.6s-0.9-1-1.1-1.9
		c-0.2,0.1-0.6,0.3-1,0.6c-0.4,0.3-0.8,0.5-1.1,0.7c-0.3,0.2-0.7,0.4-1.1,0.6s-0.9,0.4-1.3,0.5c-0.5,0.1-1,0.2-1.5,0.2h-1.8
		C-82.7,265.7-82.8,265.7-83,265.5z M-80.1,267.9l0.8-0.8c0.1,0,0.1-0.1,0.2-0.1s0.1,0,0.2,0.1l0.8,0.8c0.1,0,0.1,0.1,0.1,0.2
		s0,0.1-0.1,0.2l-0.8,0.8c-0.1,0.1-0.1,0.1-0.2,0.1s-0.1,0-0.2-0.1l-0.8-0.8c-0.1-0.1-0.1-0.1-0.1-0.2S-80.2,267.9-80.1,267.9z"/>
	<path class="st5" d="M-71.9,265c0-0.2,0.1-0.3,0.2-0.5c0.1-0.1,0.3-0.2,0.5-0.2h2.3c1,0,1.5-0.4,1.5-1.3c0-0.2,0-0.5-0.1-0.9
		c-0.1-0.3-0.2-0.6-0.2-0.8c-0.1-0.2-0.2-0.4-0.3-0.8l1.3-0.5c0.4,1.1,0.7,2.2,0.7,3c0,1.7-0.9,2.6-2.8,2.6h-2.3
		c-0.2,0-0.3-0.1-0.5-0.2C-71.8,265.4-71.9,265.2-71.9,265z M-71.7,267.9l0.7-0.7c0.1,0,0.1-0.1,0.2-0.1s0.1,0,0.2,0.1l0.7,0.7
		c0.1,0,0.1,0.1,0.1,0.2s0,0.1-0.1,0.2l-0.7,0.7c-0.1,0-0.1,0.1-0.2,0.1s-0.1,0-0.2-0.1l-0.7-0.7c-0.1-0.1-0.1-0.1-0.1-0.2
		S-71.8,267.9-71.7,267.9z M-69.6,267.9l0.7-0.7c0.1,0,0.1-0.1,0.2-0.1s0.1,0,0.2,0.1l0.7,0.7c0.1,0,0.1,0.1,0.1,0.2s0,0.1-0.1,0.2
		l-0.7,0.7c-0.1,0-0.1,0.1-0.2,0.1s-0.1,0-0.2-0.1l-0.7-0.7c-0.1-0.1-0.1-0.1-0.1-0.2S-69.6,267.9-69.6,267.9z"/>
	<path class="st5" d="M-60.7,264.3c1,0,1.8-0.3,2.3-0.9c-0.1-1.1-0.9-2.5-2.3-4.1l1-0.9c0.6,0.6,1.1,1.3,1.7,2.1
		c0.3,0.5,0.5,0.9,0.7,1.5c0.2,0.5,0.3,1,0.3,1.5c0,0.2-0.1,0.5-0.4,0.9c-0.1,0.1-0.1,0.1-0.1,0.2c-0.8,0.8-1.9,1.2-3.1,1.2
		c-1,0-1.9-0.3-2.9-0.8l0.6-1.3C-62.3,264.1-61.5,264.3-60.7,264.3z"/>
	<path class="st5" d="M-41.9,267.7L-41.9,267.7c-0.5,0.7-1.3,1.2-2.3,1.7c-1,0.4-2,0.6-3,0.6c-0.9,0-1.7-0.2-2.4-0.5
		c-0.7-0.4-1.3-0.9-1.5-1.6c-0.1-0.4-0.2-0.8-0.2-1.2c0-1.1,0.5-2.4,1.4-3.9l0.9,0.6c-0.6,1.1-0.9,2.1-0.9,3c0,0.5,0.1,1,0.4,1.3
		s0.6,0.6,1,0.7s0.9,0.2,1.4,0.2c0.9,0,1.8-0.2,2.6-0.5c0.9-0.4,1.5-0.8,1.8-1.3c0-0.1,0.1-0.2,0.1-0.3c0-0.1-0.1-0.2-0.1-0.3
		c-0.1-0.1-0.3-0.2-0.5-0.3c-0.2-0.1-0.4-0.2-0.6-0.3c-0.2-0.1-0.4-0.2-0.7-0.3c-0.3-0.1-0.5-0.2-0.6-0.2c-0.2-0.1-0.4-0.2-0.5-0.4
		c-0.1-0.2-0.2-0.5-0.2-0.8s0.1-0.7,0.4-1.2c0.4-0.8,0.9-1.4,1.5-1.9c0.5-0.5,1.1-0.7,1.6-0.7c0.9,0,1.7,0.6,2.3,1.9l-1,0.8
		c-0.3-0.4-0.5-0.8-0.8-1c-0.2-0.2-0.5-0.3-0.7-0.3s-0.5,0.1-0.7,0.3c-0.2,0.2-0.5,0.5-0.9,0.8c-0.3,0.4-0.5,0.6-0.5,0.9
		c0,0.1,0,0.2,0.1,0.2s0.1,0.1,0.2,0.1s0.1,0.1,0.3,0.1c0.8,0.3,1.3,0.5,1.6,0.7c0.8,0.4,1.2,1,1.2,1.6
		C-41.3,266.6-41.5,267.2-41.9,267.7z"/>
	<path class="st5" d="M-38,263v-8.6h1.3v8.3c0,0.6,0.1,1,0.4,1.2c0.3,0.3,0.6,0.4,1,0.4v1.4c-0.4,0-0.8-0.1-1.1-0.2
		c-0.3-0.1-0.6-0.2-0.8-0.4c-0.2-0.2-0.4-0.4-0.5-0.6C-37.9,264.1-38,263.6-38,263z"/>
	<path class="st5" d="M-35.5,265.7c-0.2,0-0.3-0.1-0.4-0.2s-0.1-0.3-0.1-0.5s0-0.4,0.1-0.5s0.2-0.2,0.4-0.2h3.5v1.4L-35.5,265.7
		L-35.5,265.7z"/>
	<path class="st5" d="M-32.5,265.5c-0.1-0.1-0.2-0.3-0.2-0.5s0.1-0.4,0.2-0.5c0.1-0.1,0.3-0.2,0.5-0.2h1.4c0.4,0,0.7,0,1-0.1
		c-0.8-0.6-1.2-1.2-1.2-2c0-0.7,0.3-1.3,0.8-2c0.3-0.3,0.6-0.6,0.9-0.8c-0.3-0.1-0.4-0.2-0.5-0.2l0.4-1.3c0.8,0.3,1.6,0.7,2.3,1.1
		s1.3,0.7,1.7,1s0.7,0.6,1.1,0.9c0.8,0.7,1.2,1.5,1.2,2.4c0,0.8-0.3,1.5-1,2.3c-0.1,0.1-0.4,0.2-0.9,0.2s-1-0.1-1.6-0.2
		s-1.2-0.3-1.7-0.5c-0.7,0.5-1.4,0.7-2.2,0.7h-1.8C-32.2,265.7-32.3,265.7-32.5,265.5z M-29.5,262c0,0.5,0.5,0.9,1.5,1.4
		c0.5-0.5,0.8-1,0.8-1.6c0-0.5-0.1-0.8-0.2-1c-0.1-0.2-0.3-0.3-0.6-0.3s-0.5,0.1-0.8,0.4s-0.5,0.6-0.6,1
		C-29.5,261.9-29.5,262-29.5,262z M-24.9,264.3c0.3,0,0.4,0,0.5-0.1c0.2-0.3,0.4-0.6,0.4-0.9c0-0.7-0.7-1.5-2-2.3c0,0.2,0,0.4,0,0.6
		c0,0.8-0.3,1.6-0.8,2.4C-26,264.2-25.3,264.3-24.9,264.3z"/>
	<path class="st5" d="M-19.7,264c-0.4-0.3-0.6-0.7-0.6-1.2s0.3-1.1,0.8-1.8s1.2-1.2,2.1-1.8l-0.2-0.9l1.2-0.6l1.1,4.6
		c0.1,0.5,0.2,0.8,0.3,1c0.3,0.7,0.9,1,1.8,1v1.4c-1.4,0-2.3-0.5-2.8-1.4l0,0c-0.6,0.1-1.1,0.2-1.6,0.2
		C-18.6,264.5-19.2,264.3-19.7,264z M-19.1,262.6c0,0.2,0.1,0.3,0.3,0.4s0.5,0.1,0.8,0.1s0.8-0.1,1.4-0.1l-0.5-2.2
		C-18.4,261.5-19.1,262.1-19.1,262.6z"/>
	<path class="st5" d="M-14.1,265c0-0.2,0.1-0.3,0.2-0.5c0.1-0.1,0.3-0.2,0.5-0.2h2.3c1,0,1.5-0.4,1.5-1.3c0-0.2,0-0.5-0.1-0.9
		c-0.1-0.3-0.2-0.6-0.2-0.8c-0.1-0.2-0.2-0.4-0.3-0.8l1.3-0.5c0.4,1.1,0.7,2.2,0.7,3c0,1.7-0.9,2.6-2.8,2.6h-2.3
		c-0.2,0-0.3-0.1-0.5-0.2C-14,265.4-14.1,265.2-14.1,265z M-12.2,257.3c-0.1,0-0.1-0.1-0.1-0.2s0-0.2,0.1-0.2l0.8-0.8
		c0.1,0,0.1-0.1,0.2-0.1c0.1,0,0.1,0,0.2,0.1l0.8,0.8c0.1,0,0.1,0.1,0.1,0.2s0,0.2-0.1,0.2l-0.8,0.8c-0.1,0-0.1,0.1-0.2,0.1
		c-0.1,0-0.1,0-0.2-0.1L-12.2,257.3z"/>
	<path class="st5" d="M-5.7,263v-8.6h1.3v8.3c0,0.6,0.1,1,0.4,1.2c0.3,0.3,0.6,0.4,1,0.4v1.4c-0.4,0-0.8-0.1-1.1-0.2
		s-0.6-0.2-0.8-0.4c-0.2-0.2-0.4-0.4-0.5-0.6C-5.6,264.1-5.7,263.6-5.7,263z"/>
	<path class="st5" d="M-3.5,265.5c-0.1-0.1-0.2-0.3-0.2-0.5s0.1-0.3,0.2-0.5c0.1-0.1,0.3-0.2,0.5-0.2h1.4c0.5,0,0.9-0.1,1.2-0.4
		c0.3-0.2,0.5-0.5,0.6-0.9l0.4-1.7l1.3,0.3l-0.5,2.1c0.6,0.4,1.2,0.6,1.8,0.6c0.4,0,0.7-0.1,1-0.3c0.3-0.2,0.5-0.5,0.6-1l0.3-1.4
		l1.3,0.3L6,263.7c0.5,0.4,1,0.6,1.7,0.6c0.5,0,0.9-0.1,1.1-0.3c0.2-0.2,0.4-0.4,0.4-0.8c0-0.3,0-0.7-0.1-1s-0.3-0.9-0.5-1.5
		l1.3-0.6c0.2,0.7,0.4,1.3,0.5,1.7c0.1,0.4,0.1,0.9,0.1,1.3c0,0.9-0.3,1.5-0.8,1.9s-1.2,0.6-2.1,0.6c-0.5,0-0.9-0.1-1.4-0.2
		c-0.4-0.2-0.8-0.4-1-0.6c-0.5,0.6-1.2,0.8-2.1,0.8c-0.4,0-0.9-0.1-1.3-0.2S1,265,0.7,264.8c-0.6,0.6-1.3,0.9-2.1,0.9h-1.5
		C-3.2,265.7-3.4,265.7-3.5,265.5z"/>
	<path class="st5" d="M16.8,267.6c0.3-0.3,0.4-0.6,0.4-1s0-0.8-0.1-1.2c0-0.4-0.2-1-0.3-1.6c-0.2-0.7-0.4-1.2-0.7-1.7l1.1-0.9
		c0.6,1,1,2.1,1.1,3.2c0.1,0.5,0.1,0.9,0.1,1.2s0,0.6,0,1.1c0,0.4-0.1,0.8-0.3,1.2c-0.2,0.4-0.4,0.7-0.7,0.9
		c-0.3,0.3-0.7,0.5-1.1,0.7c-0.8,0.4-1.8,0.7-3.1,0.9l-0.5-1.3c1.1-0.1,2.1-0.4,2.9-0.7C16.1,268.2,16.5,267.9,16.8,267.6z"/>
	<path class="st5" d="M28.8,265.4c-0.6,0.2-1.1,0.3-1.7,0.3s-1-0.1-1.4-0.4c-0.7-0.5-1-1.2-1-2.2c0-0.5,0.1-1,0.3-1.5
		s0.5-0.9,0.9-1.2c0.4-0.3,0.9-0.5,1.4-0.5c1,0,1.7,0.4,2.1,1.2c0.5,0.8,0.7,2.1,0.7,3.9c0,0.8-0.3,1.5-0.8,2.3s-1.2,1.3-2.1,1.9
		c-0.9,0.5-1.8,0.9-2.9,1.2L24,269c1-0.3,2-0.7,3-1.4c0.5-0.3,0.9-0.7,1.2-1.1C28.6,266.3,28.8,265.8,28.8,265.4z M26.3,262
		c-0.2,0.3-0.3,0.7-0.3,1s0.1,0.7,0.3,0.9c0.2,0.2,0.5,0.4,0.9,0.4h0.1c0.3,0,0.6,0,0.9-0.1c0.3-0.1,0.5-0.2,0.6-0.3l0.1,0.3
		c-0.1-1.8-0.6-2.7-1.6-2.7C26.9,261.5,26.6,261.7,26.3,262z"/>
	<path class="st5" d="M45.3,267.7L45.3,267.7c-0.5,0.7-1.3,1.2-2.3,1.7c-1,0.4-2,0.6-3,0.6c-0.9,0-1.7-0.2-2.4-0.5
		c-0.7-0.4-1.3-0.9-1.5-1.6c-0.1-0.4-0.2-0.8-0.2-1.2c0-1.1,0.5-2.4,1.4-3.9l0.9,0.6c-0.6,1.1-0.9,2.1-0.9,3c0,0.5,0.1,1,0.4,1.3
		s0.6,0.6,1,0.7c0.4,0.1,0.9,0.2,1.4,0.2c0.9,0,1.8-0.2,2.6-0.5c0.9-0.4,1.5-0.8,1.8-1.3c0-0.1,0.1-0.2,0.1-0.3
		c0-0.1-0.1-0.2-0.1-0.3c-0.1-0.1-0.3-0.2-0.5-0.3c-0.2-0.1-0.4-0.2-0.6-0.3c-0.2-0.1-0.4-0.2-0.7-0.3c-0.3-0.1-0.5-0.2-0.6-0.2
		c-0.2-0.1-0.4-0.2-0.5-0.4c-0.1-0.2-0.2-0.5-0.2-0.8s0.1-0.7,0.4-1.2c0.4-0.8,0.9-1.4,1.5-1.9c0.5-0.5,1.1-0.7,1.6-0.7
		c0.9,0,1.7,0.6,2.3,1.9l-1,0.8c-0.3-0.4-0.5-0.8-0.8-1c-0.2-0.2-0.5-0.3-0.7-0.3c-0.2,0-0.5,0.1-0.7,0.3c-0.2,0.2-0.5,0.5-0.9,0.8
		c-0.3,0.4-0.5,0.6-0.5,0.9c0,0.1,0,0.2,0.1,0.2c0.1,0,0.1,0.1,0.2,0.1c0.1,0,0.1,0.1,0.3,0.1c0.8,0.3,1.3,0.5,1.6,0.7
		c0.8,0.4,1.2,1,1.2,1.6C45.9,266.6,45.7,267.2,45.3,267.7z"/>
	<path class="st5" d="M53.1,267.6c0.3-0.3,0.4-0.6,0.4-1s0-0.8-0.1-1.2c-0.1-0.4-0.2-1-0.3-1.6c-0.2-0.7-0.4-1.2-0.7-1.7l1.1-0.9
		c0.6,1,1,2.1,1.1,3.2c0.1,0.5,0.1,0.9,0.1,1.2s0,0.6,0,1.1c0,0.4-0.1,0.8-0.3,1.2c-0.2,0.4-0.4,0.7-0.7,0.9
		c-0.3,0.3-0.7,0.5-1.1,0.7c-0.8,0.4-1.8,0.7-3.1,0.9l-0.5-1.3c1.1-0.1,2.1-0.4,2.9-0.7C52.5,268.2,52.9,267.9,53.1,267.6z
		 M52.9,259c0-0.1,0-0.2,0.1-0.2l0.8-0.8c0.1,0,0.1-0.1,0.2-0.1s0.1,0,0.2,0.1l0.8,0.8c0.1,0,0.1,0.1,0.1,0.2s0,0.2-0.1,0.2
		l-0.8,0.8c-0.1,0-0.1,0.1-0.2,0.1s-0.1,0-0.2-0.1l-0.8-0.8C52.9,259.2,52.9,259.1,52.9,259z"/>
	<path class="st5" d="M56.9,263v-8.6h1.3v8.3c0,0.6,0.1,1,0.4,1.2c0.3,0.3,0.6,0.4,1,0.4v1.4c-0.4,0-0.8-0.1-1.1-0.2
		c-0.3-0.1-0.6-0.2-0.8-0.4c-0.2-0.2-0.4-0.4-0.5-0.6C57.1,264.1,56.9,263.6,56.9,263z"/>
	<path class="st5" d="M59.2,265.5c-0.1-0.1-0.2-0.3-0.2-0.5s0.1-0.3,0.2-0.5c0.1-0.1,0.3-0.2,0.5-0.2h1.8c0.3,0,0.7,0,1-0.1
		s0.6-0.1,0.9-0.2c0.3-0.1,0.5-0.2,0.9-0.4c0.3-0.2,0.6-0.3,0.8-0.4c0.2-0.1,0.5-0.3,0.8-0.5s0.6-0.4,0.7-0.5
		c-0.4-0.1-0.9-0.3-1.4-0.5s-0.9-0.4-1.3-0.5c-0.4-0.1-0.6-0.2-0.8-0.2c-0.4,0-0.9,0.4-1.5,1.1l-0.8-0.7c0.5-0.7,0.9-1.1,1.1-1.3
		c0.4-0.4,0.9-0.6,1.3-0.6c0.3,0,0.7,0.1,1.1,0.3c0.5,0.2,0.9,0.4,1.3,0.6s0.9,0.4,1.6,0.6c0.6,0.2,1.2,0.3,1.9,0.3h1.1l-0.3,1.4
		h-0.5c-0.3,0-0.6,0.1-0.9,0.1c0.1,0.5,0.4,0.9,0.8,1.2c0.4,0.3,1,0.4,1.8,0.4v1.4c-1.2,0-2-0.2-2.6-0.6c-0.6-0.4-0.9-1-1.1-1.9
		c-0.2,0.1-0.6,0.3-1,0.6c-0.4,0.3-0.8,0.5-1.1,0.7c-0.3,0.2-0.7,0.4-1.1,0.6c-0.4,0.2-0.9,0.4-1.3,0.5c-0.5,0.1-1,0.2-1.5,0.2h-1.8
		C59.5,265.7,59.3,265.7,59.2,265.5z M62,267.9l0.8-0.8c0.1,0,0.1-0.1,0.2-0.1s0.1,0,0.2,0.1l0.8,0.8c0.1,0,0.1,0.1,0.1,0.2
		s0,0.1-0.1,0.2l-0.8,0.8c-0.1,0.1-0.1,0.1-0.2,0.1s-0.1,0-0.2-0.1l-0.8-0.8c-0.1-0.1-0.1-0.1-0.1-0.2S62,267.9,62,267.9z"/>
	<path class="st5" d="M70.8,265.7c-0.2,0-0.3-0.1-0.4-0.2c-0.1-0.1-0.1-0.3-0.1-0.5s0-0.4,0.1-0.5c0.1-0.1,0.2-0.2,0.4-0.2h3.5v1.4
		L70.8,265.7L70.8,265.7z"/>
	<path class="st5" d="M73.6,265c0-0.2,0.1-0.4,0.2-0.5c0.1-0.1,0.3-0.2,0.5-0.2h0.3c0.2,0,0.5,0,0.7-0.1c0.2-0.1,0.4-0.1,0.6-0.2
		c0.2-0.1,0.3-0.2,0.5-0.3c0.1-0.1,0.3-0.2,0.4-0.4c0.1-0.1,0.2-0.3,0.3-0.4s0.2-0.3,0.2-0.4c0.1-0.1,0.1-0.3,0.2-0.5v-0.1
		c0.3-0.6,0.6-1,0.9-1.3s0.7-0.4,1.1-0.4c0.5,0,0.9,0.2,1.4,0.6c0.4,0.4,0.8,0.8,1.1,1.4s0.4,1.2,0.4,1.8c0,1.3-0.6,2-1.7,2
		c-0.3,0-0.6,0-0.9-0.1c-0.4-0.1-0.6-0.1-0.9-0.2c-0.2-0.1-0.5-0.2-1-0.3s-0.7-0.3-0.8-0.3c-0.5,0.5-1.3,0.7-2.3,0.7h-0.4
		c-0.2,0-0.3-0.1-0.5-0.2C73.6,265.4,73.6,265.2,73.6,265z M77.8,263.9c0,0,0.1,0,0.3,0.1s0.3,0.1,0.3,0.1s0.1,0,0.3,0.1
		c0.1,0.1,0.2,0.1,0.3,0.1c0.1,0,0.2,0,0.3,0.1c0.1,0,0.2,0.1,0.3,0.1c0.1,0,0.2,0,0.3,0.1s0.2,0,0.3,0c0.1,0,0.2,0,0.2,0
		c0.4,0,0.7-0.2,0.7-0.5c0-0.2-0.1-0.5-0.2-0.8c-0.2-0.4-0.4-0.7-0.6-1c-0.3-0.3-0.5-0.5-0.8-0.5c-0.2,0-0.5,0.3-0.8,0.8
		c-0.1,0.1-0.2,0.4-0.4,0.7C78,263.5,77.9,263.8,77.8,263.9z"/>
	<path class="st5" d="M97.8,267.7L97.8,267.7c-0.5,0.7-1.3,1.2-2.3,1.7c-1,0.4-2,0.6-3,0.6c-0.9,0-1.7-0.2-2.4-0.5
		c-0.7-0.4-1.3-0.9-1.5-1.6c-0.1-0.4-0.2-0.8-0.2-1.2c0-1.1,0.5-2.4,1.4-3.9l0.9,0.6c-0.6,1.1-0.9,2.1-0.9,3c0,0.5,0.1,1,0.4,1.3
		s0.6,0.6,1,0.7c0.4,0.1,0.9,0.2,1.4,0.2c0.9,0,1.8-0.2,2.6-0.5c0.9-0.4,1.5-0.8,1.8-1.3c0-0.1,0.1-0.2,0.1-0.3c0-0.1,0-0.2-0.1-0.3
		c-0.1-0.1-0.3-0.2-0.5-0.3c-0.2-0.1-0.4-0.2-0.6-0.3c-0.2-0.1-0.4-0.2-0.7-0.3c-0.3-0.1-0.5-0.2-0.6-0.2c-0.2-0.1-0.4-0.2-0.5-0.4
		s-0.2-0.5-0.2-0.8s0.1-0.7,0.4-1.2c0.4-0.8,0.9-1.4,1.5-1.9s1.1-0.7,1.6-0.7c0.9,0,1.7,0.6,2.3,1.9l-1,0.8c-0.3-0.4-0.5-0.8-0.8-1
		c-0.2-0.2-0.5-0.3-0.7-0.3s-0.5,0.1-0.7,0.3c-0.2,0.2-0.5,0.5-0.9,0.8c-0.3,0.4-0.5,0.6-0.5,0.9c0,0.1,0,0.2,0.1,0.2
		s0.1,0.1,0.2,0.1s0.1,0.1,0.3,0.1c0.8,0.3,1.3,0.5,1.6,0.7c0.8,0.4,1.2,1,1.2,1.6C98.4,266.6,98.2,267.2,97.8,267.7z"/>
	<path class="st5" d="M101.7,263v-8.6h1.3v8.3c0,0.6,0.1,1,0.4,1.2c0.3,0.3,0.6,0.4,1,0.4v1.4c-0.4,0-0.8-0.1-1.1-0.2
		c-0.3-0.1-0.6-0.2-0.8-0.4c-0.2-0.2-0.4-0.4-0.5-0.6C101.8,264.1,101.7,263.6,101.7,263z"/>
	<path class="st5" d="M104.2,265.7c-0.2,0-0.3-0.1-0.4-0.2s-0.1-0.3-0.1-0.5s0-0.4,0.1-0.5s0.2-0.2,0.4-0.2h3.5v1.4L104.2,265.7
		L104.2,265.7z"/>
	<path class="st5" d="M107.2,265.5c-0.1-0.1-0.2-0.3-0.2-0.5s0.1-0.4,0.2-0.5s0.3-0.2,0.5-0.2h1.4c0.4,0,0.7,0,1-0.1
		c-0.8-0.6-1.2-1.2-1.2-2c0-0.7,0.3-1.3,0.8-2c0.3-0.3,0.6-0.6,0.9-0.8c-0.3-0.1-0.4-0.2-0.5-0.2l0.4-1.3c0.8,0.3,1.6,0.7,2.3,1.1
		c0.7,0.4,1.3,0.7,1.7,1c0.4,0.3,0.7,0.6,1.1,0.9c0.8,0.7,1.2,1.5,1.2,2.4c0,0.8-0.3,1.5-1,2.3c-0.1,0.1-0.4,0.2-0.9,0.2
		s-1-0.1-1.6-0.2s-1.2-0.3-1.7-0.5c-0.7,0.5-1.4,0.7-2.2,0.7h-1.7C107.5,265.7,107.3,265.7,107.2,265.5z M110.2,262
		c0,0.5,0.5,0.9,1.5,1.4c0.5-0.5,0.8-1,0.8-1.6c0-0.5-0.1-0.8-0.2-1s-0.3-0.3-0.6-0.3s-0.5,0.1-0.8,0.4s-0.5,0.6-0.6,1
		C110.2,261.9,110.2,262,110.2,262z M114.8,264.3c0.3,0,0.4,0,0.5-0.1c0.2-0.3,0.4-0.6,0.4-0.9c0-0.7-0.7-1.5-2-2.3
		c0,0.2,0,0.4,0,0.6c0,0.8-0.3,1.6-0.8,2.4C113.7,264.2,114.3,264.3,114.8,264.3z"/>
	<path class="st5" d="M131.5,264.3h0.5v1.4c-0.5,0-0.9,0-1.1,0c-0.3,0-0.6-0.1-1-0.1c-0.4-0.1-0.7-0.2-1-0.3c-0.5,0.3-1.2,0.5-2,0.5
		h-4.5c-0.9,0-1.9-0.2-2.9-0.7l0.6-1.3c0.5,0.3,0.9,0.4,1.5,0.5c0.4-0.5,0.8-0.9,1-1.2v-8.6h1.3v7.3c1.4-1.3,2.5-2,3.4-2.1
		c0.1,0,0.3,0,0.4,0c0.8,0,1.4,0.3,2,0.9c0.5,0.6,0.8,1.3,0.8,2.1c0,0.6-0.2,1.2-0.5,1.7C130.2,264.3,130.7,264.3,131.5,264.3z
		 M126.4,264.3c0.6,0,1.1-0.1,1.6-0.3c0.4-0.2,0.8-0.4,1-0.6c0-0.2,0.1-0.3,0.1-0.4c0-0.5-0.2-0.9-0.5-1.2c-0.3-0.4-0.8-0.6-1.2-0.6
		c-0.4,0-0.8,0.1-1.2,0.3c-0.4,0.2-0.9,0.5-1.3,0.8c-0.7,0.6-1.4,1.2-2,1.9h3.5V264.3z"/>
	<path class="st5" d="M131.3,265c0-0.2,0.1-0.4,0.2-0.5s0.3-0.2,0.5-0.2h2.1c0.6,0,1.1-0.1,1.4-0.4s0.4-0.7,0.4-1.3v-1.4h1.3v1.4
		c0,0.6,0.2,1,0.5,1.3c0.3,0.3,0.8,0.4,1.3,0.4h0.2v1.4h-0.3c-0.7,0-1.2-0.1-1.6-0.3c-0.4-0.2-0.6-0.5-0.8-0.8
		c-0.1,0.3-0.3,0.6-0.7,0.8c-0.4,0.2-0.9,0.3-1.5,0.3H132c-0.2,0-0.3-0.1-0.5-0.2C131.3,265.4,131.3,265.2,131.3,265z M132,267.8
		l0.7-0.7c0,0,0.1-0.1,0.2-0.1s0.1,0,0.2,0.1l0.7,0.7c0,0,0.1,0.1,0.1,0.2s0,0.1-0.1,0.2l-0.7,0.7c0,0-0.1,0.1-0.2,0.1
		s-0.1,0-0.2-0.1l-0.7-0.7c0,0-0.1-0.1-0.1-0.2S131.9,267.9,132,267.8z M134.1,267.8l0.7-0.7c0,0,0.1-0.1,0.2-0.1
		c0.1,0,0.1,0,0.2,0.1l0.7,0.7c0,0,0.1,0.1,0.1,0.2s0,0.1-0.1,0.2l-0.7,0.7c0,0-0.1,0.1-0.2,0.1c-0.1,0-0.1,0-0.2-0.1l-0.7-0.7
		c0,0-0.1-0.1-0.1-0.2S134,267.9,134.1,267.8z"/>
	<path class="st5" d="M138.6,265.5c-0.1-0.1-0.2-0.3-0.2-0.5s0.1-0.3,0.2-0.5c0.1-0.1,0.3-0.2,0.5-0.2h1.8c1.1,0,2.3-0.4,3.6-1.2
		c0.2-0.1,0.5-0.3,0.8-0.5s0.6-0.4,0.7-0.5c-0.4-0.1-0.9-0.3-1.4-0.5s-0.9-0.4-1.3-0.5c-0.3-0.1-0.6-0.2-0.8-0.2
		c-0.4,0-0.9,0.4-1.5,1.1l-0.8-0.7c0.5-0.7,0.9-1.1,1.1-1.3c0.4-0.4,0.9-0.6,1.3-0.6c0.5,0,1.3,0.3,2.4,0.9c0.4,0.2,0.9,0.4,1.6,0.6
		c0.6,0.2,1.2,0.3,1.9,0.3h1.1l-0.3,1.4h-0.6c-0.3,0-0.6,0.1-0.9,0.1c0.1,0.5,0.4,0.9,0.8,1.2s1,0.4,1.8,0.4v1.4
		c-1.2,0-2-0.2-2.6-0.6c-0.6-0.4-0.9-1-1.1-1.9c-0.2,0.1-0.6,0.3-1,0.6s-0.8,0.5-1.1,0.7c-0.3,0.2-0.7,0.4-1.1,0.6
		c-0.9,0.4-1.8,0.6-2.8,0.6h-1.8C138.9,265.7,138.8,265.7,138.6,265.5z"/>
	<path class="st5" d="M150.3,265.7c-0.2,0-0.3-0.1-0.4-0.2c-0.1-0.1-0.1-0.3-0.1-0.5s0-0.4,0.1-0.5c0.1-0.1,0.2-0.2,0.4-0.2h3.5v1.4
		L150.3,265.7L150.3,265.7z"/>
	<path class="st5" d="M153,265c0-0.2,0.1-0.4,0.2-0.5s0.3-0.2,0.5-0.2h0.3c0.2,0,0.5,0,0.7-0.1c0.2,0,0.4-0.1,0.6-0.2
		c0.2-0.1,0.3-0.2,0.5-0.3c0.1-0.1,0.3-0.2,0.4-0.4c0.1-0.1,0.2-0.3,0.3-0.4s0.2-0.3,0.2-0.4c0.1-0.1,0.1-0.3,0.2-0.5v-0.1
		c0.3-0.6,0.6-1,0.9-1.3s0.7-0.4,1.1-0.4c0.5,0,0.9,0.2,1.4,0.6c0.4,0.4,0.8,0.8,1.1,1.4s0.4,1.2,0.4,1.8c0,1.3-0.6,2-1.7,2
		c-0.3,0-0.6,0-0.9-0.1s-0.6-0.1-0.9-0.2c-0.2-0.1-0.5-0.2-1-0.3c-0.5-0.1-0.7-0.3-0.8-0.3c-0.5,0.5-1.3,0.7-2.3,0.7h-0.5
		c-0.2,0-0.3-0.1-0.5-0.2C153.1,265.4,153,265.2,153,265z M157.3,263.9c0,0,0.1,0,0.3,0.1s0.3,0.1,0.3,0.1s0.1,0,0.3,0.1
		c0.1,0.1,0.2,0.1,0.3,0.1s0.2,0,0.3,0.1c0.1,0,0.2,0.1,0.3,0.1s0.2,0,0.3,0.1s0.2,0,0.3,0s0.2,0,0.2,0c0.4,0,0.7-0.2,0.7-0.5
		c0-0.2-0.1-0.5-0.2-0.8s-0.4-0.7-0.6-1c-0.3-0.3-0.5-0.5-0.8-0.5c-0.2,0-0.5,0.3-0.8,0.8c-0.1,0.1-0.2,0.4-0.4,0.7
		S157.4,263.8,157.3,263.9z"/>
	<path class="st5" d="M171.7,267.6c0.3-0.3,0.4-0.6,0.4-1s0-0.8-0.1-1.2s-0.2-1-0.3-1.6c-0.2-0.7-0.4-1.2-0.7-1.7l1.1-0.9
		c0.6,1,1,2.1,1.1,3.2c0.1,0.5,0.1,0.9,0.1,1.2s0,0.6,0,1.1c0,0.4-0.1,0.8-0.3,1.2c-0.2,0.4-0.4,0.7-0.7,0.9
		c-0.3,0.3-0.7,0.5-1.1,0.7c-0.8,0.4-1.8,0.7-3.1,0.9l-0.4-1.4c1.1-0.1,2.1-0.4,2.9-0.7C171.1,268.2,171.4,267.9,171.7,267.6z"/>
	<path class="st5" d="M178.4,264.3c1,0,1.8-0.3,2.3-0.9c-0.1-1.1-0.9-2.5-2.4-4.1l1-0.9c0.6,0.6,1.1,1.3,1.7,2.1
		c0.3,0.5,0.5,0.9,0.7,1.5s0.3,1,0.3,1.5c0,0.2-0.1,0.5-0.4,0.9c-0.1,0.1-0.1,0.1-0.1,0.2c-0.8,0.8-1.9,1.2-3.1,1.2
		c-1,0-1.9-0.3-2.9-0.8l0.6-1.3C176.7,264.1,177.5,264.3,178.4,264.3z"/>
</g>
<g>
	<path class="st6" d="M173.1,41.3c9.5-9.6,17-20.8,23.2-33.2c0,0.2,0,0.3,0,0.4c0,10.9,0,21.8,0,32.7c0,0.4-0.1,0.5-0.4,0.6
		c-1.1,0.4-1.8,1.2-1.9,2.6c-0.1,1.3,0.3,2.3,1.4,3.1c0.7,0.5,1.5,0.6,2.3,0.3c1.3-0.4,2.1-1.5,2-3.2c-0.1-1.6-0.8-2.5-2.2-2.9
		c-0.1,0-0.2-0.2-0.2-0.3s0-0.2,0-0.4c0-3.1,0.3-6.1,0.2-9.2c0-7.7,0.2-15.5,0.2-23.2c0-0.1,0-0.3,0-0.5c0.5,1.2,1,2.2,1.5,3.3
		c0.7,1.3,1.4,2.7,2.1,4c1.7,2.8,3.3,5.6,5.1,8.4c1.8,2.7,3.7,5.3,5.5,7.9c2.1,2.9,4.4,5.5,6.9,7.9c0.6,0.6,1.1,1.1,1.7,1.7
		c-1.5,1.8-2.5,3.9-3.3,6.1c-1.1,2.9-1.9,5.8-2.6,8.8c-1.2,5.4-2.1,10.8-2.8,16.3c-0.2,1.6-0.4,3.3-0.6,4.9c0,0.2-0.1,0.4-0.3,0.4
		c-3.3,0-6.6,0-10,0c0,0-0.1,0-0.2-0.1c0.1-0.1,0.1-0.3,0.2-0.4c0.7-1.9,1.4-3.7,1.9-5.6c0.6-2.2,0.9-4.5,0.8-6.8
		c-0.1-3.1-0.9-6-2.9-8.4c-1-1.3-2.3-2.1-3.9-2.3c-1-0.1-1.7,0.3-2.2,1.1c-1.8,2.2-3,4.7-4.1,7.3c-0.4,1.1-0.8,2.2-1.2,3.3
		c-0.7,2.3,0.5,4.5,2.8,4.9c1,0.2,2,0.1,3-0.4c0.5-0.3,1-0.2,1.4,0.4c0.6,0.7,1.1,1.5,1.6,2.3c0.3,0.6,0.3,1.1,0,1.7
		c-0.6,1-1.4,1.9-2.2,2.6c-0.1,0.1-0.3,0.1-0.4,0.1c-4.3,0-8.7,0-13,0c-0.3,0-0.4-0.1-0.4-0.4c-0.5-4.6-1.1-9.2-2-13.8
		c-0.5-2.6-1.1-5.1-1.6-7.6c-0.6-2.7-1.5-5.4-2.4-8C175.4,45.5,174.4,43.3,173.1,41.3z"/>
	<path class="st6" d="M178.7,100c0,0,0-0.3,0-0.5c0-3.6-0.1-7.2-0.1-10.7c0-1.2,0.4-1.8,1.5-1.8c11.2,0,22.4,0,33.6,0
		c1.1,0,1.6,0.6,1.6,1.7c0,3.6,0,7.2,0,10.8c0,0.1,0,0.4,0,0.4C203,100,191.2,100,178.7,100z"/>
	<path class="st6" d="M223.7,36.5c-0.8,1.2-1.5,2.3-2.3,3.4c-0.2-0.1-0.3-0.3-0.5-0.4c-2.6-2.2-4.8-4.7-6.9-7.4
		c-1.8-2.4-3.6-4.8-5.2-7.3c-1.8-2.8-3.6-5.6-5.3-8.4c-1.5-2.5-2.9-5.1-4.3-7.7c-0.6-1-1-2.1-1.5-3.2c-0.1-0.3-0.3-0.3-0.5-0.3
		c-1,0-1,0-1.4,0.9c-1.5,3.3-3.1,6.5-5,9.6c-1.6,2.7-3.3,5.4-5,8c-1.8,2.7-3.8,5.3-5.7,7.9c-2,2.8-4.3,5.2-6.7,7.6
		c-0.2,0.2-0.5,0.5-0.7,0.7c-0.8-1.1-1.7-2.1-2.5-3.2c0.8-0.7,1.6-1.4,2.3-2.1c0.9-0.8,1.8-1.6,2.5-2.5c2.2-2.6,4.4-5.2,6.5-7.9
		c1.8-2.4,3.5-4.9,5.2-7.4c1.8-2.7,3.4-5.4,5-8.2c1.5-2.5,2.8-5.2,4.1-7.8c0.3-0.6,0.6-0.8,1.2-0.8c0.5,0,0.7,0.3,0.9,0.7
		c1,1.8,1.9,3.6,3,5.4c1.9,3.3,3.8,6.6,5.9,9.8c1.6,2.5,3.3,4.9,5,7.2c2.1,3,4.5,5.8,7.1,8.5C220.5,33.2,222.1,34.8,223.7,36.5
		C223.6,36.4,223.6,36.5,223.7,36.5z"/>
	<path class="st6" d="M179.4,86c0-1.1,0.5-1.4,1.2-1.5c0.1,0,0.2-0.1,0.3-0.1c10.7,0,21.3,0.1,32,0.1c0.9,0,1.4,0.4,1.5,1.4
		C202.7,86,191.1,86,179.4,86z"/>
	<path class="st6" d="M181,81.1c0-1.1,0.5-1.6,1.3-1.6c9.8,0,19.6,0.1,29.4,0.1c0.7,0,1.2,0.4,1.3,1.5
		C202.2,81.1,191.6,81.1,181,81.1z"/>
	<path class="st6" d="M180.2,83.3c0.1-1.1,0.5-1.4,1.3-1.4c10.3,0,20.5,0,30.8,0c0.8,0,1.2,0.3,1.3,1.4
		C202.5,83.3,191.3,83.3,180.2,83.3z"/>
</g>
<g>
	<polygon class="st7" points="20,54.7 24,57.7 28.2,53.3 23.6,50 19.5,54.2 15.7,51.2 11.5,55.5 15.7,58.9 	"/>
	<path class="st7" d="M45.3,52.5l-2.7,4.3c1.2,1.5,2.1,3.1,2.7,4.8c-0.7,0.2-1.9,0.3-3.6,0.3c-0.7,0-1.8-0.1-3.2-0.1
		c-1.4-0.1-2.5-0.1-3.2-0.1h-1.4c0-0.1,0-0.3,0-0.4c0-3.1-1-5.7-3-7.7c-0.2-0.2-0.3-0.2-0.5,0l-3,4c1.9,2,3.1,3.7,3.5,5.2
		c-4.9,0.7-9.1,1.2-12.6,1.2c-5.5,0-8.3-1.8-8.3-5.3c0-0.7,0.1-1.4,0.3-2.1c0.1-0.4,0.1-0.7,0.1-1c0-0.2-0.1-0.3-0.1-0.3
		c-0.2,0-0.5,0.3-1,1.1c-1.4,2.2-2.1,4.2-2.1,5.8c0,2.4,1,4.2,2.9,5.4c1.6,1.1,3.7,1.6,6.2,1.6c1.4,0,11-0.5,16.8-2
		c1.5,0.6,15.1,1.2,16.2-0.7c0.1-0.1,0.1-1.1,0.1-2.9c0-4.3-1.1-8-3.3-11C45.7,52.1,45.5,52.1,45.3,52.5z"/>
	<polygon class="st7" points="43.6,50.6 39.2,47.2 35,51.5 39.3,55 	"/>
	<path class="st7" d="M80.1,48.5l4.1-4.2L79.5,41l-4.2,4.3l4.2,3.1c-1,0.1-2.2,1.2-3.8,3.3s-2.3,3.7-2.3,4.8c0,1.1,0.7,2.1,2.2,3.1
		c1,0.7,2.7,1.5,5.1,2.5c-1.2,0-8.9,0-10.1,0c0-2.5-0.8-5.2-2.3-7.2c-1.3-1.8-2.4-2.7-3.3-2.7c-1.4,0-2.8,1.4-4,4.1
		c-1.1,2.3-1.6,4.4-1.6,6.1c0,2.9,2.7,4.6,8.2,4.9c-0.8,1.9-2.1,3.5-3.9,4.7C62,73.2,60,73.8,58,73.8c-2.1,0-4-0.5-5.6-1.5
		C52,72.1,51.8,72,51.6,72c-0.1,0-0.2,0.1-0.2,0.2c0,0.2,0.1,0.4,0.3,0.7c1.2,1.6,2.5,2.9,3.9,4c1.8,1.4,3.5,2,5,2
		c2.7,0,5.2-1.6,7.2-4.9c1.4-2.2,2.2-4.3,2.7-6.6c0,0,8.1,0,8.8,0c3.5,0,4.4-0.4,5-1.2c0.7-1.1,1.1-3.4,1.1-6.9c0-3-0.7-5.6-2-7.8
		C82.3,49.7,81.2,48.7,80.1,48.5z M62,60.3c0.6-1.5,1.2-2.2,2-2.2c0.5,0,1.2,0.5,2,1.5c0.5,0.7,1,1.4,1.4,2.2
		C65.3,61.8,63.5,61.3,62,60.3z M75.6,54.6c1.2-1.7,2.3-2.5,3.4-2.5c0.7,0,1.5,0.7,2.3,2.2c0.6,1.2,1.2,2.5,1.6,4.1
		C79.8,57,77.3,55.7,75.6,54.6z"/>
</g>
<g>
	<polygon class="st7" points="111.4,44.8 107.2,49.1 111.8,52.5 116.1,48.2 	"/>
	<path class="st7" d="M117.9,53.2l-2.7,4.3c1.2,1.5,2.1,3.1,2.7,4.8c-0.7,0.2-1.9,0.3-3.6,0.3c-0.7,0-1.8-0.1-3.2-0.1
		c-1.4-0.1-2.5-0.1-3.2-0.1H105c-0.5-0.1-0.9-0.2-1-0.5c-0.3-0.4-0.4-1.4-0.5-3c-0.3-6.5-0.5-10-0.7-10.6c-1.1,1-2,1.8-2.7,2.5
		l0.1,2L97.4,54c-1.3,0.5-2.1,0.9-2.4,1.1c-0.6,0.5-1.4,1.6-2.2,3.3c-0.8,1.6-1.2,2.8-1.2,3.4c0,1.1,0.8,2,2.5,2.7
		c1.4,0.6,3.1,1,4.8,1c0.4-0.1,1.2-1.4,2.1-3.7c0.3,2,0.7,3.4,1.1,4.2c0.5,1.2,1.4,1.8,2.6,1.8h11.5l4.2-0.1
		c0.8-0.1,1.4-0.8,1.5-1.6c0-0.4,0-1.4,0-1.9c0-4.3-1.1-8-3.3-11C118.3,52.9,118.1,52.9,117.9,53.2z M95,58.6
		c0.9-1.4,2.8-2.5,5.6-3.3c0.1,2.7,0.2,4.4,0.3,5.2C98.2,60.5,96.3,59.9,95,58.6z"/>
	<path class="st7" d="M158.4,66.9v-4.5c-1.1,0-2.4-0.7-4-2.3c-2.7-2.7-4.2-4.1-4.5-4.3c-1.5-1.2-3-1.8-4.6-2.2l3.7-3.8l-4.6-3.2
		l-4.2,4.3l3.6,2.6c-0.1,0-0.1,0-0.1,0c-2.4,0-4.4,1.2-6.1,3.5c-0.2,0.3-0.3,0.5-0.3,0.8s0.1,0.4,0.5,0.4c0.1,0,0.3-0.1,0.5-0.1
		c1.6-0.5,2.7-0.9,3.5-0.9c2.5,0,5.3,1.8,8.4,5.6l-18.3-0.1c-0.8-0.1-1.4-0.7-1.6-1.1c-0.2-1-0.3-1.8-0.3-2.4l-0.6-16.3
		c0-0.3-0.1-0.5-0.2-0.5c-0.2,0.1-0.3,0.2-0.5,0.3l-3.3,3.1l1.2,16.9c0.1,1.6,0.4,2.7,0.8,3.5c0.6,1.1,1.6,1.6,3.1,1.6
		c0,0,23.6,0.1,23.8,0.1c1.6-0.1,2.6-0.1,2.9-0.1C158,67.8,158.4,67.4,158.4,66.9L158.4,66.9z"/>
</g>
</svg>
