<?xml version="1.0" encoding="utf-8"?>
<!-- Generator: Adobe Illustrator 19.2.0, SVG Export Plug-In . SVG Version: 6.00 Build 0)  -->
<svg version="1.1" id="Layer_1" xmlns="http://www.w3.org/2000/svg" xmlns:xlink="http://www.w3.org/1999/xlink" x="0px" y="0px"
	 viewBox="0 0 316.7 292.7" style="enable-background:new 0 0 316.7 292.7;" xml:space="preserve">
<style type="text/css">
	.st0{opacity:0.87;}
	.st1{opacity:0.1091;fill:#999999;enable-background:new    ;}
	.st2{fill:#D34E79;}
	.st3{display:none;}
	.st4{display:inline;fill:#444444;}
	.st5{fill:#493000;}
</style>
<g class="st0">
	<g>
		<g>
			<path class="st1" d="M26,269.7c47.2,0,94.4,0.1,141.6,0.1c47.3,0,94.5-0.2,141.8,0.1c-0.2-0.7-0.5-1.3-1.1-1.8
				c-1.7-2-3.4-3.9-5.1-5.7c-1.7-1.9-3.5-3.8-5.2-5.6c-0.4-0.6-1-1-1.6-1.2c-4-0.2-8.1-0.4-12.1-0.5c-4.9-0.1-9.8,0-14.8,0.2
				c-6.3,0.3-12.6,0.2-19,0.1c-31.8-0.3-63.7-0.3-95.6-0.3c-16.3,0-32.7,0-49,0.1c-8.3,0-16.6,0.1-24.9,0.1
				c-7.4,0.1-14.8,0.2-22.2-0.1c-3.1-0.4-6.3-0.5-9.4-0.3c-3,0-6.1,0.1-9.1,0.1c-4.8,0.1-9.6,0.2-14.4-0.2
				c-3.9-0.3-7.7-0.5-11.6-0.8c0.1,0.7,0.4,1.4,0.9,1.9c1.5,2.1,3,4.2,4.5,6.3c1.5,2.1,3.1,4.1,4.7,6.1
				C24.8,269,25.3,269.5,26,269.7z"/>
			<path class="st1" d="M23.7,265.7c15.2,0.2,30.5,0.1,45.7,0.3c32,0.2,63.9,0,95.9,0c31.9,0,63.9,0,95.8,0.1c15.3,0,30.7-0.1,46,0
				c-0.1-0.7-0.4-1.2-0.9-1.7c-1.4-1.8-2.9-3.5-4.4-5.3c-1.5-1.7-3-3.4-4.5-5.1c-0.4-0.6-0.9-0.9-1.5-1.1c-4-0.2-8.1-0.4-12.1-0.5
				c-4.9-0.1-9.8-0.1-14.7,0.2c-6.3,0.3-12.6,0.2-19,0.1c-31.9-0.3-63.7-0.3-95.6-0.3c-16.3,0-32.7,0-49,0.1
				c-8.3,0-16.6,0.1-24.8,0.1c-7.4,0-14.8,0.3-22.2,0c-3.1-0.3-6.3-0.4-9.4-0.3c-3,0-6.1,0.1-9.1,0.1c-4.8,0.1-9.6,0.2-14.4-0.1
				c-3.9-0.3-7.8-0.5-11.6-0.7c0,0.7,0.3,1.3,0.7,1.8c1.2,1.9,2.5,3.8,3.8,5.7c1.3,1.9,2.6,3.7,4,5.5
				C22.6,265.1,23.1,265.5,23.7,265.7z"/>
			<path class="st1" d="M22,271.5c47.2,0.3,94.4,0.2,141.7,0.2c47.3,0,94.6-0.3,141.8,0.1c-0.3-0.7-0.7-1.2-1.3-1.5
				c-1.8-1.5-3.7-3-5.6-4.4c-1.9-1.4-3.8-2.8-5.7-4.2c-0.5-0.5-1.1-0.7-1.7-0.8c-4.1-0.2-8.2-0.4-12.3-0.5c-4.9-0.1-9.8,0-14.7,0.2
				c-6.3,0.3-12.6,0.2-18.9,0.1c-31.9-0.3-63.8-0.3-95.6-0.2c-16.3,0-32.6,0-49,0.1c-8.3,0-16.5,0.1-24.8,0.1
				c-7.4,0-14.8,0.2-22.2-0.1c-3.2-0.3-6.4-0.4-9.5-0.3c-3,0-6.1,0.1-9.1,0.1c-4.8,0.1-9.6,0.2-14.5-0.2c-4-0.3-7.9-0.5-11.9-0.7
				c0.2,0.7,0.6,1.2,1.2,1.6c1.7,1.7,3.4,3.3,5.2,4.8c1.7,1.6,3.5,3.1,5.3,4.7C20.8,271.2,21.3,271.5,22,271.5z"/>
			<path class="st1" d="M23.6,278.5c94.6,0.6,189.1-0.2,283.7,0.2c0.6,0.1,0.7-0.1,0.2-0.5c-1.3-0.8-2.6-1.5-4-2.1
				c-2.6-1.2-5.3-2.3-7.9-3.5c-1.4-0.7-2.8-1.2-4.2-1.5c-4.2-0.1-8.3-0.3-12.5-0.4c-4.9-0.1-9.7,0-14.6,0.2
				c-6.3,0.2-12.6,0.1-18.9,0.1c-31.9-0.2-63.8-0.2-95.7-0.2c-16.3,0-32.6,0-48.9,0.1c-15.7,0-31.3,0.5-47,0
				c-6.3-0.2-12.4-0.2-18.7-0.1c-4.8,0-9.7,0.1-14.5-0.2c-4.1-0.2-8.2-0.4-12.3-0.7c-0.6-0.1-0.7,0-0.2,0.5c1.2,0.9,2.5,1.7,3.9,2.3
				c2.5,1.4,5.1,2.7,7.6,4C20.9,277.4,22.2,278,23.6,278.5z"/>
			<path class="st1" d="M26.1,265.9c47.2,0.5,94.4,0.2,141.6,0.2c47.3,0,94.5-0.3,141.8,0.1c0-0.7-0.3-1.2-0.7-1.7
				c-1.3-1.8-2.5-3.6-3.9-5.4c-1.3-1.8-2.6-3.5-4-5.2c-0.3-0.6-0.8-1-1.3-1.1c-4-0.2-8.1-0.4-12.1-0.5c-4.9-0.1-9.8,0-14.7,0.2
				c-6.3,0.3-12.7,0.2-19,0.1c-31.8-0.2-63.7-0.2-95.5-0.2c-16.3,0-32.7,0-49,0.1c-8.3,0-16.6,0.1-24.9,0.1c-7.4,0-14.8,0.3-22.2,0
				c-3.1-0.3-6.2-0.4-9.4-0.3c-3,0-6.1,0.1-9.1,0.1c-4.8,0.1-9.6,0.2-14.4-0.1c-3.8-0.2-7.7-0.5-11.5-0.7c0,0.7,0.2,1.2,0.6,1.8
				c1.1,2,2.1,3.9,3.3,5.8c1.1,1.9,2.3,3.8,3.5,5.6C25.2,265.3,25.6,265.7,26.1,265.9z"/>
			<path class="st1" d="M23.2,262.6c15.3,1,30.6,0.6,45.9,0.7c32,0.2,64,0,95.9,0c31.9,0,63.8,0,95.8,0.1c15.3,0,30.7-0.1,46,0
				c0-0.6-0.2-1-0.6-1.4c-1-1.5-2.1-2.9-3.2-4.3c-1.1-1.4-2.2-2.8-3.4-4.2c-0.3-0.5-0.7-0.8-1.2-0.8c-4.1-0.1-8.1-0.3-12.2-0.4
				c-4.9-0.1-9.8-0.1-14.7,0.1c-6.3,0.2-12.7,0.2-19,0.1c-31.9-0.2-63.7-0.2-95.6-0.2c-16.3,0-32.7,0-49,0.1c-8.3,0-16.6,0-24.8,0.1
				c-7.4,0-14.9,0.3-22.3,0c-3.1-0.3-6.3-0.4-9.4-0.3c-3,0-6.1,0.1-9.1,0.1c-4.9,0.1-9.7,0.2-14.5,0c-4.1-0.2-8.1-0.8-12.2-1.4
				c-0.1,0.6,0.1,1.1,0.5,1.5c0.9,1.6,1.9,3.2,2.9,4.7c1,1.6,2,3.1,3,4.6C22.3,262.2,22.7,262.5,23.2,262.6z"/>
			<path class="st1" d="M23.8,261.9c15.2-0.1,30.3-0.1,45.5,0c32,0.2,64,0,96,0c47.2,0,94.5-0.2,141.7,0.1c0.1-0.4,0-0.8-0.3-1.1
				c-0.7-1.1-1.4-2.2-2.2-3.3c-0.6-0.8-2.1-3.6-3.3-3.7c-4.1-0.1-8.2-0.2-12.2-0.3c-4.9-0.1-9.7-0.1-14.6,0
				c-6.3,0.2-12.7,0.1-19,0.1c-31.9-0.1-63.7-0.1-95.6-0.1c-16.3,0-32.6,0-49,0c-8.3,0-16.5,0-24.8,0.1c-7.4,0-14.9,0.2-22.3,0.1
				c-6.2-0.1-12.3-0.3-18.4-0.2c-4.9,0.1-9.8,0.2-14.6,0.1c-4-0.1-7.9-0.4-11.9-0.7c-0.4,0,2.3,4.9,2.2,4.8
				C21.2,258.5,22.7,261.9,23.8,261.9z"/>
			<path class="st1" d="M24.1,271.1c47.2,0.1,94.4,0.1,141.7,0.1c47.3,0,94.6-0.2,141.8,0.1c-0.3-0.8-0.7-1.4-1.4-1.8
				c-2-1.9-4-3.8-6.1-5.6c-2-1.8-4.1-3.6-6.2-5.4c-0.5-0.6-1.2-1-1.9-1.1c-4.1-0.2-8.1-0.4-12.2-0.5c-4.9-0.1-9.8,0-14.7,0.2
				c-6.3,0.3-12.6,0.2-19,0.1c-31.9-0.3-63.7-0.3-95.6-0.3c-16.3,0-32.7,0-49,0.1c-8.3,0-16.6,0.1-24.8,0.1
				c-7.4,0.1-14.8,0.2-22.2-0.1c-3.2-0.4-6.3-0.5-9.5-0.3c-3,0-6.1,0.1-9.1,0.1c-4.8,0-9.6,0.1-14.4-0.3c-3.9-0.3-7.8-0.6-11.7-0.9
				c0.2,0.8,0.6,1.4,1.2,1.9c1.8,2.1,3.7,4.1,5.6,6.2c1.9,2,3.8,4,5.7,6C22.8,270.5,23.4,270.9,24.1,271.1z"/>
			<path class="st1" d="M21.9,265.1c15.2,0.4,30.5,0.2,45.7,0.3c32,0.2,64,0,95.9,0c31.9,0,63.9,0,95.8,0.1c15.3,0,30.7-0.1,46,0
				c0-0.6-0.3-1-0.7-1.4c-1.2-1.4-2.4-2.7-3.6-4.1c-1.2-1.3-2.5-2.6-3.8-3.9c-0.3-0.5-0.8-0.7-1.2-0.7c-4.1-0.1-8.1-0.3-12.2-0.4
				c-4.9-0.1-9.8-0.1-14.7,0.1c-6.3,0.2-12.6,0.2-19,0.1c-31.9-0.2-63.7-0.2-95.6-0.2c-16.3,0-32.7,0-49,0.1c-8.3,0-16.5,0-24.8,0.1
				c-7.4,0-14.9,0.3-22.3,0c-3.1-0.3-6.3-0.4-9.4-0.3c-3,0-6.1,0.1-9.1,0.1c-4.8,0.1-9.7,0.2-14.5,0c-4-0.2-8-0.6-12-1
				c0,0.6,0.2,1.1,0.6,1.5c1.1,1.5,2.2,3,3.3,4.5c1.1,1.5,2.3,2.9,3.4,4.3C21,264.8,21.4,265,21.9,265.1z"/>
			<path class="st1" d="M25.8,261.2c15.1-0.3,30.3-0.2,45.5-0.1c32,0.2,64,0,96,0c47.2,0,94.5-0.2,141.7,0.1c0.5,0-2.2-4.7-2.2-4.5
				c-0.5-0.8-1.9-3.8-3-3.8c-4.1-0.1-8.1-0.2-12.2-0.2c-11.2-0.2-22.4,0.2-33.6,0.1c-31.9-0.1-63.7-0.1-95.6-0.1
				c-16.3,0-32.6,0-49,0c-8.3,0-16.5,0-24.8,0c-7.4,0-14.9,0.2-22.3,0.1c-6.2-0.1-12.3-0.3-18.4-0.2c-4.9,0.1-9.8,0.2-14.6,0
				c-3.9-0.1-7.9-0.3-11.8-0.5c-0.5,0,1.8,5,1.8,4.9C23.5,257.5,24.8,261.2,25.8,261.2z"/>
			<path class="st1" d="M23.4,275.4c94.5,0.6,189.1-0.3,283.6,0.2c-0.4-0.7-0.9-1.2-1.6-1.5c-2.2-1.5-4.4-2.9-6.7-4.2
				c-2.2-1.4-4.5-2.7-6.8-4c-0.6-0.5-1.3-0.7-2-0.7c-4.1-0.2-8.2-0.4-12.4-0.5c-4.9-0.1-9.8,0-14.7,0.2c-6.3,0.3-12.6,0.2-18.9,0.1
				c-31.9-0.3-63.8-0.3-95.7-0.3c-16.3,0-32.6,0-49,0.1c-15.7,0-31.4,0.6-47,0c-3.2-0.3-6.4-0.4-9.6-0.3c-3,0-6,0.1-9.1,0.1
				c-4.8,0-9.6,0.1-14.4-0.2c-4-0.3-8-0.6-12.1-0.8c0.3,0.7,0.8,1.2,1.5,1.6c2.1,1.6,4.2,3.2,6.3,4.7c2.1,1.6,4.3,3.1,6.5,4.5
				C22,275.1,22.7,275.3,23.4,275.4z"/>
			<path class="st1" d="M23,268.1c47.2,0.3,94.4,0.2,141.6,0.2c31.9,0,63.9,0,95.8,0.1c15.3,0,30.7-0.1,46,0
				c-0.2-0.7-0.6-1.3-1.1-1.7c-1.7-1.8-3.5-3.6-5.2-5.4c-1.8-1.8-3.6-3.5-5.4-5.2c-0.5-0.6-1-0.9-1.7-1.1c-4.1-0.2-8.1-0.4-12.2-0.5
				c-4.9-0.1-9.8,0-14.7,0.2c-6.3,0.3-12.6,0.2-19,0.1c-31.9-0.3-63.7-0.3-95.6-0.3c-16.3,0-32.7,0-49,0.1c-8.3,0-16.6,0.1-24.8,0.1
				c-7.4,0.1-14.8,0.3-22.2-0.1c-3.1-0.3-6.3-0.5-9.5-0.3c-3,0-6.1,0.1-9.1,0.1c-4.8,0.1-9.6,0.2-14.4-0.2
				c-3.9-0.3-7.8-0.5-11.7-0.8c0.1,0.7,0.5,1.3,1,1.8c1.5,2,3.1,3.9,4.7,5.8c1.6,1.9,3.2,3.8,4.9,5.7
				C21.9,267.5,22.4,267.9,23,268.1z"/>
		</g>
	</g>
</g>
<g>
	<polygon class="st2" points="61,236.6 66.9,240.9 73.1,234.5 66.3,229.6 60.3,235.8 54.7,231.4 48.6,237.7 54.8,242.8 	"/>
	<path class="st2" d="M98.2,233.3l-3.9,6.3c1.8,2.2,3.1,4.6,3.9,7c-1,0.3-2.8,0.5-5.3,0.5c-1,0-2.6-0.1-4.7-0.2s-3.7-0.2-4.7-0.2h-2
		c0-0.2,0-0.4,0-0.6c0-4.5-1.5-8.3-4.4-11.3c-0.3-0.3-0.5-0.3-0.8,0l-4.4,5.8c2.8,2.9,4.5,5.4,5.1,7.6c-7.2,1.1-13.4,1.7-18.5,1.7
		c-8.1,0-12.2-2.6-12.2-7.8c0-1,0.1-2,0.4-3.1c0.2-0.6,0.2-1.1,0.2-1.5c0-0.3-0.1-0.4-0.2-0.4c-0.3,0-0.7,0.5-1.4,1.6
		c-2.1,3.2-3.1,6.1-3.1,8.5c0,3.5,1.4,6.2,4.2,8c2.4,1.6,5.4,2.3,9.1,2.3c2.1,0,16.1-0.7,24.6-3c2.2,0.9,22.1,1.7,23.8-1.1
		c0.1-0.2,0.2-1.6,0.2-4.2c0-6.3-1.6-11.7-4.9-16.2C98.8,232.8,98.5,232.8,98.2,233.3z"/>
	<polygon class="st2" points="95.7,230.6 89.2,225.6 83.1,231.9 89.4,237 	"/>
	<path class="st2" d="M149.3,227.5l6-6.1l-6.8-4.9l-6.1,6.3l6.2,4.6c-1.5,0.1-3.3,1.7-5.6,4.8c-2.3,3.1-3.4,5.5-3.4,7
		c0,1.6,1.1,3.1,3.2,4.5c1.5,1,4,2.2,7.5,3.7c-1.7,0-13.1,0-14.8,0c0-3.7-1.2-7.6-3.4-10.6c-1.9-2.6-3.5-3.9-4.9-3.9
		c-2.1,0-4.1,2-5.9,6c-1.6,3.4-2.4,6.4-2.4,9c0,4.3,4,6.7,12.1,7.2c-1.2,2.8-3.1,5.1-5.7,6.9c-2.6,1.8-5.5,2.6-8.5,2.6
		c-3.1,0-5.8-0.7-8.2-2.2c-0.5-0.3-0.9-0.5-1.2-0.5c-0.2,0-0.3,0.1-0.3,0.3c0,0.3,0.2,0.6,0.5,1.1c1.7,2.3,3.6,4.2,5.7,5.9
		c2.6,2,5.1,3,7.4,3c4,0,7.6-2.4,10.6-7.2c2.1-3.3,3.3-6.3,3.9-9.7c0,0,11.9,0,12.9,0c5.2,0,6.5-0.6,7.3-1.8c1-1.6,1.6-5,1.6-10.1
		c0-4.4-1-8.2-2.9-11.5C152.5,229.2,150.9,227.7,149.3,227.5z M122.7,244.8c0.9-2.2,1.8-3.2,2.9-3.2c0.8,0,1.8,0.7,2.9,2.2
		c0.8,1,1.5,2.1,2.1,3.3C127.6,247,125,246.2,122.7,244.8z M142.7,236.4c1.7-2.5,3.4-3.7,5-3.7c1,0,2.2,1.1,3.4,3.3
		c0.9,1.7,1.7,3.7,2.4,6C148.8,239.9,145.2,238,142.7,236.4z"/>
	<polygon class="st2" points="205.4,221 199.3,227.3 206,232.3 212.3,225.9 	"/>
	<path class="st2" d="M214.9,233.3l-3.9,6.3c1.8,2.2,3.1,4.6,3.9,7c-1,0.3-2.8,0.5-5.3,0.5c-1,0-2.6-0.1-4.7-0.2s-3.7-0.2-4.7-0.2
		H196c-0.8-0.1-1.3-0.3-1.5-0.7c-0.4-0.6-0.6-2.1-0.7-4.4c-0.4-9.5-0.8-14.7-1-15.5c-1.6,1.5-2.9,2.7-3.9,3.7l0.2,3l-4.2,1.7
		c-1.9,0.8-3.1,1.3-3.5,1.6c-0.9,0.7-2,2.3-3.2,4.8c-1.2,2.4-1.7,4.1-1.7,5c0,1.6,1.2,3,3.6,4c2.1,0.9,4.5,1.4,7,1.4
		c0.6-0.2,1.7-2,3.1-5.4c0.5,2.9,1,5,1.6,6.1c0.8,1.7,2.1,2.6,3.8,2.6h16.9l6.2-0.2c1.2-0.2,2.1-1.2,2.2-2.4c0-0.6,0-2,0-2.8
		c0-6.3-1.6-11.7-4.9-16.2C215.5,232.8,215.2,232.8,214.9,233.3z M181.3,241.2c1.3-2,4.1-3.6,8.2-4.9c0.2,4,0.3,6.5,0.4,7.7
		C186,244,183.2,243.1,181.3,241.2z"/>
	<path class="st2" d="M274.5,253.4v-6.6c-1.6,0-3.5-1.1-5.8-3.4c-4-3.9-6.1-6-6.6-6.3c-2.2-1.7-4.4-2.7-6.7-3.2l5.5-5.6l-6.7-4.7
		l-6.1,6.3l5.3,3.8c-0.1,0-0.1,0-0.2,0c-3.5,0-6.5,1.7-9,5.1c-0.3,0.5-0.5,0.8-0.5,1.2c0,0.4,0.2,0.6,0.7,0.6c0.2,0,0.5-0.1,0.8-0.2
		c2.3-0.8,4-1.3,5.2-1.3c3.7,0,7.8,2.7,12.3,8.2l-26.8-0.1c-1.2-0.1-2-1-2.4-1.6c-0.3-1.4-0.5-2.6-0.5-3.5l-0.9-24
		c0-0.5-0.1-0.8-0.3-0.8c-0.3,0.2-0.5,0.3-0.7,0.4l-4.8,4.5l1.7,24.8c0.2,2.3,0.6,4,1.2,5.1c0.9,1.6,2.4,2.3,4.5,2.3
		c0,0,34.7,0.2,34.9,0.2c2.3-0.1,3.8-0.1,4.2-0.2C273.9,254.7,274.5,254.2,274.5,253.4L274.5,253.4z"/>
</g>
<g class="st3">
	<path class="st4" d="M26.9,309.7c0-0.9,0.3-1.8,0.9-2.7c0.6-0.9,1.4-1.7,2.5-2.3l0.1,0.3l-0.1-0.3c-0.2-0.7-0.7-1-1.5-1
		c-0.1,0-0.4,0-0.6,0.1l-0.4-1.3c1.2-0.7,2.3-1,3.5-1c0.7,0,1.3,0.1,1.8,0.4c0.4,0.2,0.7,0.6,0.7,1c0,0.8-0.5,1.6-1.6,2.3
		c0.3,0.4,0.7,0.7,1.2,1c0.5,0.2,1.1,0.4,1.8,0.4h0.3v1.4H35c-0.9,0-1.6-0.2-2.3-0.6c-0.7-0.4-1.2-0.9-1.6-1.5
		c-0.1,0-0.2,0.1-0.3,0.1c-0.8,0.5-1.4,1-1.8,1.6c-0.4,0.6-0.6,1.3-0.6,1.9c0,0.8,0.3,1.4,0.9,1.9c0.6,0.5,1.4,0.8,2.5,0.8h0.1
		c0.9,0,2-0.2,3.4-0.5l0.2,1.1c-0.5,0.2-1.1,0.4-1.8,0.6c-0.7,0.2-1.3,0.3-1.8,0.3c-0.8,0-1.5-0.1-2.1-0.3s-1.1-0.5-1.5-0.9
		C27.3,311.7,26.9,310.8,26.9,309.7z"/>
	<path class="st4" d="M35.3,308c-0.2,0-0.3-0.1-0.4-0.2c-0.1-0.1-0.1-0.3-0.1-0.5s0-0.4,0.1-0.5c0.1-0.1,0.2-0.2,0.4-0.2h3.5v1.4
		L35.3,308L35.3,308z"/>
	<path class="st4" d="M38.6,308c-0.2,0-0.3-0.1-0.4-0.2c-0.1-0.1-0.1-0.3-0.1-0.5s0-0.4,0.1-0.5s0.2-0.2,0.4-0.2h3.5v1.4L38.6,308
		L38.6,308z"/>
	<path class="st4" d="M41.4,307.3c0-0.2,0.1-0.4,0.2-0.5c0.1-0.1,0.3-0.2,0.5-0.2h0.3c0.2,0,0.5,0,0.7-0.1c0.2,0,0.4-0.1,0.6-0.2
		c0.2-0.1,0.3-0.2,0.5-0.3c0.1-0.1,0.3-0.2,0.4-0.4c0.1-0.1,0.2-0.3,0.3-0.4s0.2-0.3,0.2-0.4c0.1-0.1,0.1-0.3,0.2-0.5
		c0,0,0-0.1,0-0.1c0.3-0.6,0.6-1,0.9-1.3s0.7-0.4,1.1-0.4c0.5,0,0.9,0.2,1.4,0.6c0.4,0.4,0.8,0.8,1.1,1.4c0.3,0.6,0.4,1.2,0.4,1.8
		c0,1.3-0.6,2-1.7,2c-0.3,0-0.6,0-0.9-0.1c-0.4-0.1-0.6-0.1-0.9-0.2c-0.2-0.1-0.5-0.2-1-0.3s-0.7-0.3-0.8-0.3
		c-0.5,0.5-1.3,0.7-2.3,0.7h-0.4c-0.2,0-0.3-0.1-0.5-0.2C41.5,307.6,41.4,307.5,41.4,307.3z M45.6,306.2c0,0,0.1,0,0.3,0.1
		c0.2,0.1,0.3,0.1,0.3,0.1c0,0,0.1,0,0.3,0.1c0.1,0.1,0.2,0.1,0.3,0.1c0.1,0,0.2,0,0.3,0.1c0.1,0,0.2,0.1,0.3,0.1
		c0.1,0,0.2,0,0.3,0.1s0.2,0,0.3,0c0.1,0,0.2,0,0.2,0c0.4,0,0.7-0.2,0.7-0.5c0-0.2-0.1-0.5-0.2-0.8c-0.2-0.4-0.4-0.7-0.6-1
		c-0.3-0.3-0.5-0.5-0.8-0.5c-0.2,0-0.5,0.3-0.8,0.8c-0.1,0.1-0.2,0.4-0.4,0.7C45.9,305.8,45.7,306,45.6,306.2z"/>
	<path class="st4" d="M52.5,305.2v-8.6h1.3v8.3c0,0.6,0.1,1,0.4,1.2s0.6,0.4,1,0.4v1.4c-0.4,0-0.8-0.1-1.1-0.2
		c-0.3-0.1-0.6-0.2-0.8-0.4s-0.4-0.4-0.5-0.6C52.7,306.4,52.5,305.8,52.5,305.2z"/>
	<path class="st4" d="M55.1,308c-0.2,0-0.3-0.1-0.4-0.2c-0.1-0.1-0.1-0.3-0.1-0.5s0-0.4,0.1-0.5c0.1-0.1,0.2-0.2,0.4-0.2h3.5v1.4
		L55.1,308L55.1,308z"/>
	<path class="st4" d="M58.4,308c-0.2,0-0.3-0.1-0.4-0.2c-0.1-0.1-0.1-0.3-0.1-0.5s0-0.4,0.1-0.5s0.2-0.2,0.4-0.2h3.5v1.4L58.4,308
		L58.4,308z"/>
	<path class="st4" d="M61.4,307.8c-0.1-0.1-0.2-0.3-0.2-0.5s0.1-0.3,0.2-0.5c0.1-0.1,0.3-0.2,0.5-0.2h1.8c0.3,0,0.7,0,1-0.1
		c0.3-0.1,0.6-0.1,0.9-0.2c0.3-0.1,0.5-0.2,0.9-0.4c0.3-0.2,0.6-0.3,0.8-0.4c0.2-0.1,0.5-0.3,0.8-0.5c0.3-0.2,0.6-0.4,0.7-0.5
		c-0.4-0.1-0.9-0.3-1.4-0.5c-0.5-0.2-0.9-0.4-1.3-0.5s-0.6-0.2-0.8-0.2c-0.4,0-0.9,0.4-1.5,1.1l-0.8-0.7c0.5-0.7,0.9-1.1,1.1-1.3
		c0.4-0.4,0.9-0.6,1.3-0.6c0.3,0,0.7,0.1,1.1,0.3c0.5,0.2,0.9,0.4,1.3,0.6c0.4,0.2,0.9,0.4,1.6,0.6s1.2,0.3,1.9,0.3h1.1l-0.3,1.4
		h-0.5c-0.3,0-0.6,0.1-1,0.2c-0.3,0.1-0.7,0.3-1,0.4c-0.3,0.2-0.6,0.4-1,0.6c-0.3,0.2-0.7,0.4-1.1,0.7s-0.7,0.4-1.1,0.6
		c-0.4,0.2-0.8,0.3-1.3,0.4c-0.5,0.1-1,0.2-1.5,0.2h-1.8C61.7,308,61.6,307.9,61.4,307.8z M64.3,310.1l0.8-0.8
		c0.1,0,0.1-0.1,0.2-0.1s0.1,0,0.2,0.1l0.8,0.8c0.1,0,0.1,0.1,0.1,0.2s0,0.1-0.1,0.2l-0.8,0.8c-0.1,0.1-0.1,0.1-0.2,0.1
		s-0.1,0-0.2-0.1l-0.8-0.8c-0.1-0.1-0.1-0.1-0.1-0.2C64.2,310.2,64.2,310.2,64.3,310.1z"/>
	<path class="st4" d="M88.4,308.9L88.4,308.9c-0.2,0.7-0.6,1.3-1.2,1.8c-0.6,0.5-1.3,0.9-2.1,1.1c-0.8,0.3-1.6,0.4-2.5,0.4
		c-0.9,0-1.7-0.2-2.4-0.5c-0.7-0.4-1.3-0.9-1.5-1.6c-0.1-0.4-0.2-0.8-0.2-1.2c0-1.1,0.5-2.4,1.4-3.9l0.9,0.6c-0.6,1.1-0.9,2.1-0.9,3
		c0,0.5,0.1,1,0.4,1.3c0.3,0.3,0.6,0.6,1,0.7c0.4,0.1,0.9,0.2,1.4,0.2c0.9,0,1.7-0.2,2.6-0.5c0.9-0.3,1.5-0.7,1.8-1.2
		c0.1-0.1,0.1-0.2,0.1-0.3c0-0.2-0.2-0.5-0.5-0.7s-0.8-0.4-1.4-0.6l0.4-1.4c1.5,0.4,2.8,0.6,4.1,0.6v1.4c-0.9,0-1.5-0.1-1.8-0.2
		c0.1,0.1,0.3,0.3,0.4,0.5C88.4,308.5,88.4,308.7,88.4,308.9z"/>
	<path class="st4" d="M89,307.3c0-0.2,0.1-0.3,0.2-0.5c0.1-0.1,0.3-0.2,0.5-0.2h2.3c1,0,1.5-0.4,1.5-1.3c0-0.2,0-0.5-0.1-0.9
		s-0.2-0.6-0.2-0.8c-0.1-0.2-0.2-0.4-0.3-0.8l1.3-0.5c0.4,1.1,0.7,2.2,0.7,3c0,1.7-0.9,2.6-2.8,2.6h-2.3c-0.2,0-0.3-0.1-0.5-0.2
		C89.1,307.6,89,307.5,89,307.3z M89.2,310.1l0.7-0.7c0.1,0,0.1-0.1,0.2-0.1s0.1,0,0.2,0.1l0.7,0.7c0.1,0,0.1,0.1,0.1,0.2
		s0,0.1-0.1,0.2l-0.7,0.7c-0.1,0-0.1,0.1-0.2,0.1c-0.1,0-0.1,0-0.2-0.1l-0.7-0.7c-0.1,0-0.1-0.1-0.1-0.2S89.2,310.2,89.2,310.1z
		 M91.4,310.1l0.7-0.7c0.1,0,0.1-0.1,0.2-0.1s0.1,0,0.2,0.1l0.7,0.7c0.1,0,0.1,0.1,0.1,0.2s0,0.1-0.1,0.2l-0.7,0.7
		c-0.1,0-0.1,0.1-0.2,0.1c-0.1,0-0.1,0-0.2-0.1l-0.7-0.7c-0.1,0-0.1-0.1-0.1-0.2S91.3,310.2,91.4,310.1z"/>
	<path class="st4" d="M97.4,305.2v-8.6h1.3v8.3c0,0.6,0.1,1,0.4,1.2s0.6,0.4,1,0.4v1.4c-0.4,0-0.8-0.1-1.1-0.2
		c-0.3-0.1-0.6-0.2-0.8-0.4s-0.4-0.4-0.5-0.6C97.5,306.4,97.4,305.8,97.4,305.2z"/>
	<path class="st4" d="M99.9,308c-0.2,0-0.3-0.1-0.4-0.2c-0.1-0.1-0.1-0.3-0.1-0.5s0-0.4,0.1-0.5c0.1-0.1,0.2-0.2,0.4-0.2h3.5v1.4
		L99.9,308L99.9,308z"/>
	<path class="st4" d="M103.2,308c-0.2,0-0.3-0.1-0.4-0.2c-0.1-0.1-0.1-0.3-0.1-0.5s0-0.4,0.1-0.5s0.2-0.2,0.4-0.2h3.5v1.4L103.2,308
		L103.2,308z"/>
	<path class="st4" d="M106.2,307.8c-0.1-0.1-0.2-0.3-0.2-0.5s0.1-0.4,0.2-0.5c0.1-0.1,0.3-0.2,0.5-0.2h1.4c0.4,0,0.7,0,1-0.1
		c-0.8-0.6-1.2-1.2-1.2-2c0-0.7,0.3-1.3,0.8-2c0.3-0.3,0.6-0.6,0.9-0.8c-0.3-0.1-0.4-0.2-0.5-0.2l0.4-1.3c0.8,0.3,1.6,0.7,2.3,1.1
		c0.7,0.4,1.3,0.7,1.7,1c0.4,0.3,0.7,0.6,1.1,0.9c0.8,0.7,1.2,1.5,1.2,2.4c0,0.8-0.3,1.5-1,2.3c-0.1,0.1-0.4,0.2-0.9,0.2
		s-1-0.1-1.6-0.2c-0.6-0.1-1.2-0.3-1.7-0.5c-0.7,0.5-1.4,0.7-2.2,0.7h-1.8C106.5,308,106.4,307.9,106.2,307.8z M109.2,304.3
		c0,0.5,0.5,0.9,1.5,1.4c0.5-0.5,0.8-1,0.8-1.6c0-0.5-0.1-0.8-0.2-1c-0.1-0.2-0.3-0.3-0.6-0.3c-0.3,0-0.5,0.1-0.8,0.4
		c-0.3,0.3-0.5,0.6-0.6,1C109.2,304.2,109.2,304.2,109.2,304.3z M113.8,306.5c0.3,0,0.4,0,0.5-0.1c0.2-0.3,0.4-0.6,0.4-0.9
		c0-0.7-0.7-1.5-2-2.3c0,0.2,0,0.4,0,0.6c0,0.8-0.3,1.6-0.8,2.4C112.7,306.4,113.4,306.5,113.8,306.5z"/>
	<path class="st4" d="M122.4,309.9c0.3-0.3,0.4-0.6,0.4-1s0-0.8-0.1-1.2c0-0.4-0.2-1-0.3-1.6c-0.2-0.7-0.4-1.2-0.7-1.7l1.1-0.9
		c0.6,1,1,2.1,1.1,3.2c0.1,0.5,0.1,0.9,0.1,1.2c0,0.3,0,0.6,0,1.1s-0.1,0.8-0.3,1.2c-0.2,0.4-0.4,0.7-0.7,0.9s-0.7,0.5-1.1,0.7
		c-0.8,0.4-1.8,0.7-3.1,0.9l-0.5-1.3c1.1-0.1,2.1-0.4,2.9-0.7C121.8,310.4,122.1,310.2,122.4,309.9z"/>
	<path class="st4" d="M126.2,305.2v-8.6h1.3v8.3c0,0.6,0.1,1,0.4,1.2c0.3,0.3,0.6,0.4,1,0.4v1.4c-0.4,0-0.8-0.1-1.1-0.2
		c-0.3-0.1-0.6-0.2-0.8-0.4s-0.4-0.4-0.5-0.6C126.3,306.4,126.2,305.8,126.2,305.2z"/>
	<path class="st4" d="M128.7,308c-0.2,0-0.3-0.1-0.4-0.2c-0.1-0.1-0.1-0.3-0.1-0.5s0-0.4,0.1-0.5c0.1-0.1,0.2-0.2,0.4-0.2h3.5v1.4
		L128.7,308L128.7,308z"/>
	<path class="st4" d="M132,308c-0.2,0-0.3-0.1-0.4-0.2c-0.1-0.1-0.1-0.3-0.1-0.5s0-0.4,0.1-0.5s0.2-0.2,0.4-0.2h3.5v1.4L132,308
		L132,308z"/>
	<path class="st4" d="M135.4,308c-0.2,0-0.3-0.1-0.4-0.2c-0.1-0.1-0.1-0.3-0.1-0.5s0-0.4,0.1-0.5c0.1-0.1,0.2-0.2,0.4-0.2h3.5v1.4
		L135.4,308L135.4,308z"/>
	<path class="st4" d="M138.7,308c-0.2,0-0.3-0.1-0.4-0.2c-0.1-0.1-0.1-0.3-0.1-0.5s0-0.4,0.1-0.5s0.2-0.2,0.4-0.2h3.5v1.4L138.7,308
		L138.7,308z"/>
	<path class="st4" d="M141.7,307.8c-0.1-0.1-0.2-0.3-0.2-0.5s0.1-0.3,0.2-0.5c0.1-0.1,0.3-0.2,0.5-0.2h2.1c0.8,0,1.4-0.1,1.8-0.3
		c0.3-0.2,0.5-0.5,0.5-0.8c0-0.9-0.6-1.9-1.9-2.9c-0.3-0.2-0.6-0.5-0.8-0.6c-0.2-0.1-0.5-0.4-1.1-0.7c0.1-0.7,0.2-1.2,0.3-1.4
		c0.1-0.2,0.3-0.4,0.5-0.6c0.7-0.5,1.6-0.9,2.6-1.4s2-0.9,2.9-1.2l0.5,1.3c-1.9,0.6-3.7,1.4-5.5,2.5c0.8,0.5,1.4,1,2,1.6
		c0.5,0.4,1,1.1,1.7,1.9c0.7,0.8,1.1,1.3,1.3,1.6c0.3,0.4,0.7,0.6,1,0.8c0.3,0.2,0.7,0.3,1,0.3v1.4c-1,0-1.8-0.3-2.4-0.9
		c-0.2-0.2-0.4-0.4-0.5-0.5c-0.1-0.2-0.3-0.4-0.5-0.7c-0.1,0.6-0.5,1.1-1.1,1.5c-0.6,0.4-1.3,0.6-2.3,0.6h-2.3
		C142,308,141.8,307.9,141.7,307.8z"/>
	<path class="st4" d="M150.8,307.8c-0.1-0.1-0.2-0.3-0.2-0.5s0.1-0.4,0.2-0.5c0.1-0.1,0.3-0.2,0.5-0.2h1.4c0.4,0,0.7,0,1-0.1
		c-0.8-0.6-1.2-1.2-1.2-2c0-0.7,0.3-1.3,0.8-2c0.3-0.3,0.6-0.6,0.9-0.8c-0.3-0.1-0.4-0.2-0.5-0.2l0.4-1.3c0.8,0.3,1.6,0.7,2.3,1.1
		c0.7,0.4,1.3,0.7,1.7,1c0.4,0.3,0.7,0.6,1.1,0.9c0.8,0.7,1.2,1.5,1.2,2.4c0,0.8-0.3,1.5-1,2.3c-0.1,0.1-0.4,0.2-0.9,0.2
		c-0.5,0-1-0.1-1.6-0.2c-0.6-0.1-1.2-0.3-1.7-0.5c-0.7,0.5-1.4,0.7-2.2,0.7h-1.8C151.1,308,150.9,307.9,150.8,307.8z M153.7,304.3
		c0,0.5,0.5,0.9,1.5,1.4c0.5-0.5,0.8-1,0.8-1.6c0-0.5-0.1-0.8-0.2-1s-0.3-0.3-0.6-0.3s-0.5,0.1-0.8,0.4c-0.3,0.3-0.5,0.6-0.6,1
		C153.8,304.2,153.7,304.2,153.7,304.3z M158.4,306.5c0.3,0,0.4,0,0.5-0.1c0.2-0.3,0.4-0.6,0.4-0.9c0-0.7-0.7-1.5-2-2.3
		c0,0.2,0,0.4,0,0.6c0,0.8-0.3,1.6-0.8,2.4C157.3,306.4,157.9,306.5,158.4,306.5z"/>
	<path class="st4" d="M162.9,308v-11.3h1.3V308H162.9z"/>
	<path class="st4" d="M170.3,309.9c0.3-0.3,0.4-0.6,0.4-1s0-0.8-0.1-1.2c0-0.4-0.2-1-0.3-1.6c-0.2-0.7-0.4-1.2-0.7-1.7l1.1-0.9
		c0.6,1,1,2.1,1.1,3.2c0.1,0.5,0.1,0.9,0.1,1.2c0,0.3,0,0.6,0,1.1s-0.1,0.8-0.3,1.2c-0.2,0.4-0.4,0.7-0.7,0.9s-0.7,0.5-1.1,0.7
		c-0.8,0.4-1.8,0.7-3.1,0.9l-0.5-1.3c1.1-0.1,2.1-0.4,2.9-0.7C169.7,310.4,170,310.2,170.3,309.9z"/>
	<path class="st4" d="M177.9,307.6c-0.2-0.3-0.3-0.6-0.3-1s0.1-0.8,0.4-1.3c0.2-0.5,0.6-0.9,1-1.3l0.5,0.5c-0.1,0.1-0.2,0.3-0.3,0.3
		c-0.1,0.1-0.2,0.2-0.2,0.4s-0.1,0.3-0.1,0.5c0,0.3,0.2,0.5,0.5,0.9c0.1,0.2,0.2,0.3,0.2,0.6s-0.1,0.4-0.3,0.6
		c-0.2,0.2-0.4,0.2-0.6,0.2C178.3,308,178.1,307.9,177.9,307.6z"/>
	<path class="st4" d="M191.2,310L191.2,310c-0.5,0.7-1.3,1.2-2.3,1.7s-2,0.6-3,0.6c-0.9,0-1.7-0.2-2.4-0.5c-0.7-0.4-1.3-0.9-1.5-1.6
		c-0.1-0.4-0.2-0.8-0.2-1.2c0-1.1,0.5-2.4,1.4-3.9l0.9,0.6c-0.6,1.1-0.9,2.1-0.9,3c0,0.5,0.1,1,0.4,1.3c0.3,0.3,0.6,0.6,1,0.7
		c0.4,0.1,0.9,0.2,1.4,0.2c0.9,0,1.8-0.2,2.6-0.5c0.9-0.4,1.5-0.8,1.8-1.3c0-0.1,0.1-0.2,0.1-0.3s-0.1-0.2-0.1-0.3
		c-0.1-0.1-0.3-0.2-0.5-0.3c-0.2-0.1-0.4-0.2-0.6-0.3c-0.2-0.1-0.4-0.2-0.7-0.3c-0.3-0.1-0.5-0.2-0.6-0.2c-0.2-0.1-0.4-0.2-0.5-0.4
		s-0.2-0.5-0.2-0.8s0.1-0.7,0.4-1.2c0.4-0.8,0.9-1.4,1.5-1.9s1.1-0.7,1.6-0.7c0.9,0,1.7,0.6,2.3,1.9l-1,0.8c-0.3-0.4-0.5-0.8-0.8-1
		s-0.5-0.3-0.7-0.3c-0.2,0-0.5,0.1-0.7,0.3c-0.2,0.2-0.5,0.5-0.9,0.8c-0.3,0.4-0.5,0.6-0.5,0.9c0,0.1,0,0.2,0.1,0.2
		c0.1,0.1,0.1,0.1,0.2,0.1c0.1,0,0.1,0.1,0.3,0.1c0.8,0.3,1.3,0.5,1.6,0.7c0.8,0.4,1.2,1,1.2,1.6C191.8,308.9,191.6,309.4,191.2,310
		z"/>
	<path class="st4" d="M199,309.9c0.3-0.3,0.4-0.6,0.4-1s0-0.8-0.1-1.2c0-0.4-0.2-1-0.3-1.6c-0.2-0.7-0.4-1.2-0.7-1.7l1.1-0.9
		c0.6,1,1,2.1,1.1,3.2c0.1,0.5,0.1,0.9,0.1,1.2c0,0.3,0,0.6,0,1.1s-0.1,0.8-0.3,1.2c-0.2,0.4-0.4,0.7-0.7,0.9s-0.7,0.5-1.1,0.7
		c-0.8,0.4-1.8,0.7-3.1,0.9l-0.5-1.3c1.1-0.1,2.1-0.4,2.9-0.7C198.4,310.4,198.8,310.2,199,309.9z M198.8,301.3c0-0.1,0-0.2,0.1-0.2
		l0.8-0.8c0.1,0,0.1-0.1,0.2-0.1s0.1,0,0.2,0.1l0.8,0.8c0.1,0,0.1,0.1,0.1,0.2s0,0.2-0.1,0.2l-0.8,0.8c-0.1,0-0.1,0.1-0.2,0.1
		s-0.1,0-0.2-0.1l-0.8-0.8C198.8,301.5,198.8,301.4,198.8,301.3z"/>
	<path class="st4" d="M202.8,305.2v-8.6h1.3v8.3c0,0.6,0.1,1,0.4,1.2s0.6,0.4,1,0.4v1.4c-0.4,0-0.8-0.1-1.1-0.2
		c-0.3-0.1-0.6-0.2-0.8-0.4s-0.4-0.4-0.5-0.6C202.9,306.4,202.8,305.8,202.8,305.2z"/>
	<path class="st4" d="M205,307.8c-0.1-0.1-0.2-0.3-0.2-0.5s0.1-0.3,0.2-0.5c0.1-0.1,0.3-0.2,0.5-0.2h1.8c0.3,0,0.7,0,1-0.1
		c0.3-0.1,0.6-0.1,0.9-0.2c0.3-0.1,0.5-0.2,0.9-0.4c0.3-0.2,0.6-0.3,0.8-0.4c0.2-0.1,0.5-0.3,0.8-0.5c0.3-0.2,0.6-0.4,0.7-0.5
		c-0.4-0.1-0.9-0.3-1.4-0.5c-0.5-0.2-0.9-0.4-1.3-0.5s-0.6-0.2-0.8-0.2c-0.4,0-0.9,0.4-1.5,1.1l-0.8-0.7c0.5-0.7,0.9-1.1,1.1-1.3
		c0.4-0.4,0.9-0.6,1.3-0.6c0.3,0,0.7,0.1,1.1,0.3c0.5,0.2,0.9,0.4,1.3,0.6c0.4,0.2,0.9,0.4,1.6,0.6c0.6,0.2,1.2,0.3,1.9,0.3h1.1
		l-0.3,1.4h-0.5c-0.3,0-0.6,0-0.9,0.1c0.1,0.5,0.4,0.9,0.8,1.2c0.4,0.3,1,0.4,1.8,0.4v1.4c-1.2,0-2-0.2-2.6-0.6
		c-0.6-0.4-0.9-1-1.1-1.9c-0.2,0.1-0.6,0.3-1,0.6c-0.4,0.3-0.8,0.5-1.1,0.7s-0.7,0.4-1.1,0.6s-0.9,0.4-1.3,0.5
		c-0.5,0.1-1,0.2-1.5,0.2h-1.8C205.3,308,205.2,307.9,205,307.8z M207.9,310.1l0.8-0.8c0.1,0,0.1-0.1,0.2-0.1s0.1,0,0.2,0.1l0.8,0.8
		c0.1,0,0.1,0.1,0.1,0.2s0,0.1-0.1,0.2l-0.8,0.8c-0.1,0.1-0.1,0.1-0.2,0.1s-0.1,0-0.2-0.1l-0.8-0.8c-0.1-0.1-0.1-0.1-0.1-0.2
		C207.8,310.2,207.8,310.2,207.9,310.1z"/>
	<path class="st4" d="M216.7,308c-0.2,0-0.3-0.1-0.4-0.2c-0.1-0.1-0.1-0.3-0.1-0.5s0-0.4,0.1-0.5c0.1-0.1,0.2-0.2,0.4-0.2h3.5v1.4
		L216.7,308L216.7,308z"/>
	<path class="st4" d="M220,308c-0.2,0-0.3-0.1-0.4-0.2c-0.1-0.1-0.1-0.3-0.1-0.5s0-0.4,0.1-0.5s0.2-0.2,0.4-0.2h3.5v1.4L220,308
		L220,308z"/>
	<path class="st4" d="M223.3,308c-0.2,0-0.3-0.1-0.4-0.2c-0.1-0.1-0.1-0.3-0.1-0.5s0-0.4,0.1-0.5c0.1-0.1,0.2-0.2,0.4-0.2h3.5v1.4
		L223.3,308L223.3,308z"/>
	<path class="st4" d="M226.1,307.3c0-0.2,0.1-0.4,0.2-0.5c0.1-0.1,0.3-0.2,0.5-0.2h0.3c0.2,0,0.5,0,0.7-0.1c0.2,0,0.4-0.1,0.6-0.2
		c0.2-0.1,0.3-0.2,0.5-0.3c0.1-0.1,0.3-0.2,0.4-0.4c0.1-0.1,0.2-0.3,0.3-0.4s0.2-0.3,0.2-0.4c0.1-0.1,0.1-0.3,0.2-0.5
		c0,0,0-0.1,0-0.1c0.3-0.6,0.6-1,0.9-1.3c0.4-0.3,0.7-0.4,1.1-0.4c0.5,0,0.9,0.2,1.4,0.6c0.4,0.4,0.8,0.8,1.1,1.4
		c0.3,0.6,0.4,1.2,0.4,1.8c0,1.3-0.6,2-1.7,2c-0.3,0-0.6,0-0.9-0.1c-0.4-0.1-0.6-0.1-0.9-0.2c-0.2-0.1-0.5-0.2-1-0.3
		s-0.7-0.3-0.8-0.3c-0.5,0.5-1.3,0.7-2.3,0.7h-0.4c-0.2,0-0.3-0.1-0.5-0.2C226.2,307.6,226.1,307.5,226.1,307.3z M230.3,306.2
		c0,0,0.1,0,0.3,0.1c0.2,0.1,0.3,0.1,0.3,0.1c0,0,0.1,0,0.3,0.1c0.1,0.1,0.2,0.1,0.3,0.1c0.1,0,0.2,0,0.3,0.1c0.1,0,0.2,0.1,0.3,0.1
		c0.1,0,0.2,0,0.3,0.1s0.2,0,0.3,0c0.1,0,0.2,0,0.2,0c0.4,0,0.7-0.2,0.7-0.5c0-0.2-0.1-0.5-0.2-0.8c-0.2-0.4-0.4-0.7-0.6-1
		s-0.5-0.5-0.8-0.5c-0.2,0-0.5,0.3-0.8,0.8c-0.1,0.1-0.2,0.4-0.4,0.7S230.4,306,230.3,306.2z"/>
	<path class="st4" d="M250.3,310L250.3,310c-0.5,0.7-1.3,1.2-2.3,1.7s-2,0.6-3,0.6c-0.9,0-1.7-0.2-2.4-0.5c-0.7-0.4-1.3-0.9-1.5-1.6
		c-0.1-0.4-0.2-0.8-0.2-1.2c0-1.1,0.5-2.4,1.4-3.9l0.9,0.6c-0.6,1.1-0.9,2.1-0.9,3c0,0.5,0.1,1,0.4,1.3c0.3,0.3,0.6,0.6,1,0.7
		c0.4,0.1,0.9,0.2,1.4,0.2c0.9,0,1.8-0.2,2.6-0.5c0.9-0.4,1.5-0.8,1.8-1.3c0-0.1,0.1-0.2,0.1-0.3s0-0.2-0.1-0.3
		c-0.1-0.1-0.3-0.2-0.5-0.3c-0.2-0.1-0.4-0.2-0.6-0.3s-0.4-0.2-0.7-0.3c-0.3-0.1-0.5-0.2-0.6-0.2c-0.2-0.1-0.4-0.2-0.5-0.4
		c-0.1-0.2-0.2-0.5-0.2-0.8s0.1-0.7,0.4-1.2c0.4-0.8,0.9-1.4,1.5-1.9c0.5-0.5,1.1-0.7,1.6-0.7c0.9,0,1.7,0.6,2.3,1.9l-1,0.8
		c-0.3-0.4-0.5-0.8-0.8-1c-0.2-0.2-0.5-0.3-0.7-0.3c-0.2,0-0.5,0.1-0.7,0.3c-0.2,0.2-0.5,0.5-0.9,0.8c-0.3,0.4-0.5,0.6-0.5,0.9
		c0,0.1,0,0.2,0.1,0.2c0.1,0.1,0.1,0.1,0.2,0.1c0.1,0,0.1,0.1,0.3,0.1c0.8,0.3,1.3,0.5,1.6,0.7c0.8,0.4,1.2,1,1.2,1.6
		C250.9,308.9,250.7,309.4,250.3,310z"/>
	<path class="st4" d="M254.2,308v-11.3h1.3V308H254.2z"/>
	<path class="st4" d="M258.2,306.3c-0.4-0.3-0.6-0.7-0.6-1.2s0.3-1.1,0.8-1.8s1.2-1.2,2.1-1.8l-0.2-0.9l1.2-0.6l1.1,4.6
		c0.1,0.5,0.2,0.8,0.3,1c0.3,0.7,0.9,1,1.8,1v1.4c-1.4,0-2.3-0.5-2.8-1.4v0c-0.6,0.1-1.1,0.2-1.6,0.2
		C259.3,306.7,258.7,306.6,258.2,306.3z M258.8,304.8c0,0.2,0.1,0.3,0.3,0.4c0.2,0.1,0.5,0.1,0.8,0.1s0.8,0,1.4-0.1l-0.5-2.2
		C259.5,303.8,258.8,304.4,258.8,304.8z"/>
	<path class="st4" d="M264.4,308c-0.2,0-0.3-0.1-0.4-0.2c-0.1-0.1-0.1-0.3-0.1-0.5s0-0.4,0.1-0.5c0.1-0.1,0.2-0.2,0.4-0.2h3.5v1.4
		L264.4,308L264.4,308z"/>
	<path class="st4" d="M267.7,308c-0.2,0-0.3-0.1-0.4-0.2c-0.1-0.1-0.1-0.3-0.1-0.5s0-0.4,0.1-0.5s0.2-0.2,0.4-0.2h3.5v1.4L267.7,308
		L267.7,308z"/>
	<path class="st4" d="M270.5,307.3c0-0.2,0.1-0.3,0.2-0.5c0.1-0.1,0.3-0.2,0.5-0.2h2.3c1,0,1.5-0.4,1.5-1.3c0-0.2,0-0.5-0.1-0.9
		c-0.1-0.3-0.2-0.6-0.2-0.8s-0.2-0.4-0.3-0.8l1.3-0.5c0.4,1.1,0.7,2.2,0.7,3c0,1.7-0.9,2.6-2.8,2.6h-2.3c-0.2,0-0.3-0.1-0.5-0.2
		S270.5,307.5,270.5,307.3z M272.4,299.5c0,0-0.1-0.1-0.1-0.2s0-0.2,0.1-0.2l0.8-0.8c0.1,0,0.1-0.1,0.2-0.1c0.1,0,0.1,0,0.2,0.1
		l0.8,0.8c0.1,0,0.1,0.1,0.1,0.2s0,0.2-0.1,0.2l-0.8,0.8c0,0-0.1,0.1-0.2,0.1c-0.1,0-0.1,0-0.2-0.1L272.4,299.5z"/>
	<path class="st4" d="M278.8,305.2v-8.6h1.3v8.3c0,0.6,0.1,1,0.4,1.2c0.3,0.3,0.6,0.4,1,0.4v1.4c-0.4,0-0.8-0.1-1.1-0.2
		s-0.6-0.2-0.8-0.4s-0.4-0.4-0.5-0.6C278.9,306.4,278.8,305.8,278.8,305.2z"/>
	<path class="st4" d="M281.4,308c-0.2,0-0.3-0.1-0.4-0.2c-0.1-0.1-0.1-0.3-0.1-0.5s0-0.4,0.1-0.5s0.2-0.2,0.4-0.2h3.5v1.4L281.4,308
		L281.4,308z"/>
	<path class="st4" d="M284.7,308c-0.2,0-0.3-0.1-0.4-0.2c-0.1-0.1-0.1-0.3-0.1-0.5s0-0.4,0.1-0.5s0.2-0.2,0.4-0.2h3.5v1.4L284.7,308
		L284.7,308z"/>
	<path class="st4" d="M287.7,307.8c-0.1-0.1-0.2-0.3-0.2-0.5s0.1-0.3,0.2-0.5c0.1-0.1,0.3-0.2,0.5-0.2h1.8c0.3,0,0.7,0,1-0.1
		c0.3-0.1,0.6-0.1,0.9-0.2s0.5-0.2,0.9-0.4c0.3-0.2,0.6-0.3,0.8-0.4c0.2-0.1,0.5-0.3,0.8-0.5c0.3-0.2,0.6-0.4,0.7-0.5
		c-0.4-0.1-0.9-0.3-1.4-0.5c-0.5-0.2-0.9-0.4-1.3-0.5s-0.6-0.2-0.8-0.2c-0.4,0-0.9,0.4-1.5,1.1l-0.8-0.7c0.5-0.7,0.9-1.1,1.1-1.3
		c0.4-0.4,0.9-0.6,1.3-0.6c0.3,0,0.7,0.1,1.1,0.3s0.9,0.4,1.3,0.6c0.4,0.2,0.9,0.4,1.6,0.6s1.2,0.3,1.9,0.3h1.1l-0.3,1.4h-0.5
		c-0.3,0-0.6,0.1-1,0.2c-0.3,0.1-0.7,0.3-1,0.4s-0.6,0.4-1,0.6c-0.3,0.2-0.7,0.4-1,0.7s-0.7,0.4-1.1,0.6c-0.4,0.2-0.8,0.3-1.3,0.4
		c-0.5,0.1-1,0.2-1.5,0.2h-1.8C288,308,287.8,307.9,287.7,307.8z M290.2,299.1c-0.1,0-0.1-0.1-0.1-0.2s0-0.2,0.1-0.2l0.8-0.8
		c0,0,0.1-0.1,0.2-0.1s0.1,0,0.2,0.1l0.8,0.8c0,0,0.1,0.1,0.1,0.2s0,0.2-0.1,0.2l-0.8,0.8c0,0-0.1,0.1-0.2,0.1s-0.1,0-0.2-0.1
		L290.2,299.1z"/>
	<path class="st4" d="M26.5,336.3L26.5,336.3c-0.2,0.7-0.6,1.3-1.2,1.8c-0.6,0.5-1.3,0.9-2.1,1.1c-0.8,0.3-1.6,0.4-2.5,0.4
		c-0.9,0-1.7-0.2-2.4-0.5c-0.7-0.4-1.3-0.9-1.5-1.6c-0.1-0.4-0.2-0.8-0.2-1.2c0-1.1,0.5-2.4,1.4-3.9l0.9,0.6c-0.6,1.1-0.9,2.1-0.9,3
		c0,0.5,0.1,1,0.4,1.3c0.3,0.3,0.6,0.6,1,0.7c0.4,0.1,0.9,0.2,1.4,0.2c0.9,0,1.7-0.2,2.6-0.5c0.9-0.3,1.5-0.7,1.8-1.2
		c0.1-0.1,0.1-0.2,0.1-0.3c0-0.2-0.2-0.5-0.5-0.7s-0.8-0.4-1.4-0.6l0.4-1.4c1.5,0.4,2.8,0.6,4.1,0.6v1.4c-0.9,0-1.5-0.1-1.8-0.2
		c0.1,0.1,0.3,0.3,0.4,0.5C26.5,335.9,26.5,336.1,26.5,336.3z"/>
	<path class="st4" d="M27.3,335.1c-0.1-0.1-0.2-0.3-0.2-0.5s0.1-0.3,0.2-0.5c0.1-0.1,0.3-0.2,0.5-0.2h1.4c0.5,0,0.9-0.1,1.2-0.4
		c0.3-0.2,0.5-0.5,0.6-0.9l0.4-1.7l1.3,0.3l-0.5,2.1c0.6,0.4,1.2,0.6,1.8,0.6c0.4,0,0.7-0.1,1-0.3c0.3-0.2,0.5-0.5,0.6-1l0.3-1.4
		l1.3,0.3l-0.4,1.8c0.5,0.4,1,0.6,1.7,0.6c0.5,0,0.9-0.1,1.1-0.3s0.4-0.4,0.4-0.8s0-0.7-0.1-1c-0.1-0.3-0.3-0.9-0.5-1.5l1.3-0.6
		c0.2,0.7,0.4,1.3,0.5,1.7c0.1,0.4,0.1,0.9,0.1,1.3c0,0.9-0.3,1.5-0.8,1.9c-0.5,0.4-1.2,0.6-2.1,0.6c-0.5,0-0.9-0.1-1.4-0.2
		c-0.4-0.2-0.8-0.4-1-0.6c-0.5,0.6-1.2,0.8-2.1,0.8c-0.4,0-0.9-0.1-1.3-0.2s-0.8-0.4-1.1-0.6c-0.6,0.6-1.3,0.9-2.1,0.9h-1.5
		C27.6,335.4,27.5,335.3,27.3,335.1z"/>
	<path class="st4" d="M47.6,337.2c0.3-0.3,0.4-0.6,0.4-1s0-0.8-0.1-1.2c0-0.4-0.2-1-0.3-1.6c-0.2-0.7-0.4-1.2-0.7-1.7l1.1-0.9
		c0.6,1,1,2.1,1.1,3.2c0.1,0.5,0.1,0.9,0.1,1.2c0,0.3,0,0.6,0,1.1s-0.1,0.8-0.3,1.2c-0.2,0.4-0.4,0.7-0.7,0.9s-0.7,0.5-1.1,0.7
		c-0.8,0.4-1.8,0.7-3.1,0.9l-0.5-1.3c1.1-0.1,2.1-0.4,2.9-0.7C47,337.8,47.3,337.5,47.6,337.2z"/>
	<path class="st4" d="M51.4,332.6V324h1.3v8.3c0,0.6,0.1,1,0.4,1.2s0.6,0.4,1,0.4v1.4c-0.4,0-0.8-0.1-1.1-0.2
		c-0.3-0.1-0.6-0.2-0.8-0.4s-0.4-0.4-0.5-0.6C51.5,333.7,51.4,333.2,51.4,332.6z"/>
	<path class="st4" d="M53.9,335.4c-0.2,0-0.3-0.1-0.4-0.2c-0.1-0.1-0.1-0.3-0.1-0.5s0-0.4,0.1-0.5c0.1-0.1,0.2-0.2,0.4-0.2h3.5v1.4
		L53.9,335.4L53.9,335.4z"/>
	<path class="st4" d="M56.7,334.7c0-0.2,0.1-0.3,0.2-0.5c0.1-0.1,0.3-0.2,0.5-0.2h3.1c0.4,0,0.7-0.1,1.1-0.3
		c0.3-0.2,0.5-0.5,0.5-0.8v-0.6c-0.7,0.2-1.2,0.2-1.5,0.2h0c-0.9,0-1.5-0.2-1.9-0.6c-0.4-0.4-0.6-1-0.6-1.6c0-0.9,0.3-1.7,0.9-2.4
		c0.6-0.7,1.2-1,1.9-1c0.3,0,0.5,0.1,0.8,0.2s0.5,0.3,0.7,0.6c0.2,0.3,0.4,0.7,0.6,1.1s0.3,1,0.4,1.7s0.1,1.4,0.1,2.3v0.2
		c0,0.9-0.2,1.5-0.7,1.9c-0.5,0.4-1.2,0.6-2.1,0.6h-3.1c-0.2,0-0.3-0.1-0.5-0.2C56.8,335,56.7,334.8,56.7,334.7z M59.3,330.2
		c0,0.6,0.4,0.9,1.3,0.9h0.1c0.3,0,0.8-0.1,1.4-0.2c-0.1-0.9-0.3-1.5-0.6-1.9c-0.3-0.4-0.6-0.6-0.9-0.6c-0.3,0-0.6,0.2-0.9,0.5
		C59.4,329.2,59.3,329.7,59.3,330.2z M59.4,324.5c-0.1,0-0.1-0.1-0.1-0.2s0-0.2,0.1-0.2l0.8-0.8c0.1,0,0.1-0.1,0.2-0.1
		s0.1,0,0.2,0.1l0.8,0.8c0.1,0,0.1,0.1,0.1,0.2s0,0.2-0.1,0.2l-0.8,0.8c-0.1,0-0.1,0.1-0.2,0.1s-0.1,0-0.2-0.1L59.4,324.5z"/>
	<path class="st4" d="M81.5,334l0.5,0v1.4c-0.5,0-0.9,0-1.1,0c-0.3,0-0.6-0.1-1-0.1s-0.7-0.2-1-0.3c-0.5,0.3-1.2,0.5-2,0.5h-4.5
		c-0.9,0-1.9-0.2-2.9-0.7l0.6-1.3c0.5,0.3,0.9,0.4,1.5,0.5c0.4-0.5,0.8-0.9,1-1.2V324h1.3v7.3c1.4-1.3,2.5-2,3.4-2.1
		c0.1,0,0.3,0,0.4,0c0.8,0,1.4,0.3,2,0.9s0.8,1.3,0.8,2.1c0,0.6-0.2,1.2-0.5,1.7C80.2,333.9,80.8,334,81.5,334z M76.4,333.9
		c0.6,0,1.1-0.1,1.6-0.3s0.8-0.4,1-0.6c0.1-0.2,0.1-0.3,0.1-0.4c0-0.5-0.2-0.9-0.5-1.2c-0.3-0.4-0.8-0.6-1.2-0.6
		c-0.4,0-0.8,0.1-1.2,0.3c-0.4,0.2-0.9,0.5-1.3,0.8c-0.7,0.6-1.4,1.2-2,1.9H76.4z"/>
	<path class="st4" d="M81.8,335.4c-0.2,0-0.3-0.1-0.4-0.2c-0.1-0.1-0.1-0.3-0.1-0.5s0-0.4,0.1-0.5s0.2-0.2,0.4-0.2h3.5v1.4
		L81.8,335.4L81.8,335.4z"/>
	<path class="st4" d="M84.8,335.1c-0.1-0.1-0.2-0.3-0.2-0.5s0.1-0.3,0.2-0.5c0.1-0.1,0.3-0.2,0.5-0.2h1.8c0.3,0,0.7,0,1-0.1
		c0.3-0.1,0.6-0.1,0.9-0.2c0.3-0.1,0.5-0.2,0.9-0.4c0.3-0.2,0.6-0.3,0.8-0.4c0.2-0.1,0.5-0.3,0.8-0.5c0.3-0.2,0.6-0.4,0.7-0.5
		c-0.4-0.1-0.9-0.3-1.4-0.5c-0.5-0.2-0.9-0.4-1.3-0.5s-0.6-0.2-0.8-0.2c-0.4,0-0.9,0.4-1.5,1.1l-0.8-0.7c0.5-0.7,0.9-1.1,1.1-1.3
		c0.4-0.4,0.9-0.6,1.3-0.6c0.3,0,0.7,0.1,1.1,0.3c0.5,0.2,0.9,0.4,1.3,0.6c0.4,0.2,0.9,0.4,1.6,0.6c0.6,0.2,1.2,0.3,1.9,0.3h1.1
		l-0.3,1.4h-0.5c-0.3,0-0.6,0.1-1,0.2c-0.3,0.1-0.7,0.3-1,0.4c-0.3,0.2-0.6,0.4-1,0.6c-0.3,0.2-0.7,0.4-1.1,0.7s-0.7,0.4-1.1,0.6
		c-0.4,0.2-0.8,0.3-1.3,0.4c-0.5,0.1-1,0.2-1.5,0.2h-1.8C85.1,335.4,85,335.3,84.8,335.1z M87.3,326.4c-0.1,0-0.1-0.1-0.1-0.2
		s0-0.2,0.1-0.2l0.8-0.8c0.1,0,0.1-0.1,0.2-0.1s0.1,0,0.2,0.1l0.8,0.8c0.1,0,0.1,0.1,0.1,0.2s0,0.2-0.1,0.2l-0.8,0.8
		c-0.1,0-0.1,0.1-0.2,0.1s-0.1,0-0.2-0.1L87.3,326.4z"/>
	<path class="st4" d="M101.8,336.3c0-0.5,0.1-1,0.3-1.6c0.2-0.6,0.4-1.2,0.7-1.7l1,0.4c-0.2,0.4-0.4,0.8-0.5,1.4s-0.2,1-0.2,1.4
		c0,0.5,0.1,0.8,0.4,1.1c0.3,0.3,0.6,0.5,1,0.6c0.4,0.1,0.9,0.2,1.4,0.2c0.7,0,1.5-0.1,2.2-0.3c0.8-0.2,1.4-0.5,1.9-0.9
		s0.8-0.8,0.8-1.3c0,0,0,0,0-0.1c0,0,0,0,0-0.1c-0.1-0.6-0.6-1.7-1.5-3.3l1.2-0.9c0,0,0.1,0.1,0.1,0.2c0.1,0.1,0.1,0.2,0.1,0.2
		s0.1,0.1,0.1,0.2s0.1,0.2,0.1,0.2c0,0,0.1,0.1,0.1,0.2s0.1,0.1,0.1,0.2c0,0.1,0.1,0.1,0.2,0.2c0.1,0.1,0.1,0.1,0.2,0.2
		c0.3,0.3,0.7,0.6,1.1,0.8c0.4,0.2,0.8,0.3,1.3,0.3c0.4,0,0.7-0.1,0.9-0.3s0.4-0.5,0.6-1l0.3-1.4l1.3,0.3l-0.4,1.8
		c0.5,0.4,1,0.6,1.7,0.6c0.5,0,0.8-0.1,1.1-0.3s0.4-0.5,0.4-0.8c0-0.3,0-0.7-0.1-1s-0.3-0.9-0.5-1.5l1.3-0.6
		c0.3,0.7,0.4,1.3,0.5,1.7c0.1,0.4,0.1,0.9,0.1,1.4c0,0.9-0.3,1.5-0.8,1.9c-0.5,0.4-1.2,0.6-2.1,0.6c-0.5,0-0.9-0.1-1.4-0.2
		c-0.4-0.2-0.8-0.4-1-0.6c-0.5,0.5-1.1,0.8-1.8,0.8v0h-0.1c0,0-0.1,0-0.1,0s-0.1,0-0.1,0c-0.7,0-1.3-0.1-1.8-0.4c0,0.1,0,0.2,0,0.4
		c0,0.5-0.1,1-0.4,1.4s-0.6,0.8-0.9,1.2s-0.9,0.6-1.4,0.9s-1.1,0.4-1.6,0.5c-0.6,0.1-1.1,0.2-1.7,0.2c-0.6,0-1.1-0.1-1.6-0.2
		s-0.9-0.3-1.3-0.6c-0.4-0.3-0.7-0.6-0.9-1C101.9,337.3,101.8,336.9,101.8,336.3z M111.7,327.9c-0.1,0-0.1-0.1-0.1-0.2
		s0-0.1,0.1-0.2l0.7-0.7c0.1,0,0.1-0.1,0.2-0.1c0.1,0,0.1,0,0.2,0.1l0.7,0.7c0.1,0,0.1,0.1,0.1,0.2s0,0.1-0.1,0.2l-0.7,0.7
		c-0.1,0-0.1,0.1-0.2,0.1s-0.1,0-0.2-0.1L111.7,327.9z M112.9,325.9c-0.1-0.1-0.1-0.2,0-0.3l0.6-0.6c0,0,0.1-0.1,0.2-0.1
		s0.1,0,0.2,0.1l0.6,0.6c0.1,0.1,0.1,0.2,0,0.3l-0.6,0.7c0,0-0.1,0.1-0.2,0.1s-0.1,0-0.2-0.1L112.9,325.9z M113.8,327.9
		c-0.1,0-0.1-0.1-0.1-0.2s0-0.1,0.1-0.2l0.7-0.7c0.1,0,0.1-0.1,0.2-0.1c0.1,0,0.1,0,0.2,0.1l0.7,0.7c0.1,0,0.1,0.1,0.1,0.2
		s0,0.1-0.1,0.2l-0.7,0.7c-0.1,0-0.1,0.1-0.2,0.1s-0.1,0-0.2-0.1L113.8,327.9z"/>
	<path class="st4" d="M130.9,333.9v1.4c-0.5,0-1,0-1.3-0.1c-0.3-0.1-0.6-0.3-0.8-0.5c0,0.8-0.2,1.5-0.7,2.2
		c-0.5,0.7-1.1,1.3-1.8,1.8c-0.8,0.5-1.7,0.9-2.7,1.3l-0.5-1.3c1-0.4,2-0.9,2.8-1.6c0.4-0.3,0.8-0.7,1-1.1c0.3-0.4,0.4-0.8,0.4-1.1
		c0-0.3,0-0.6,0-0.8c0-0.2-0.1-0.6-0.3-1s-0.4-0.9-0.7-1.4l1.1-0.9c0.2,0.3,0.4,0.7,0.7,1.4c0.1,0.2,0.2,0.4,0.4,0.6
		c0.2,0.2,0.3,0.4,0.5,0.6c0.2,0.1,0.4,0.3,0.7,0.4S130.5,333.9,130.9,333.9z"/>
	<path class="st4" d="M130.2,334.7c0-0.2,0.1-0.4,0.2-0.5c0.1-0.1,0.3-0.2,0.5-0.2h2.1c0.6,0,1.1-0.1,1.4-0.4s0.4-0.7,0.4-1.3v-1.4
		h1.3v1.4c0,0.6,0.2,1,0.5,1.3s0.8,0.4,1.3,0.4h0.2v1.4h-0.3c-0.7,0-1.2-0.1-1.6-0.3c-0.4-0.2-0.6-0.5-0.8-0.8
		c-0.1,0.3-0.3,0.6-0.7,0.8c-0.4,0.2-0.9,0.3-1.5,0.3h-2.3c-0.2,0-0.3-0.1-0.5-0.2C130.2,335,130.2,334.8,130.2,334.7z M131.6,328.1
		c-0.1,0-0.1-0.1-0.1-0.2s0-0.1,0.1-0.2l0.7-0.7c0.1,0,0.1-0.1,0.2-0.1c0.1,0,0.1,0,0.2,0.1l0.7,0.7c0.1,0,0.1,0.1,0.1,0.2
		s0,0.1-0.1,0.2l-0.7,0.7c-0.1,0-0.1,0.1-0.2,0.1s-0.1,0-0.2-0.1L131.6,328.1z M133.7,328.1c-0.1,0-0.1-0.1-0.1-0.2s0-0.1,0.1-0.2
		l0.7-0.7c0.1,0,0.1-0.1,0.2-0.1c0.1,0,0.1,0,0.2,0.1l0.7,0.7c0.1,0,0.1,0.1,0.1,0.2s0,0.1-0.1,0.2l-0.7,0.7c-0.1,0-0.1,0.1-0.2,0.1
		s-0.1,0-0.2-0.1L133.7,328.1z"/>
	<path class="st4" d="M137.5,335.1c-0.1-0.1-0.2-0.3-0.2-0.5s0.1-0.3,0.2-0.5c0.1-0.1,0.3-0.2,0.5-0.2h1.4c0.4,0,0.8-0.1,1.1-0.3
		c0.3-0.2,0.5-0.5,0.6-1l0.3-1.4l1.3,0.3l-0.5,1.8c0.6,0.4,1.2,0.6,1.8,0.6c0.4,0,0.7-0.1,1-0.3c0.3-0.2,0.5-0.5,0.6-1l0.3-1.4
		l1.3,0.3l-0.4,1.8c0.5,0.4,1,0.6,1.7,0.6c0.8,0,1.3-0.2,1.5-0.6l-0.5-2.2l1.2-0.4l0.4,2c0.1,0.4,0.3,0.7,0.5,1
		c0.3,0.2,0.7,0.3,1.2,0.3h0.6v1.4h-0.6c-1,0-1.7-0.2-2.2-0.7c-0.5,0.5-1.2,0.7-2.2,0.7c-0.5,0-0.9-0.1-1.4-0.2
		c-0.4-0.2-0.8-0.4-1-0.6c-0.5,0.6-1.2,0.8-2.1,0.8c-0.4,0-0.9-0.1-1.3-0.2s-0.8-0.4-1.1-0.6c-0.6,0.6-1.3,0.9-2.1,0.9H138
		C137.8,335.4,137.7,335.3,137.5,335.1z"/>
	<path class="st4" d="M153.3,335.4c-0.2,0-0.3-0.1-0.4-0.2c-0.1-0.1-0.1-0.3-0.1-0.5s0-0.4,0.1-0.5c0.1-0.1,0.2-0.2,0.4-0.2h3.5v1.4
		L153.3,335.4L153.3,335.4z"/>
	<path class="st4" d="M156.3,335.1c-0.1-0.1-0.2-0.3-0.2-0.5s0.1-0.3,0.2-0.5c0.1-0.1,0.3-0.2,0.5-0.2h2.1c0.8,0,1.4-0.1,1.8-0.3
		c0.3-0.2,0.5-0.5,0.5-0.8c0-1-0.8-2.1-2.3-3.3c-0.3-0.2-0.6-0.4-0.9-0.6c-0.3-0.2-0.5-0.3-0.5-0.3c0.1-0.7,0.2-1.2,0.3-1.4
		c0.1-0.2,0.3-0.4,0.5-0.6c0.7-0.5,1.6-0.9,2.6-1.4s2-0.9,2.9-1.2l0.5,1.3c-1.9,0.6-3.7,1.4-5.5,2.5c0.3,0.2,0.6,0.4,0.9,0.6
		c0.3,0.2,0.6,0.5,0.9,0.8c0.4,0.3,0.7,0.7,0.9,1c0.2,0.3,0.4,0.7,0.6,1.2c0.2,0.5,0.3,0.9,0.3,1.4c0,0.8-0.3,1.4-0.9,1.8
		c-0.6,0.5-1.4,0.7-2.5,0.7h-2.3C156.6,335.4,156.5,335.3,156.3,335.1z M157.7,325.4c0.8-0.5,1.6-1,2.3-1.3s1.6-0.7,2.5-1l0.3,0.8
		c-0.9,0.3-1.7,0.6-2.4,1c-0.7,0.4-1.5,0.8-2.4,1.3L157.7,325.4z"/>
	<path class="st4" d="M175.1,335c-0.6,0.2-1.1,0.3-1.7,0.3c-0.6,0-1-0.1-1.4-0.4c-0.7-0.5-1-1.2-1-2.2c0-0.5,0.1-1,0.3-1.5
		c0.2-0.5,0.5-0.9,0.9-1.2c0.4-0.3,0.9-0.5,1.4-0.5c1,0,1.7,0.4,2.1,1.2c0.4,0.8,0.7,2.1,0.7,3.9c0,0.8-0.3,1.5-0.8,2.3
		s-1.2,1.3-2.1,1.9c-0.9,0.5-1.8,0.9-2.9,1.2l-0.3-1.4c1-0.3,2-0.7,3-1.4c0.5-0.3,0.9-0.7,1.2-1.1C174.8,335.9,175,335.5,175.1,335z
		 M172.6,331.6c-0.2,0.3-0.3,0.7-0.3,1s0.1,0.7,0.3,0.9c0.2,0.2,0.5,0.4,0.9,0.4h0.1c0.3,0,0.6,0,0.9-0.1c0.3-0.1,0.5-0.2,0.6-0.3
		l0.1,0.3c-0.1-1.8-0.6-2.7-1.6-2.7C173.1,331.1,172.8,331.3,172.6,331.6z"/>
	<path class="st4" d="M183.3,334.8c-0.4-0.2-0.8-0.5-1-0.8c-0.2-0.4-0.3-0.8-0.3-1.3c0-0.6,0.2-1.5,0.5-2.6l1.2,0.4
		c0,0.1-0.1,0.2-0.1,0.4c-0.1,0.2-0.1,0.3-0.1,0.4c0,0.1-0.1,0.2-0.1,0.4s-0.1,0.3-0.1,0.4c0,0.1,0,0.2,0,0.3c0,0,0,0,0,0.1
		c0,0,0,0.1,0,0.1c0.1,0.5,0.4,0.9,1,1.1c0.6,0.2,1.5,0.3,2.8,0.3c0.5,0,0.9,0,1.4,0c0.4,0,0.8,0,1.2-0.1c0.4,0,0.7-0.1,1-0.2
		c0.3-0.1,0.5-0.2,0.8-0.3c0.2-0.1,0.4-0.2,0.5-0.4s0.2-0.3,0.2-0.5c0,0,0,0,0-0.1v-1.6h1.3v1.4c0,0.6,0.2,1,0.5,1.3
		c0.3,0.3,0.8,0.4,1.3,0.4h0.2v1.4H195c-1,0-1.8-0.4-2.4-1.2c-0.3,0.3-0.6,0.5-1,0.6c-0.4,0.2-0.9,0.3-1.4,0.4
		c-0.5,0.1-1,0.1-1.5,0.1c-0.5,0-1,0-1.7,0h-0.3c-0.8,0-1.4,0-1.9-0.1S183.7,335,183.3,334.8z M186,328.2c-0.1,0-0.1-0.1-0.1-0.2
		s0-0.1,0.1-0.2l0.7-0.7c0.1,0,0.1-0.1,0.2-0.1c0.1,0,0.1,0,0.2,0.1l0.7,0.7c0.1,0,0.1,0.1,0.1,0.2s0,0.1-0.1,0.2l-0.7,0.7
		c-0.1,0-0.1,0.1-0.2,0.1s-0.1,0-0.2-0.1L186,328.2z M188.1,328.2c-0.1,0-0.1-0.1-0.1-0.2s0-0.1,0.1-0.2l0.7-0.7
		c0.1,0,0.1-0.1,0.2-0.1c0.1,0,0.1,0,0.2,0.1l0.7,0.7c0.1,0,0.1,0.1,0.1,0.2s0,0.1-0.1,0.2l-0.7,0.7c-0.1,0-0.1,0.1-0.2,0.1
		s-0.1,0-0.2-0.1L188.1,328.2z"/>
	<path class="st4" d="M194.7,334.7c0-0.2,0.1-0.3,0.2-0.5c0.1-0.1,0.3-0.2,0.5-0.2h2.3c1,0,1.5-0.4,1.5-1.3c0-0.2,0-0.5-0.1-0.9
		s-0.2-0.6-0.2-0.8c-0.1-0.2-0.2-0.4-0.3-0.8l1.3-0.5c0.4,1.1,0.7,2.2,0.7,3c0,1.7-0.9,2.6-2.8,2.6h-2.3c-0.2,0-0.3-0.1-0.5-0.2
		S194.7,334.8,194.7,334.7z M196.6,326.9c-0.1,0-0.1-0.1-0.1-0.2s0-0.2,0.1-0.2l0.8-0.8c0.1,0,0.1-0.1,0.2-0.1s0.1,0,0.2,0.1
		l0.8,0.8c0.1,0,0.1,0.1,0.1,0.2s0,0.2-0.1,0.2l-0.8,0.8c-0.1,0-0.1,0.1-0.2,0.1s-0.1,0-0.2-0.1L196.6,326.9z"/>
	<path class="st4" d="M203,332.6V324h1.3v8.3c0,0.6,0.1,1,0.4,1.2s0.6,0.4,1,0.4v1.4c-0.4,0-0.8-0.1-1.1-0.2
		c-0.3-0.1-0.6-0.2-0.8-0.4s-0.4-0.4-0.5-0.6C203.1,333.7,203,333.2,203,332.6z"/>
	<path class="st4" d="M205,334.7c0-0.2,0.1-0.4,0.2-0.5c0.1-0.1,0.3-0.2,0.5-0.2h2.1c0.6,0,1.1-0.1,1.4-0.4s0.4-0.7,0.4-1.3v-1.4
		h1.3v1.4c0,0.6,0.2,1,0.5,1.3s0.8,0.4,1.3,0.4h0.2v1.4h-0.3c-0.7,0-1.2-0.1-1.6-0.3c-0.4-0.2-0.6-0.5-0.8-0.8
		c-0.1,0.3-0.3,0.6-0.7,0.8c-0.4,0.2-0.9,0.3-1.5,0.3h-2.3c-0.2,0-0.3-0.1-0.5-0.2C205.1,335,205,334.8,205,334.7z M205.7,337.5
		l0.7-0.7c0.1,0,0.1-0.1,0.2-0.1c0.1,0,0.1,0,0.2,0.1l0.7,0.7c0.1,0,0.1,0.1,0.1,0.2s0,0.1-0.1,0.2l-0.7,0.7c-0.1,0-0.1,0.1-0.2,0.1
		s-0.1,0-0.2-0.1l-0.7-0.7c-0.1,0-0.1-0.1-0.1-0.2S205.6,337.5,205.7,337.5z M207.8,337.5l0.7-0.7c0.1,0,0.1-0.1,0.2-0.1
		c0.1,0,0.1,0,0.2,0.1l0.7,0.7c0.1,0,0.1,0.1,0.1,0.2s0,0.1-0.1,0.2l-0.7,0.7c-0.1,0-0.1,0.1-0.2,0.1s-0.1,0-0.2-0.1l-0.7-0.7
		c-0.1,0-0.1-0.1-0.1-0.2S207.8,337.5,207.8,337.5z"/>
	<path class="st4" d="M212.7,335.4c-0.2,0-0.3-0.1-0.4-0.2c-0.1-0.1-0.1-0.3-0.1-0.5s0-0.4,0.1-0.5s0.2-0.2,0.4-0.2h3.5v1.4
		L212.7,335.4L212.7,335.4z"/>
	<path class="st4" d="M215.7,335.1c-0.1-0.1-0.2-0.3-0.2-0.5s0.1-0.3,0.2-0.5c0.1-0.1,0.3-0.2,0.5-0.2h1.1c0.6,0,1.1-0.1,1.3-0.4
		c0.3-0.3,0.4-0.7,0.4-1.3v-1.1h1.3v1.1c0,0.6,0.2,1,0.6,1.3c0.5-0.6,0.9-1,1.2-1.4s0.7-0.7,1.1-1.1c0.4-0.4,0.8-0.7,1.1-0.9
		c0.3-0.2,0.7-0.4,1.1-0.5c0.4-0.1,0.8-0.2,1.2-0.2c0.6,0,1.1,0.1,1.6,0.4c0.4,0.3,0.8,0.6,1,1c0.2,0.4,0.3,0.9,0.3,1.3
		c0,0.4-0.1,0.8-0.2,1.2s-0.4,0.7-0.6,1c-0.3,0.3-0.6,0.6-1.1,0.7c-0.5,0.2-1,0.3-1.5,0.3H222c-0.7,0-1.2-0.1-1.6-0.3
		c-0.4-0.2-0.6-0.5-0.8-0.8c-0.1,0.3-0.4,0.6-0.7,0.8s-0.8,0.3-1.5,0.3h-1.3C216,335.4,215.8,335.3,215.7,335.1z M221.7,333.9h3.8
		c0.8,0,1.5-0.2,1.9-0.5s0.7-0.8,0.7-1.2c0-0.4-0.2-0.7-0.5-1c-0.3-0.3-0.7-0.4-1.2-0.4C225.2,330.8,223.7,331.9,221.7,333.9z"/>
	<path class="st4" d="M235.6,334.9c-0.2-0.3-0.3-0.6-0.3-1s0.1-0.8,0.4-1.3c0.2-0.5,0.6-0.9,1-1.3l0.5,0.5c-0.1,0.1-0.2,0.3-0.3,0.3
		c-0.1,0.1-0.2,0.2-0.2,0.4s-0.1,0.3-0.1,0.5c0,0.3,0.2,0.5,0.5,0.9c0.1,0.2,0.2,0.3,0.2,0.6s-0.1,0.4-0.3,0.6
		c-0.2,0.2-0.4,0.2-0.6,0.2C236.1,335.4,235.8,335.2,235.6,334.9z"/>
	<path class="st4" d="M239.4,334.6l0.6-1.3c0.5,0.3,0.9,0.4,1.5,0.5c0.4-0.5,0.8-0.9,1-1.2V324h1.3v7.3c1.4-1.3,2.5-2,3.4-2.1
		c0.1,0,0.3,0,0.4,0c0.8,0,1.4,0.3,2,0.9c0.5,0.6,0.8,1.3,0.8,2.1c0,0.6-0.2,1.2-0.5,1.7c0.4,0.1,0.9,0.1,1.6,0.1c0.1,0,0.1,0,0.3,0
		c0.1,0,0.2,0,0.2,0v1.4c-0.5,0-0.9,0-1.1,0c-0.3,0-0.6-0.1-1-0.1c-0.4-0.1-0.7-0.2-1-0.3c-0.5,0.3-1.2,0.5-2,0.5h-4.5
		C241.4,335.4,240.4,335.1,239.4,334.6z M242.8,333.9h3.6c0.6,0,1.1-0.1,1.6-0.3c0.4-0.2,0.8-0.4,1-0.6c0-0.2,0.1-0.3,0.1-0.4
		c0-0.5-0.2-0.9-0.5-1.2c-0.3-0.4-0.8-0.6-1.2-0.6c-0.4,0-0.8,0.1-1.2,0.3c-0.4,0.2-0.9,0.5-1.3,0.8c-0.4,0.3-0.8,0.7-1.1,1
		C243.4,333.3,243.1,333.6,242.8,333.9z M245.7,326.9c0,0-0.1-0.1-0.1-0.2s0-0.2,0.1-0.2l0.8-0.8c0,0,0.1-0.1,0.2-0.1s0.1,0,0.2,0.1
		l0.8,0.8c0,0,0.1,0.1,0.1,0.2s0,0.2-0.1,0.2l-0.8,0.8c0,0-0.1,0.1-0.2,0.1s-0.1,0-0.2-0.1L245.7,326.9z"/>
	<path class="st4" d="M251.5,335.1c-0.1-0.1-0.2-0.3-0.2-0.5s0.1-0.3,0.2-0.5c0.1-0.1,0.3-0.2,0.5-0.2h0.3c0.6,0,1.1,0,1.5-0.1
		c-0.5-0.6-0.8-1.2-0.8-1.9c0-0.5,0.1-1,0.2-1.4c0.2-0.4,0.4-0.7,0.6-1c0.3-0.2,0.5-0.4,0.9-0.6c0.3-0.1,0.7-0.2,1-0.2
		c0.3,0,0.7,0.1,1,0.2s0.6,0.3,0.9,0.5c0.3,0.2,0.5,0.5,0.6,0.9c0.2,0.4,0.2,0.8,0.2,1.2c0,0.4-0.1,0.7-0.3,1.1s-0.5,0.7-0.8,1.1
		c0.5,0,0.9,0,1.3,0h1.2v1.4h-1.2c-1.2,0-2.3-0.2-3.1-0.5c-0.9,0.3-1.9,0.5-3,0.5H252C251.8,335.4,251.6,335.3,251.5,335.1z
		 M254.3,331.3c0,1,0.4,1.7,1.3,2.1c1-0.5,1.6-1.2,1.6-2.2c0-0.2-0.2-0.4-0.5-0.6s-0.6-0.3-0.9-0.3c-0.3,0-0.7,0.1-1,0.3
		C254.5,330.9,254.3,331.1,254.3,331.3z M254.8,325.9c0,0-0.1-0.1-0.1-0.2s0-0.2,0.1-0.2l0.8-0.8c0,0,0.1-0.1,0.2-0.1s0.1,0,0.2,0.1
		l0.8,0.8c0,0,0.1,0.1,0.1,0.2s0,0.2-0.1,0.2l-0.8,0.8c0,0-0.1,0.1-0.2,0.1s-0.1,0-0.2-0.1L254.8,325.9z"/>
	<path class="st4" d="M259.7,335.4c-0.2,0-0.3-0.1-0.4-0.2c-0.1-0.1-0.1-0.3-0.1-0.5s0-0.4,0.1-0.5s0.2-0.2,0.4-0.2h3.5v1.4
		L259.7,335.4L259.7,335.4z"/>
	<path class="st4" d="M262.7,335.1c-0.1-0.1-0.2-0.3-0.2-0.5s0.1-0.3,0.2-0.5c0.1-0.1,0.3-0.2,0.5-0.2h1.8c1.1,0,2.3-0.4,3.6-1.2
		c0.2-0.1,0.5-0.3,0.8-0.5s0.6-0.4,0.7-0.5c-0.4-0.1-0.9-0.3-1.4-0.5c-0.5-0.2-0.9-0.4-1.3-0.5s-0.6-0.2-0.8-0.2
		c-0.4,0-0.9,0.4-1.5,1.1l-0.8-0.7c0.5-0.7,0.9-1.1,1.1-1.3c0.4-0.4,0.9-0.6,1.3-0.6c0.5,0,1.3,0.3,2.4,0.9c0.4,0.2,0.9,0.4,1.6,0.6
		s1.2,0.3,1.9,0.3h1.1l-0.3,1.4h-0.5c-0.6,0-1.3,0.2-2,0.6c-0.3,0.2-0.6,0.4-1,0.6s-0.7,0.4-1,0.7s-0.7,0.4-1.1,0.6
		c-0.9,0.4-1.8,0.6-2.8,0.6h-1.8C263,335.4,262.8,335.3,262.7,335.1z"/>
	<path class="st4" d="M289.2,337.4L289.2,337.4c-0.5,0.7-1.3,1.2-2.3,1.7s-2,0.6-3,0.6c-0.9,0-1.7-0.2-2.4-0.5
		c-0.7-0.4-1.3-0.9-1.5-1.6c-0.1-0.4-0.2-0.8-0.2-1.2c0-1.1,0.5-2.4,1.4-3.9l0.9,0.6c-0.6,1.1-0.9,2.1-0.9,3c0,0.5,0.1,1,0.4,1.3
		c0.3,0.3,0.6,0.6,1,0.7c0.4,0.1,0.9,0.2,1.4,0.2c0.9,0,1.8-0.2,2.6-0.5c0.9-0.4,1.5-0.8,1.8-1.3c0-0.1,0.1-0.2,0.1-0.3
		s0-0.2-0.1-0.3c-0.1-0.1-0.3-0.2-0.5-0.3c-0.2-0.1-0.4-0.2-0.6-0.3s-0.4-0.2-0.7-0.3c-0.3-0.1-0.5-0.2-0.6-0.2
		c-0.2-0.1-0.4-0.2-0.5-0.4s-0.2-0.5-0.2-0.8s0.1-0.7,0.4-1.2c0.4-0.8,0.9-1.4,1.5-1.9c0.5-0.5,1.1-0.7,1.6-0.7
		c0.9,0,1.7,0.6,2.3,1.9l-1,0.8c-0.3-0.4-0.5-0.8-0.8-1s-0.5-0.3-0.7-0.3s-0.5,0.1-0.7,0.3s-0.5,0.5-0.9,0.8
		c-0.3,0.4-0.5,0.6-0.5,0.9c0,0.1,0,0.2,0.1,0.2c0.1,0.1,0.1,0.1,0.2,0.1c0.1,0,0.1,0.1,0.3,0.1c0.8,0.3,1.3,0.5,1.6,0.7
		c0.8,0.4,1.2,1,1.2,1.6C289.8,336.3,289.6,336.8,289.2,337.4z"/>
	<path class="st4" d="M293.1,335.4V324h1.3v11.3H293.1z"/>
	<path class="st4" d="M304.1,333.9v1.4c-0.5,0-1,0-1.3-0.1c-0.3-0.1-0.6-0.3-0.8-0.5c0,0.8-0.2,1.5-0.7,2.2
		c-0.5,0.7-1.1,1.3-1.8,1.8c-0.8,0.5-1.7,0.9-2.7,1.3l-0.5-1.3c1-0.4,2-0.9,2.8-1.6c0.4-0.3,0.8-0.7,1-1.1c0.3-0.4,0.4-0.8,0.4-1.1
		c0-0.3,0-0.6,0-0.8c0-0.2-0.1-0.6-0.3-1c-0.2-0.5-0.4-0.9-0.7-1.4l1.1-0.9c0.2,0.3,0.4,0.7,0.7,1.4c0.1,0.2,0.2,0.4,0.4,0.6
		s0.3,0.4,0.5,0.6c0.2,0.1,0.4,0.3,0.7,0.4S303.8,333.9,304.1,333.9z"/>
	<path class="st4" d="M304,335.4c-0.2,0-0.3-0.1-0.4-0.2c-0.1-0.1-0.1-0.3-0.1-0.5s0-0.4,0.1-0.5s0.2-0.2,0.4-0.2h3.5v1.4L304,335.4
		L304,335.4z"/>
	<path class="st4" d="M306.8,334.7c0-0.2,0.1-0.3,0.2-0.5c0.1-0.1,0.3-0.2,0.5-0.2h2.3c1,0,1.5-0.4,1.5-1.3c0-0.2,0-0.5-0.1-0.9
		s-0.2-0.6-0.2-0.8s-0.2-0.4-0.3-0.8l1.3-0.5c0.4,1.1,0.7,2.2,0.7,3c0,1.7-0.9,2.6-2.8,2.6h-2.3c-0.2,0-0.3-0.1-0.5-0.2
		S306.8,334.8,306.8,334.7z M308.2,337.5l0.8-0.8c0,0,0.1-0.1,0.2-0.1c0.1,0,0.1,0,0.2,0.1l0.8,0.8c0,0,0.1,0.1,0.1,0.2
		s0,0.1-0.1,0.2l-0.8,0.8c-0.1,0.1-0.1,0.1-0.2,0.1c-0.1,0-0.1,0-0.2-0.1l-0.8-0.8c0-0.1-0.1-0.1-0.1-0.2
		C308.1,337.7,308.1,337.6,308.2,337.5z"/>
	<path class="st4" d="M17.9,363.7c0-1.1,0.5-2.4,1.4-4l0.9,0.6c-0.6,1.2-1,2.2-1,3c0,0.4,0.1,0.7,0.2,1c0.1,0.3,0.4,0.5,0.6,0.7
		c0.5,0.3,1.2,0.5,1.9,0.5c0.7,0,1.5-0.1,2.2-0.4c0.7-0.2,1.3-0.6,1.8-1c0.5-0.4,0.7-0.8,0.7-1.2v-11.6H28v11.5
		c0,0.6-0.2,1.2-0.6,1.7c-0.4,0.5-0.8,0.9-1.4,1.3c-0.6,0.3-1.2,0.6-1.9,0.8c-0.7,0.2-1.3,0.3-1.9,0.3c-0.6,0-1.1,0-1.5-0.1
		c-0.4-0.1-0.8-0.2-1.1-0.4c-0.4-0.2-0.7-0.4-0.9-0.6c-0.3-0.3-0.5-0.6-0.6-0.9S17.9,364.2,17.9,363.7z"/>
	<path class="st4" d="M30.1,360v-8.6h1.3v8.3c0,0.6,0.1,1,0.4,1.2c0.3,0.3,0.6,0.4,1,0.4v1.4c-0.4,0-0.8-0.1-1.1-0.2
		c-0.3-0.1-0.6-0.2-0.8-0.4c-0.2-0.2-0.4-0.4-0.5-0.6C30.2,361.1,30.1,360.6,30.1,360z"/>
	<path class="st4" d="M32.1,362c0-0.2,0.1-0.4,0.2-0.5c0.1-0.1,0.3-0.2,0.5-0.2h2.1c0.6,0,1.1-0.1,1.4-0.4c0.3-0.3,0.4-0.7,0.4-1.3
		v-1.4H38v1.4c0,0.6,0.2,1,0.5,1.3c0.3,0.3,0.8,0.4,1.3,0.4H40v1.4h-0.3c-0.7,0-1.2-0.1-1.6-0.3c-0.4-0.2-0.6-0.5-0.8-0.8
		c-0.1,0.3-0.3,0.6-0.7,0.8c-0.4,0.2-0.9,0.3-1.5,0.3h-2.3c-0.2,0-0.3-0.1-0.5-0.2C32.2,362.4,32.1,362.2,32.1,362z M33.6,355.4
		c-0.1,0-0.1-0.1-0.1-0.2s0-0.1,0.1-0.2l0.7-0.7c0.1,0,0.1-0.1,0.2-0.1s0.1,0,0.2,0.1l0.7,0.7c0.1,0,0.1,0.1,0.1,0.2s0,0.1-0.1,0.2
		l-0.7,0.7c-0.1,0-0.1,0.1-0.2,0.1c-0.1,0-0.1,0-0.2-0.1L33.6,355.4z M35.7,355.4c-0.1,0-0.1-0.1-0.1-0.2s0-0.1,0.1-0.2l0.7-0.7
		c0.1,0,0.1-0.1,0.2-0.1s0.1,0,0.2,0.1l0.7,0.7c0.1,0,0.1,0.1,0.1,0.2s0,0.1-0.1,0.2l-0.7,0.7c-0.1,0-0.1,0.1-0.2,0.1
		c-0.1,0-0.1,0-0.2-0.1L35.7,355.4z"/>
	<path class="st4" d="M39.3,362c0-0.2,0.1-0.4,0.2-0.5c0.1-0.1,0.3-0.2,0.5-0.2H42c0.6,0,1.1-0.1,1.4-0.4c0.3-0.3,0.4-0.7,0.4-1.3
		v-1.4h1.3v1.4c0,0.6,0.2,1,0.5,1.3c0.3,0.3,0.8,0.4,1.3,0.4h0.2v1.4h-0.3c-0.7,0-1.2-0.1-1.6-0.3c-0.4-0.2-0.6-0.5-0.8-0.8
		c-0.1,0.3-0.3,0.6-0.7,0.8c-0.4,0.2-0.9,0.3-1.5,0.3H40c-0.2,0-0.3-0.1-0.5-0.2C39.3,362.4,39.3,362.2,39.3,362z M40,364.8l0.7-0.7
		c0.1,0,0.1-0.1,0.2-0.1c0.1,0,0.1,0,0.2,0.1l0.7,0.7c0.1,0,0.1,0.1,0.1,0.2s0,0.1-0.1,0.2l-0.7,0.7c-0.1,0-0.1,0.1-0.2,0.1
		s-0.1,0-0.2-0.1l-0.7-0.7c-0.1,0-0.1-0.1-0.1-0.2S39.9,364.9,40,364.8z M42.1,364.8l0.7-0.7c0.1,0,0.1-0.1,0.2-0.1
		c0.1,0,0.1,0,0.2,0.1l0.7,0.7c0.1,0,0.1,0.1,0.1,0.2s0,0.1-0.1,0.2l-0.7,0.7c-0.1,0-0.1,0.1-0.2,0.1s-0.1,0-0.2-0.1l-0.7-0.7
		c-0.1,0-0.1-0.1-0.1-0.2S42.1,364.9,42.1,364.8z"/>
	<path class="st4" d="M46.6,362.5c-0.1-0.1-0.2-0.3-0.2-0.5c0-0.2,0.1-0.3,0.2-0.5c0.1-0.1,0.3-0.2,0.5-0.2h1.8c0.3,0,0.7,0,1-0.1
		c0.3-0.1,0.6-0.1,0.9-0.2c0.3-0.1,0.5-0.2,0.9-0.4c0.3-0.2,0.6-0.3,0.8-0.4c0.2-0.1,0.5-0.3,0.8-0.5c0.3-0.2,0.6-0.4,0.7-0.5
		c-0.4-0.1-0.9-0.3-1.4-0.5c-0.5-0.2-0.9-0.4-1.3-0.5s-0.6-0.2-0.8-0.2c-0.4,0-0.9,0.4-1.5,1.1l-0.8-0.7c0.5-0.7,0.9-1.1,1.1-1.3
		c0.4-0.4,0.9-0.6,1.3-0.6c0.3,0,0.7,0.1,1.1,0.3c0.5,0.2,0.9,0.4,1.3,0.6c0.4,0.2,0.9,0.4,1.6,0.6c0.6,0.2,1.2,0.3,1.9,0.3h1.1
		l-0.3,1.4h-0.5c-0.3,0-0.6,0.1-0.9,0.1c0.1,0.5,0.4,0.9,0.8,1.2c0.4,0.3,1,0.4,1.8,0.4v1.4c-1.2,0-2-0.2-2.6-0.6
		c-0.6-0.4-0.9-1-1.1-1.9c-0.2,0.1-0.6,0.3-1,0.6c-0.4,0.3-0.8,0.5-1.1,0.7c-0.3,0.2-0.7,0.4-1.1,0.6s-0.9,0.4-1.3,0.5
		c-0.5,0.1-1,0.2-1.5,0.2h-1.8C46.9,362.7,46.8,362.7,46.6,362.5z M49.5,364.9l0.8-0.8c0.1,0,0.1-0.1,0.2-0.1s0.1,0,0.2,0.1l0.8,0.8
		c0.1,0,0.1,0.1,0.1,0.2s0,0.1-0.1,0.2l-0.8,0.8c-0.1,0.1-0.1,0.1-0.2,0.1s-0.1,0-0.2-0.1l-0.8-0.8c-0.1-0.1-0.1-0.1-0.1-0.2
		S49.5,364.9,49.5,364.9z"/>
	<path class="st4" d="M57.7,362c0-0.2,0.1-0.3,0.2-0.5c0.1-0.1,0.3-0.2,0.5-0.2h2.3c1,0,1.5-0.4,1.5-1.3c0-0.2,0-0.5-0.1-0.9
		c-0.1-0.3-0.2-0.6-0.2-0.8c-0.1-0.2-0.2-0.4-0.3-0.8l1.3-0.5c0.4,1.1,0.7,2.2,0.7,3c0,1.7-0.9,2.6-2.8,2.6h-2.3
		c-0.2,0-0.3-0.1-0.5-0.2C57.8,362.4,57.7,362.2,57.7,362z M57.9,364.9l0.7-0.7c0.1,0,0.1-0.1,0.2-0.1s0.1,0,0.2,0.1l0.7,0.7
		c0.1,0,0.1,0.1,0.1,0.2c0,0.1,0,0.1-0.1,0.2L59,366c-0.1,0-0.1,0.1-0.2,0.1c-0.1,0-0.1,0-0.2-0.1l-0.7-0.7
		c-0.1-0.1-0.1-0.1-0.1-0.2C57.9,365,57.9,364.9,57.9,364.9z M60.1,364.9l0.7-0.7c0.1,0,0.1-0.1,0.2-0.1s0.1,0,0.2,0.1l0.7,0.7
		c0.1,0,0.1,0.1,0.1,0.2c0,0.1,0,0.1-0.1,0.2l-0.7,0.7c-0.1,0-0.1,0.1-0.2,0.1c-0.1,0-0.1,0-0.2-0.1l-0.7-0.7
		c-0.1-0.1-0.1-0.1-0.1-0.2C60,365,60,364.9,60.1,364.9z"/>
	<path class="st4" d="M69,361.3c1,0,1.8-0.3,2.3-0.9c-0.1-1.1-0.9-2.5-2.3-4.1l1-0.9c0.6,0.6,1.1,1.3,1.7,2.1
		c0.3,0.5,0.5,0.9,0.7,1.5c0.2,0.5,0.3,1,0.3,1.5c0,0.2-0.1,0.5-0.4,0.9c-0.1,0.1-0.1,0.1-0.1,0.2c-0.8,0.8-1.9,1.2-3.1,1.2
		c-1,0-1.9-0.3-2.9-0.8l0.6-1.3C67.3,361.1,68.1,361.3,69,361.3z"/>
	<path class="st4" d="M87.7,364.7L87.7,364.7c-0.5,0.7-1.3,1.2-2.3,1.7c-1,0.4-2,0.6-3,0.6c-0.9,0-1.7-0.2-2.4-0.5
		c-0.7-0.4-1.3-0.9-1.5-1.6c-0.1-0.4-0.2-0.8-0.2-1.2c0-1.1,0.5-2.4,1.4-3.9l0.9,0.6c-0.6,1.1-0.9,2.1-0.9,3c0,0.5,0.1,1,0.4,1.3
		c0.3,0.3,0.6,0.6,1,0.7c0.4,0.1,0.9,0.2,1.4,0.2c0.9,0,1.8-0.2,2.6-0.5c0.9-0.4,1.5-0.8,1.8-1.3c0-0.1,0.1-0.2,0.1-0.3
		c0-0.1-0.1-0.2-0.1-0.3c-0.1-0.1-0.3-0.2-0.5-0.3c-0.2-0.1-0.4-0.2-0.6-0.3c-0.2-0.1-0.4-0.2-0.7-0.3c-0.3-0.1-0.5-0.2-0.6-0.2
		c-0.2-0.1-0.4-0.2-0.5-0.4c-0.1-0.2-0.2-0.5-0.2-0.8c0-0.3,0.1-0.7,0.4-1.2c0.4-0.8,0.9-1.4,1.5-1.9c0.5-0.5,1.1-0.7,1.6-0.7
		c0.9,0,1.7,0.6,2.3,1.9l-1,0.8c-0.3-0.4-0.5-0.8-0.8-1c-0.2-0.2-0.5-0.3-0.7-0.3c-0.2,0-0.5,0.1-0.7,0.3c-0.2,0.2-0.5,0.5-0.9,0.8
		c-0.3,0.4-0.5,0.6-0.5,0.9c0,0.1,0,0.2,0.1,0.2s0.1,0.1,0.2,0.1c0.1,0,0.1,0.1,0.3,0.1c0.8,0.3,1.3,0.5,1.6,0.7
		c0.8,0.4,1.2,1,1.2,1.6C88.4,363.6,88.2,364.2,87.7,364.7z"/>
	<path class="st4" d="M91.6,360v-8.6h1.3v8.3c0,0.6,0.1,1,0.4,1.2c0.3,0.3,0.6,0.4,1,0.4v1.4c-0.4,0-0.8-0.1-1.1-0.2
		c-0.3-0.1-0.6-0.2-0.8-0.4c-0.2-0.2-0.4-0.4-0.5-0.6C91.7,361.1,91.6,360.6,91.6,360z"/>
	<path class="st4" d="M94.1,362.7c-0.2,0-0.3-0.1-0.4-0.2c-0.1-0.1-0.1-0.3-0.1-0.5c0-0.2,0-0.4,0.1-0.5c0.1-0.1,0.2-0.2,0.4-0.2
		h3.5v1.4H94.1z"/>
	<path class="st4" d="M97.1,362.5c-0.1-0.1-0.2-0.3-0.2-0.5s0.1-0.4,0.2-0.5c0.1-0.1,0.3-0.2,0.5-0.2h1.4c0.4,0,0.7,0,1-0.1
		c-0.8-0.6-1.2-1.2-1.2-2c0-0.7,0.3-1.3,0.8-2c0.3-0.3,0.6-0.6,0.9-0.8c-0.3-0.1-0.4-0.2-0.5-0.2l0.4-1.3c0.8,0.3,1.6,0.7,2.3,1.1
		c0.7,0.4,1.3,0.7,1.7,1c0.4,0.3,0.7,0.6,1.1,0.9c0.8,0.7,1.2,1.5,1.2,2.4c0,0.8-0.3,1.5-1,2.3c-0.1,0.1-0.4,0.2-0.9,0.2
		s-1-0.1-1.6-0.2c-0.6-0.1-1.2-0.3-1.7-0.5c-0.7,0.5-1.4,0.7-2.2,0.7h-1.8C97.4,362.7,97.3,362.7,97.1,362.5z M100.1,359
		c0,0.5,0.5,0.9,1.5,1.4c0.5-0.5,0.8-1,0.8-1.6c0-0.5-0.1-0.8-0.2-1c-0.1-0.2-0.3-0.3-0.6-0.3c-0.3,0-0.5,0.1-0.8,0.4
		c-0.3,0.3-0.5,0.6-0.6,1C100.1,358.9,100.1,359,100.1,359z M104.8,361.3c0.3,0,0.4,0,0.5-0.1c0.2-0.3,0.4-0.6,0.4-0.9
		c0-0.7-0.7-1.5-2-2.3c0,0.2,0,0.4,0,0.6c0,0.8-0.3,1.6-0.8,2.4C103.6,361.2,104.3,361.3,104.8,361.3z"/>
	<path class="st4" d="M110,361c-0.4-0.3-0.6-0.7-0.6-1.2c0-0.5,0.3-1.1,0.8-1.8s1.2-1.2,2.1-1.8l-0.2-0.9l1.2-0.6l1.1,4.6
		c0.1,0.5,0.2,0.8,0.3,1c0.3,0.7,0.9,1,1.8,1v1.4c-1.4,0-2.3-0.5-2.8-1.4v0c-0.6,0.1-1.1,0.2-1.6,0.2C111,361.5,110.4,361.3,110,361
		z M110.6,359.6c0,0.2,0.1,0.3,0.3,0.4c0.2,0.1,0.5,0.1,0.8,0.1c0.3,0,0.8-0.1,1.4-0.1l-0.5-2.2
		C111.2,358.5,110.6,359.1,110.6,359.6z"/>
	<path class="st4" d="M115.6,362c0-0.2,0.1-0.3,0.2-0.5c0.1-0.1,0.3-0.2,0.5-0.2h2.3c1,0,1.5-0.4,1.5-1.3c0-0.2,0-0.5-0.1-0.9
		c-0.1-0.3-0.2-0.6-0.2-0.8c-0.1-0.2-0.2-0.4-0.3-0.8l1.3-0.5c0.4,1.1,0.7,2.2,0.7,3c0,1.7-0.9,2.6-2.8,2.6h-2.3
		c-0.2,0-0.3-0.1-0.5-0.2C115.7,362.4,115.6,362.2,115.6,362z M117.5,354.3c-0.1,0-0.1-0.1-0.1-0.2s0-0.2,0.1-0.2l0.8-0.8
		c0.1,0,0.1-0.1,0.2-0.1s0.1,0,0.2,0.1l0.8,0.8c0.1,0,0.1,0.1,0.1,0.2s0,0.2-0.1,0.2l-0.8,0.8c-0.1,0-0.1,0.1-0.2,0.1
		s-0.1,0-0.2-0.1L117.5,354.3z"/>
	<path class="st4" d="M123.9,360v-8.6h1.3v8.3c0,0.6,0.1,1,0.4,1.2c0.3,0.3,0.6,0.4,1,0.4v1.4c-0.4,0-0.8-0.1-1.1-0.2
		c-0.3-0.1-0.6-0.2-0.8-0.4c-0.2-0.2-0.4-0.4-0.5-0.6C124,361.1,123.9,360.6,123.9,360z"/>
	<path class="st4" d="M126.1,362.5c-0.1-0.1-0.2-0.3-0.2-0.5c0-0.2,0.1-0.3,0.2-0.5c0.1-0.1,0.3-0.2,0.5-0.2h1.4
		c0.5,0,0.9-0.1,1.2-0.4c0.3-0.2,0.5-0.5,0.6-0.9l0.4-1.7l1.3,0.3l-0.5,2.1c0.6,0.4,1.2,0.6,1.8,0.6c0.4,0,0.7-0.1,1-0.3
		c0.3-0.2,0.5-0.5,0.6-1l0.3-1.4l1.3,0.3l-0.4,1.8c0.5,0.4,1,0.6,1.7,0.6c0.5,0,0.9-0.1,1.1-0.3s0.4-0.4,0.4-0.8c0-0.3,0-0.7-0.1-1
		c-0.1-0.3-0.3-0.9-0.5-1.5l1.3-0.6c0.2,0.7,0.4,1.3,0.5,1.7c0.1,0.4,0.1,0.9,0.1,1.3c0,0.9-0.3,1.5-0.8,1.9
		c-0.5,0.4-1.2,0.6-2.1,0.6c-0.5,0-0.9-0.1-1.4-0.2c-0.4-0.2-0.8-0.4-1-0.6c-0.5,0.6-1.2,0.8-2.1,0.8c-0.4,0-0.9-0.1-1.3-0.2
		c-0.4-0.1-0.8-0.4-1.1-0.6c-0.6,0.6-1.3,0.9-2.1,0.9h-1.5C126.4,362.7,126.3,362.7,126.1,362.5z"/>
	<path class="st4" d="M146.4,364.6c0.3-0.3,0.4-0.6,0.4-1s0-0.8-0.1-1.2c0-0.4-0.2-1-0.3-1.6c-0.2-0.7-0.4-1.2-0.7-1.7l1.1-0.9
		c0.6,1,1,2.1,1.1,3.2c0.1,0.5,0.1,0.9,0.1,1.2s0,0.6,0,1.1c0,0.4-0.1,0.8-0.3,1.2c-0.2,0.4-0.4,0.7-0.7,0.9
		c-0.3,0.3-0.7,0.5-1.1,0.7c-0.8,0.4-1.8,0.7-3.1,0.9l-0.5-1.3c1.1-0.1,2.1-0.4,2.9-0.7C145.8,365.2,146.1,364.9,146.4,364.6z"/>
	<path class="st4" d="M158.4,362.4c-0.6,0.2-1.1,0.3-1.7,0.3c-0.6,0-1-0.1-1.4-0.4c-0.7-0.5-1-1.2-1-2.2c0-0.5,0.1-1,0.3-1.5
		c0.2-0.5,0.5-0.9,0.9-1.2c0.4-0.3,0.9-0.5,1.4-0.5c1,0,1.7,0.4,2.1,1.2c0.5,0.8,0.7,2.1,0.7,3.9c0,0.8-0.3,1.5-0.8,2.3
		s-1.2,1.3-2.1,1.9c-0.9,0.5-1.8,0.9-2.9,1.2l-0.3-1.4c1-0.3,2-0.7,3-1.4c0.5-0.3,0.9-0.7,1.2-1.1
		C158.2,363.3,158.4,362.8,158.4,362.4z M156,359c-0.2,0.3-0.3,0.7-0.3,1s0.1,0.7,0.3,0.9c0.2,0.2,0.5,0.4,0.9,0.4h0.1
		c0.3,0,0.6,0,0.9-0.1c0.3-0.1,0.5-0.2,0.6-0.3l0.1,0.3c-0.1-1.8-0.6-2.7-1.6-2.7C156.5,358.5,156.2,358.7,156,359z"/>
	<path class="st4" d="M174.9,364.7L174.9,364.7c-0.5,0.7-1.3,1.2-2.3,1.7c-1,0.4-2,0.6-3,0.6c-0.9,0-1.7-0.2-2.4-0.5
		c-0.7-0.4-1.3-0.9-1.5-1.6c-0.1-0.4-0.2-0.8-0.2-1.2c0-1.1,0.5-2.4,1.4-3.9l0.9,0.6c-0.6,1.1-0.9,2.1-0.9,3c0,0.5,0.1,1,0.4,1.3
		c0.3,0.3,0.6,0.6,1,0.7c0.4,0.1,0.9,0.2,1.4,0.2c0.9,0,1.8-0.2,2.6-0.5c0.9-0.4,1.5-0.8,1.8-1.3c0-0.1,0.1-0.2,0.1-0.3
		c0-0.1-0.1-0.2-0.1-0.3c-0.1-0.1-0.3-0.2-0.5-0.3c-0.2-0.1-0.4-0.2-0.6-0.3c-0.2-0.1-0.4-0.2-0.7-0.3c-0.3-0.1-0.5-0.2-0.6-0.2
		c-0.2-0.1-0.4-0.2-0.5-0.4c-0.1-0.2-0.2-0.5-0.2-0.8c0-0.3,0.1-0.7,0.4-1.2c0.4-0.8,0.9-1.4,1.5-1.9c0.5-0.5,1.1-0.7,1.6-0.7
		c0.9,0,1.7,0.6,2.3,1.9l-1,0.8c-0.3-0.4-0.5-0.8-0.8-1c-0.2-0.2-0.5-0.3-0.7-0.3c-0.2,0-0.5,0.1-0.7,0.3c-0.2,0.2-0.5,0.5-0.9,0.8
		c-0.3,0.4-0.5,0.6-0.5,0.9c0,0.1,0,0.2,0.1,0.2s0.1,0.1,0.2,0.1c0.1,0,0.1,0.1,0.3,0.1c0.8,0.3,1.3,0.5,1.6,0.7
		c0.8,0.4,1.2,1,1.2,1.6C175.6,363.6,175.4,364.2,174.9,364.7z"/>
	<path class="st4" d="M182.8,364.6c0.3-0.3,0.4-0.6,0.4-1s0-0.8-0.1-1.2s-0.2-1-0.3-1.6c-0.2-0.7-0.4-1.2-0.7-1.7l1.1-0.9
		c0.6,1,1,2.1,1.1,3.2c0.1,0.5,0.1,0.9,0.1,1.2s0,0.6,0,1.1c0,0.4-0.1,0.8-0.3,1.2c-0.2,0.4-0.4,0.7-0.7,0.9
		c-0.3,0.3-0.7,0.5-1.1,0.7c-0.8,0.4-1.8,0.7-3.1,0.9l-0.5-1.3c1.1-0.1,2.1-0.4,2.9-0.7C182.2,365.2,182.5,364.9,182.8,364.6z
		 M182.5,356c0-0.1,0-0.2,0.1-0.2l0.8-0.8c0.1,0,0.1-0.1,0.2-0.1s0.1,0,0.2,0.1l0.8,0.8c0.1,0,0.1,0.1,0.1,0.2s0,0.2-0.1,0.2
		l-0.8,0.8c-0.1,0-0.1,0.1-0.2,0.1s-0.1,0-0.2-0.1l-0.8-0.8C182.6,356.2,182.5,356.1,182.5,356z"/>
	<path class="st4" d="M186.6,360v-8.6h1.3v8.3c0,0.6,0.1,1,0.4,1.2c0.3,0.3,0.6,0.4,1,0.4v1.4c-0.4,0-0.8-0.1-1.1-0.2
		c-0.3-0.1-0.6-0.2-0.8-0.4c-0.2-0.2-0.4-0.4-0.5-0.6C186.7,361.1,186.6,360.6,186.6,360z"/>
	<path class="st4" d="M188.8,362.5c-0.1-0.1-0.2-0.3-0.2-0.5c0-0.2,0.1-0.3,0.2-0.5c0.1-0.1,0.3-0.2,0.5-0.2h1.8c0.3,0,0.7,0,1-0.1
		c0.3-0.1,0.6-0.1,0.9-0.2c0.3-0.1,0.5-0.2,0.9-0.4c0.3-0.2,0.6-0.3,0.8-0.4c0.2-0.1,0.5-0.3,0.8-0.5c0.3-0.2,0.6-0.4,0.7-0.5
		c-0.4-0.1-0.9-0.3-1.4-0.5c-0.5-0.2-0.9-0.4-1.3-0.5s-0.6-0.2-0.8-0.2c-0.4,0-0.9,0.4-1.5,1.1l-0.8-0.7c0.5-0.7,0.9-1.1,1.1-1.3
		c0.4-0.4,0.9-0.6,1.3-0.6c0.3,0,0.7,0.1,1.1,0.3c0.5,0.2,0.9,0.4,1.3,0.6c0.4,0.2,0.9,0.4,1.6,0.6c0.6,0.2,1.2,0.3,1.9,0.3h1.1
		l-0.3,1.4h-0.5c-0.3,0-0.6,0.1-0.9,0.1c0.1,0.5,0.4,0.9,0.8,1.2c0.4,0.3,1,0.4,1.8,0.4v1.4c-1.2,0-2-0.2-2.6-0.6
		c-0.6-0.4-0.9-1-1.1-1.9c-0.2,0.1-0.6,0.3-1,0.6s-0.8,0.5-1.1,0.7s-0.7,0.4-1.1,0.6s-0.9,0.4-1.3,0.5c-0.5,0.1-1,0.2-1.5,0.2h-1.8
		C189.1,362.7,188.9,362.7,188.8,362.5z M191.7,364.9l0.8-0.8c0.1,0,0.1-0.1,0.2-0.1s0.1,0,0.2,0.1l0.8,0.8c0.1,0,0.1,0.1,0.1,0.2
		s0,0.1-0.1,0.2l-0.8,0.8c-0.1,0.1-0.1,0.1-0.2,0.1s-0.1,0-0.2-0.1l-0.8-0.8c-0.1-0.1-0.1-0.1-0.1-0.2S191.6,364.9,191.7,364.9z"/>
	<path class="st4" d="M200.4,362.7c-0.2,0-0.3-0.1-0.4-0.2c-0.1-0.1-0.1-0.3-0.1-0.5c0-0.2,0-0.4,0.1-0.5c0.1-0.1,0.2-0.2,0.4-0.2
		h3.5v1.4H200.4z"/>
	<path class="st4" d="M203.2,362c0-0.2,0.1-0.4,0.2-0.5c0.1-0.1,0.3-0.2,0.5-0.2h0.3c0.2,0,0.5,0,0.7-0.1s0.4-0.1,0.6-0.2
		c0.2-0.1,0.3-0.2,0.5-0.3c0.1-0.1,0.3-0.2,0.4-0.4c0.1-0.1,0.2-0.3,0.3-0.4s0.2-0.3,0.2-0.4c0.1-0.1,0.1-0.3,0.2-0.5
		c0,0,0-0.1,0-0.1c0.3-0.6,0.6-1,0.9-1.3s0.7-0.4,1.1-0.4c0.5,0,0.9,0.2,1.4,0.6c0.4,0.4,0.8,0.8,1.1,1.4c0.3,0.6,0.4,1.2,0.4,1.8
		c0,1.3-0.6,2-1.7,2c-0.3,0-0.6,0-0.9-0.1c-0.4-0.1-0.6-0.1-0.9-0.2c-0.2-0.1-0.5-0.2-1-0.3s-0.7-0.3-0.8-0.3
		c-0.5,0.5-1.3,0.7-2.3,0.7h-0.4c-0.2,0-0.3-0.1-0.5-0.2C203.3,362.4,203.2,362.2,203.2,362z M207.4,360.9c0,0,0.1,0,0.3,0.1
		c0.2,0.1,0.3,0.1,0.3,0.1c0,0,0.1,0,0.3,0.1c0.1,0.1,0.2,0.1,0.3,0.1c0.1,0,0.2,0,0.3,0.1c0.1,0,0.2,0.1,0.3,0.1
		c0.1,0,0.2,0,0.3,0.1s0.2,0,0.3,0c0.1,0,0.2,0,0.2,0c0.4,0,0.7-0.2,0.7-0.5c0-0.2-0.1-0.5-0.2-0.8c-0.2-0.4-0.4-0.7-0.6-1
		c-0.3-0.3-0.5-0.5-0.8-0.5c-0.2,0-0.5,0.3-0.8,0.8c-0.1,0.1-0.2,0.4-0.4,0.7C207.7,360.5,207.5,360.8,207.4,360.9z"/>
	<path class="st4" d="M227.4,364.7L227.4,364.7c-0.5,0.7-1.3,1.2-2.3,1.7c-1,0.4-2,0.6-3,0.6c-0.9,0-1.7-0.2-2.4-0.5
		c-0.7-0.4-1.3-0.9-1.5-1.6c-0.1-0.4-0.2-0.8-0.2-1.2c0-1.1,0.5-2.4,1.4-3.9l0.9,0.6c-0.6,1.1-0.9,2.1-0.9,3c0,0.5,0.1,1,0.4,1.3
		s0.6,0.6,1,0.7c0.4,0.1,0.9,0.2,1.4,0.2c0.9,0,1.8-0.2,2.6-0.5c0.9-0.4,1.5-0.8,1.8-1.3c0-0.1,0.1-0.2,0.1-0.3c0-0.1,0-0.2-0.1-0.3
		c-0.1-0.1-0.3-0.2-0.5-0.3c-0.2-0.1-0.4-0.2-0.6-0.3c-0.2-0.1-0.4-0.2-0.7-0.3c-0.3-0.1-0.5-0.2-0.6-0.2c-0.2-0.1-0.4-0.2-0.5-0.4
		s-0.2-0.5-0.2-0.8c0-0.3,0.1-0.7,0.4-1.2c0.4-0.8,0.9-1.4,1.5-1.9s1.1-0.7,1.6-0.7c0.9,0,1.7,0.6,2.3,1.9l-1,0.8
		c-0.3-0.4-0.5-0.8-0.8-1c-0.2-0.2-0.5-0.3-0.7-0.3c-0.2,0-0.5,0.1-0.7,0.3c-0.2,0.2-0.5,0.5-0.9,0.8c-0.3,0.4-0.5,0.6-0.5,0.9
		c0,0.1,0,0.2,0.1,0.2s0.1,0.1,0.2,0.1c0.1,0,0.1,0.1,0.3,0.1c0.8,0.3,1.3,0.5,1.6,0.7c0.8,0.4,1.2,1,1.2,1.6
		C228,363.6,227.8,364.2,227.4,364.7z"/>
	<path class="st4" d="M231.3,360v-8.6h1.3v8.3c0,0.6,0.1,1,0.4,1.2c0.3,0.3,0.6,0.4,1,0.4v1.4c-0.4,0-0.8-0.1-1.1-0.2
		c-0.3-0.1-0.6-0.2-0.8-0.4c-0.2-0.2-0.4-0.4-0.5-0.6C231.4,361.1,231.3,360.6,231.3,360z"/>
	<path class="st4" d="M233.8,362.7c-0.2,0-0.3-0.1-0.4-0.2c-0.1-0.1-0.1-0.3-0.1-0.5c0-0.2,0-0.4,0.1-0.5c0.1-0.1,0.2-0.2,0.4-0.2
		h3.5v1.4H233.8z"/>
	<path class="st4" d="M236.8,362.5c-0.1-0.1-0.2-0.3-0.2-0.5s0.1-0.4,0.2-0.5c0.1-0.1,0.3-0.2,0.5-0.2h1.4c0.4,0,0.7,0,1-0.1
		c-0.8-0.6-1.2-1.2-1.2-2c0-0.7,0.3-1.3,0.8-2c0.3-0.3,0.6-0.6,0.9-0.8c-0.3-0.1-0.4-0.2-0.5-0.2l0.4-1.3c0.8,0.3,1.6,0.7,2.3,1.1
		c0.7,0.4,1.3,0.7,1.7,1c0.4,0.3,0.7,0.6,1.1,0.9c0.8,0.7,1.2,1.5,1.2,2.4c0,0.8-0.3,1.5-1,2.3c-0.1,0.1-0.4,0.2-0.9,0.2
		c-0.5,0-1-0.1-1.6-0.2c-0.6-0.1-1.2-0.3-1.7-0.5c-0.7,0.5-1.4,0.7-2.2,0.7h-1.8C237.1,362.7,237,362.7,236.8,362.5z M239.8,359
		c0,0.5,0.5,0.9,1.5,1.4c0.5-0.5,0.8-1,0.8-1.6c0-0.5-0.1-0.8-0.2-1s-0.3-0.3-0.6-0.3s-0.5,0.1-0.8,0.4c-0.3,0.3-0.5,0.6-0.6,1
		C239.8,358.9,239.8,359,239.8,359z M244.4,361.3c0.3,0,0.4,0,0.5-0.1c0.2-0.3,0.4-0.6,0.4-0.9c0-0.7-0.7-1.5-2-2.3
		c0,0.2,0,0.4,0,0.6c0,0.8-0.3,1.6-0.8,2.4C243.3,361.2,244,361.3,244.4,361.3z"/>
	<path class="st4" d="M261.1,361.3l0.5,0v1.4c-0.5,0-0.9,0-1.1,0c-0.3,0-0.6-0.1-1-0.1c-0.4-0.1-0.7-0.2-1-0.3
		c-0.5,0.3-1.2,0.5-2,0.5h-4.5c-0.9,0-1.9-0.2-2.9-0.7l0.6-1.3c0.5,0.3,0.9,0.4,1.5,0.5c0.4-0.5,0.8-0.9,1-1.2v-8.6h1.3v7.3
		c1.4-1.3,2.5-2,3.4-2.1c0.1,0,0.3,0,0.4,0c0.8,0,1.4,0.3,2,0.9c0.5,0.6,0.8,1.3,0.8,2.1c0,0.6-0.2,1.2-0.5,1.7
		C259.8,361.3,260.4,361.3,261.1,361.3z M256,361.3c0.6,0,1.1-0.1,1.6-0.3c0.4-0.2,0.8-0.4,1-0.6c0-0.2,0.1-0.3,0.1-0.4
		c0-0.5-0.2-0.9-0.5-1.2c-0.3-0.4-0.8-0.6-1.2-0.6c-0.4,0-0.8,0.1-1.2,0.3c-0.4,0.2-0.9,0.5-1.3,0.8c-0.7,0.6-1.4,1.2-2,1.9H256z"/>
	<path class="st4" d="M260.9,362c0-0.2,0.1-0.4,0.2-0.5c0.1-0.1,0.3-0.2,0.5-0.2h2.1c0.6,0,1.1-0.1,1.4-0.4c0.3-0.3,0.4-0.7,0.4-1.3
		v-1.4h1.3v1.4c0,0.6,0.2,1,0.5,1.3c0.3,0.3,0.8,0.4,1.3,0.4h0.2v1.4h-0.3c-0.7,0-1.2-0.1-1.6-0.3c-0.4-0.2-0.6-0.5-0.8-0.8
		c-0.1,0.3-0.3,0.6-0.7,0.8c-0.4,0.2-0.9,0.3-1.5,0.3h-2.3c-0.2,0-0.3-0.1-0.5-0.2C261,362.4,260.9,362.2,260.9,362z M261.6,364.8
		l0.7-0.7c0,0,0.1-0.1,0.2-0.1c0.1,0,0.1,0,0.2,0.1l0.7,0.7c0,0,0.1,0.1,0.1,0.2s0,0.1-0.1,0.2l-0.7,0.7c0,0-0.1,0.1-0.2,0.1
		c-0.1,0-0.1,0-0.2-0.1l-0.7-0.7c0,0-0.1-0.1-0.1-0.2S261.5,364.9,261.6,364.8z M263.7,364.8l0.7-0.7c0,0,0.1-0.1,0.2-0.1
		c0.1,0,0.1,0,0.2,0.1l0.7,0.7c0,0,0.1,0.1,0.1,0.2s0,0.1-0.1,0.2l-0.7,0.7c0,0-0.1,0.1-0.2,0.1c-0.1,0-0.1,0-0.2-0.1l-0.7-0.7
		c0,0-0.1-0.1-0.1-0.2S263.7,364.9,263.7,364.8z"/>
	<path class="st4" d="M268.3,362.5c-0.1-0.1-0.2-0.3-0.2-0.5c0-0.2,0.1-0.3,0.2-0.5c0.1-0.1,0.3-0.2,0.5-0.2h1.8
		c1.1,0,2.3-0.4,3.6-1.2c0.2-0.1,0.5-0.3,0.8-0.5c0.3-0.2,0.6-0.4,0.7-0.5c-0.4-0.1-0.9-0.3-1.4-0.5s-0.9-0.4-1.3-0.5
		c-0.3-0.1-0.6-0.2-0.8-0.2c-0.4,0-0.9,0.4-1.5,1.1l-0.8-0.7c0.5-0.7,0.9-1.1,1.1-1.3c0.4-0.4,0.9-0.6,1.3-0.6
		c0.5,0,1.3,0.3,2.4,0.9c0.4,0.2,0.9,0.4,1.6,0.6c0.6,0.2,1.2,0.3,1.9,0.3h1.1l-0.3,1.4h-0.5c-0.3,0-0.6,0.1-0.9,0.1
		c0.1,0.5,0.4,0.9,0.8,1.2s1,0.4,1.8,0.4v1.4c-1.2,0-2-0.2-2.6-0.6c-0.6-0.4-0.9-1-1.1-1.9c-0.2,0.1-0.6,0.3-1,0.6s-0.8,0.5-1.1,0.7
		s-0.7,0.4-1.1,0.6c-0.9,0.4-1.8,0.6-2.8,0.6h-1.8C268.6,362.7,268.4,362.7,268.3,362.5z"/>
	<path class="st4" d="M279.9,362.7c-0.2,0-0.3-0.1-0.4-0.2c-0.1-0.1-0.1-0.3-0.1-0.5c0-0.2,0-0.4,0.1-0.5c0.1-0.1,0.2-0.2,0.4-0.2
		h3.5v1.4H279.9z"/>
	<path class="st4" d="M282.7,362c0-0.2,0.1-0.4,0.2-0.5c0.1-0.1,0.3-0.2,0.5-0.2h0.3c0.2,0,0.5,0,0.7-0.1c0.2,0,0.4-0.1,0.6-0.2
		c0.2-0.1,0.3-0.2,0.5-0.3c0.1-0.1,0.3-0.2,0.4-0.4c0.1-0.1,0.2-0.3,0.3-0.4s0.2-0.3,0.2-0.4c0.1-0.1,0.1-0.3,0.2-0.5
		c0,0,0-0.1,0-0.1c0.3-0.6,0.6-1,0.9-1.3s0.7-0.4,1.1-0.4c0.5,0,0.9,0.2,1.4,0.6c0.4,0.4,0.8,0.8,1.1,1.4c0.3,0.6,0.4,1.2,0.4,1.8
		c0,1.3-0.6,2-1.7,2c-0.3,0-0.6,0-0.9-0.1s-0.6-0.1-0.9-0.2c-0.2-0.1-0.5-0.2-1-0.3s-0.7-0.3-0.8-0.3c-0.5,0.5-1.3,0.7-2.3,0.7h-0.4
		c-0.2,0-0.3-0.1-0.5-0.2C282.7,362.4,282.7,362.2,282.7,362z M286.9,360.9c0,0,0.1,0,0.3,0.1c0.2,0.1,0.3,0.1,0.3,0.1
		c0,0,0.1,0,0.3,0.1c0.1,0.1,0.2,0.1,0.3,0.1c0.1,0,0.2,0,0.3,0.1c0.1,0,0.2,0.1,0.3,0.1c0.1,0,0.2,0,0.3,0.1s0.2,0,0.3,0
		c0.1,0,0.2,0,0.2,0c0.4,0,0.7-0.2,0.7-0.5c0-0.2-0.1-0.5-0.2-0.8s-0.4-0.7-0.6-1c-0.3-0.3-0.5-0.5-0.8-0.5c-0.2,0-0.5,0.3-0.8,0.8
		c-0.1,0.1-0.2,0.4-0.4,0.7S287,360.8,286.9,360.9z"/>
	<path class="st4" d="M301.3,364.6c0.3-0.3,0.4-0.6,0.4-1s0-0.8-0.1-1.2s-0.2-1-0.3-1.6c-0.2-0.7-0.4-1.2-0.7-1.7l1.1-0.9
		c0.6,1,1,2.1,1.1,3.2c0.1,0.5,0.1,0.9,0.1,1.2s0,0.6,0,1.1c0,0.4-0.1,0.8-0.3,1.2c-0.2,0.4-0.4,0.7-0.7,0.9
		c-0.3,0.3-0.7,0.5-1.1,0.7c-0.8,0.4-1.8,0.7-3.1,0.9l-0.5-1.3c1.1-0.1,2.1-0.4,2.9-0.7C300.7,365.2,301.1,364.9,301.3,364.6z"/>
	<path class="st4" d="M308,361.3c1,0,1.8-0.3,2.3-0.9c-0.1-1.1-0.9-2.5-2.4-4.1l1-0.9c0.6,0.6,1.1,1.3,1.7,2.1
		c0.3,0.5,0.5,0.9,0.7,1.5s0.3,1,0.3,1.5c0,0.2-0.1,0.5-0.4,0.9c-0.1,0.1-0.1,0.1-0.1,0.2c-0.8,0.8-1.9,1.2-3.1,1.2
		c-1,0-1.9-0.3-2.9-0.8l0.6-1.3C306.4,361.1,307.1,361.3,308,361.3z"/>
</g>
<g>
	<path class="st5" d="M119.6,83.3c15.5-15.7,27.7-33.9,37.7-54.1c0,0.3,0,0.5,0,0.7c0,17.7,0,35.4,0,53.2c0,0.6-0.2,0.8-0.7,1
		c-1.8,0.7-3,2-3.1,4.2c-0.2,2.2,0.5,3.8,2.3,5c1.2,0.8,2.4,1,3.7,0.6c2.1-0.7,3.4-2.4,3.3-5.2c-0.1-2.6-1.3-4.1-3.7-4.7
		c-0.2,0-0.3-0.3-0.4-0.5c-0.1-0.2,0-0.4,0-0.6c0-5,0.4-10,0.4-15c0-12.6,0.3-25.2,0.3-37.8c0-0.2,0-0.5,0-0.9
		c0.9,1.9,1.6,3.6,2.5,5.3c1.2,2.2,2.2,4.4,3.5,6.5c2.8,4.6,5.4,9.2,8.3,13.6c2.9,4.4,6,8.6,9,12.9c3.4,4.7,7.2,8.9,11.3,12.9
		c0.9,0.9,1.9,1.8,2.8,2.8c-2.5,2.9-4,6.3-5.4,9.9c-1.7,4.7-3.2,9.5-4.3,14.4c-2,8.7-3.5,17.6-4.6,26.5c-0.3,2.7-0.6,5.3-0.9,8
		c0,0.4-0.1,0.6-0.5,0.6c-5.4,0-10.8,0-16.2,0c-0.1,0-0.1,0-0.2-0.1c0.1-0.2,0.2-0.4,0.3-0.7c1.1-3,2.3-6,3.2-9.1
		c1-3.6,1.5-7.3,1.4-11c-0.2-5-1.5-9.7-4.7-13.6c-1.7-2.1-3.7-3.4-6.3-3.7c-1.6-0.2-2.7,0.5-3.7,1.7c-2.9,3.5-4.9,7.6-6.7,11.9
		c-0.7,1.8-1.4,3.6-1.9,5.4c-1.2,3.8,0.9,7.4,4.5,8c1.7,0.3,3.3,0.2,4.9-0.7c0.8-0.4,1.6-0.3,2.3,0.7c0.9,1.2,1.7,2.5,2.5,3.8
		c0.6,0.9,0.5,1.9,0,2.8c-0.9,1.7-2.2,3-3.6,4.3c-0.2,0.1-0.5,0.2-0.7,0.2c-7.1,0-14.1,0-21.2,0c-0.5,0-0.6-0.2-0.7-0.7
		c-0.8-7.5-1.8-15-3.2-22.5c-0.8-4.2-1.7-8.3-2.7-12.4c-1-4.5-2.4-8.8-3.9-13.1C123.4,90.2,121.8,86.6,119.6,83.3z"/>
	<path class="st5" d="M128.8,178.9c0,0,0-0.5,0-0.8c0-5.8-0.2-11.6-0.2-17.5c0-1.9,0.6-2.9,2.4-2.9c18.2,0,36.4,0,54.6,0
		c1.8,0,2.6,0.9,2.6,2.8c0,5.9,0,11.7,0,17.6c0,0.2,0,0.7,0,0.7C168.3,178.9,149,178.9,128.8,178.9z"/>
	<path class="st5" d="M202,75.5c-1.3,1.9-2.5,3.7-3.8,5.6c-0.2-0.2-0.5-0.5-0.7-0.7c-4.2-3.5-7.9-7.7-11.2-12.1
		c-2.9-3.9-5.8-7.8-8.5-11.8c-3-4.5-5.9-9.1-8.6-13.7c-2.4-4.1-4.7-8.4-6.9-12.6c-0.9-1.7-1.7-3.4-2.5-5.2c-0.2-0.4-0.5-0.6-0.9-0.6
		c-1.6,0-1.6,0-2.3,1.5c-2.4,5.4-5.1,10.6-8.1,15.6c-2.7,4.4-5.3,8.8-8.2,13c-3,4.4-6.2,8.6-9.4,12.9c-3.3,4.5-7,8.5-10.9,12.4
		c-0.4,0.4-0.8,0.8-1.2,1.2c-1.4-1.8-2.7-3.5-4-5.2c1.3-1.2,2.6-2.2,3.8-3.3c1.4-1.3,2.9-2.6,4.1-4.1c3.6-4.2,7.2-8.4,10.6-12.9
		c3-3.9,5.8-7.9,8.4-12.1c2.9-4.4,5.6-8.8,8.2-13.4c2.4-4.1,4.6-8.4,6.7-12.7c0.5-1,0.9-1.2,1.9-1.3c0.9,0,1.1,0.4,1.5,1.1
		c1.6,2.9,3.1,5.9,4.8,8.7c3.1,5.4,6.3,10.7,9.6,16c2.6,4,5.4,7.9,8.1,11.8c3.5,4.9,7.4,9.5,11.5,13.8c2.5,2.7,5.2,5.2,7.8,7.8
		C201.8,75.5,201.9,75.5,202,75.5z"/>
	<path class="st5" d="M130,156.1c0.1-1.8,0.8-2.3,1.9-2.4c0.2,0,0.3-0.1,0.5-0.1c17.3,0,34.7,0.1,52,0.1c1.5,0,2.3,0.6,2.4,2.4
		C167.8,156.1,148.9,156.1,130,156.1z"/>
	<path class="st5" d="M132.4,148.2c0.1-1.8,0.8-2.6,2.1-2.6c15.9,0,31.9,0.2,47.8,0.2c1.2,0,1.9,0.7,2.1,2.4
		C167,148.2,149.7,148.2,132.4,148.2z"/>
	<path class="st5" d="M131.2,151.7c0.2-1.8,0.9-2.2,2.2-2.2c16.7,0,33.4,0,50.1,0c1.3,0,2,0.5,2.2,2.2
		C167.5,151.7,149.3,151.7,131.2,151.7z"/>
</g>
</svg>
