<?xml version="1.0" encoding="iso-8859-1"?>
      <svg id="logosvg" xmlns="http://www.w3.org/2000/svg" xml:space="preserve" width="90px" version="1.1" style="shape-rendering:geometricPrecision; text-rendering:geometricPrecision; image-rendering:optimizeQuality; fill-rule:evenodd; clip-rule:evenodd"
      viewBox="0 0 2550 3300"
       xmlns:xlink="http://www.w3.org/1999/xlink">
       <defs>
        <style type="text/css">
         <![CDATA[
          .fil1 {fill:#fff}
          .fil0 {fill:#fff}
         ]]>
        </style>
       </defs>
       <g id="Layer_x0020_1">
        <metadata id="CorelCorpID_0Corel-Layer"/>
        <path class="fil0" d="M774 993c232,-230 416,-497 567,-793 0,263 0,527 0,790 1,7 -3,13 -10,15 -27,8 -46,33 -47,61 -2,32 8,56 34,74 16,12 37,15 56,9 31,-11 51,-35 50,-77 -2,-38 -20,-61 -55,-70 -6,-4 -7,-9 -6,-16 0,-262 3,-524 3,-787 97,243 376,609 570,793 -142,160 -200,630 -227,862 -1,5 -2,8 -8,8 -82,0 -162,0 -244,0 -1,0 -2,0 -4,-1 2,-3 3,-6 4,-10 16,-44 34,-88 48,-133 34,-118 30,-263 -50,-361 -25,-31 -56,-50 -95,-54 -23,-2 -40,8 -55,25 -55,65 -103,170 -130,254 -18,55 13,109 68,117 25,5 51,2 74,-10 12,-6 23,-4 35,10 13,18 25,37 38,56 7,13 7,29 0,41 -14,24 -33,45 -54,63 -3,2 -7,3 -10,3 -107,0 -213,0 -319,0 -4,0 -9,-3 -10,-7 0,-209 -111,-685 -223,-862z"/>
        <path class="fil0" d="M903 2392l1 -263c0,-29 13,-42 41,-42l821 0c27,0 40,13 40,41l0 264 -903 0z"/>
        <path class="fil0" d="M2012 879l-57 82c-4,-3 -7,-7 -12,-10 -207,-167 -444,-557 -562,-797 -15,-31 -39,-34 -54,0 -110,244 -357,609 -552,790 -6,6 -11,12 -18,18l-60 -77c268,-235 468,-541 630,-857 11,-24 37,-28 50,-3 107,196 443,736 635,854z"/>
        <path class="fil0" d="M929 2059c1,-23 12,-32 29,-34 2,0 4,-1 7,-1 261,0 522,1 783,1 21,0 34,11 36,33l-855 1z"/>
        <path class="fil0" d="M965 1937c1,-23 13,-33 32,-33 239,0 479,0 718,0 18,0 29,11 31,34l-781 0 0 -1z"/>
        <path class="fil0" d="M947 1992c2,-22 13,-31 32,-31 251,0 502,-1 754,-1 19,0 29,10 33,31l-819 1z"/>
        <path class="fil1" d="M431 3007c0,3 0,5 0,7 56,0 133,12 183,0 -9,-28 -24,-55 -42,-77l43 -70c3,-6 7,-6 10,-1 47,64 59,146 52,223 -12,26 -238,20 -264,12 -96,25 -417,89 -413,-81 0,-27 12,-58 34,-93 23,-35 20,-10 15,3 -3,11 -5,22 -5,34 0,128 257,81 337,67 -6,-24 -24,-52 -56,-83l49 -65c3,-3 6,-3 9,0 33,33 50,79 48,124zm177 -157l-69 70 -89 -70 67 -69 91 69zm-400 50l-69 70 -89 -71 67 -69 91 70zm148 -5l-69 70 -90 -70 68 -69 91 69z"/>
        <path class="fil1" d="M1242 3085c-21,33 -174,15 -222,15 -6,40 -21,78 -43,112 -33,53 -72,80 -116,80 -26,0 -53,-11 -81,-33 -24,-18 -44,-40 -62,-64 -14,-17 0,-19 11,-10 81,49 186,23 235,-58 4,-7 8,-15 11,-22 -89,-6 -133,-32 -133,-79 0,-45 37,-165 91,-165 51,0 91,108 91,153 53,1 107,7 161,7 -29,-11 -57,-25 -84,-41 -23,-15 -35,-32 -35,-50 0,-17 13,-43 38,-76 25,-35 46,-53 63,-53 86,0 115,223 75,284zm-271 -70c-10,-19 -36,-59 -55,-59 -12,0 -22,12 -32,36 26,16 57,25 87,23zm270 -280l-69 70 -89 -71 67 -69 91 70zm-20 226c-6,-24 -33,-101 -62,-101 -18,0 -36,13 -54,40 36,23 76,44 116,61z"/>
        <path class="fil1" d="M1958 3089c-2,6 -13,13 -29,13l-247 -1c-18,0 -32,-9 -42,-28 -8,-21 -14,-44 -17,-66 -16,37 -28,56 -34,59 -26,0 -53,-5 -77,-16 -27,-12 -40,-26 -40,-44 0,-21 34,-96 54,-108 16,-10 66,-29 86,-37l-2 -32c10,-11 25,-25 43,-41 3,9 7,66 12,170 0,26 3,57 18,57l213 -1c-9,-28 -24,-55 -43,-77l44 -70c3,-6 7,-6 10,-1 46,64 59,146 51,223zm-337 -106c-1,-12 -2,-40 -4,-84 -45,14 -75,31 -90,53 20,21 51,31 94,31zm268 -133l-69 70 -89 -70 67 -69 91 69z"/>
        <path class="fil1" d="M2550 3087c0,8 -6,14 -19,14l-429 0c-49,0 -60,-41 -62,-82l-18 -272 53 -50c7,-5 11,-8 11,4l10 263c0,13 3,26 5,39 5,7 16,10 35,11l285 8c-49,-60 -95,-90 -135,-90 -20,2 -39,6 -57,14 -3,2 -6,2 -9,2 -3,1 -8,-1 -8,-6 1,-5 2,-9 6,-13 27,-37 60,-57 98,-57 34,0 66,13 99,37 5,3 29,26 72,69 25,25 47,36 64,36l-1 73zm-149 -285l-69 69 -90 -69 68 -70 91 70z"/>
       </g>
      </svg>